<?xml version="1.0" encoding="utf-8"?>
<!-- Svg Vector Icons : http://www.sfont.cn -->
<!DOCTYPE svg PUBLIC "-//W3C//DTD SVG 1.1//EN" "http://www.w3.org/Graphics/SVG/1.1/DTD/svg11.dtd">
<svg version="1.1" xmlns="http://www.w3.org/2000/svg" xmlns:xlink="http://www.w3.org/1999/xlink" x="0px" y="0px" viewBox="0 0 1000 1000" enable-background="new 0 0 1000 1000" xml:space="preserve">
<metadata> Svg Vector Icons : http://www.sfont.cn </metadata>
<g><path d="M500,990c-238.8,0-432.5-96.8-432.5-216.2c0-77,80.7-144.4,201.8-182.7V649c-87.6,29-144.2,74.1-144.2,124.8c0,87.6,167.8,158.6,374.8,158.6c207,0,374.8-71,374.8-158.6c0-50.7-56.5-95.8-144.2-124.8v-57.9c121.1,38.3,201.8,105.7,201.8,182.7C932.5,893.2,738.8,990,500,990z M515.2,802.4L500,817l-15-14.4c-11.2-10.5-273.3-260.7-273.3-504.6C211.7,138.4,341,10,500,10c159,0,288.4,129.9,288.4,289.5C788.4,537,526.3,791.7,515.2,802.4z M500,67.1c-127.1,0-230.6,108.5-230.6,231c0,174.5,178.4,381.3,230.6,432.5c52.1-52.1,230.6-262.7,230.6-432.5C730.6,175.5,627.1,67.1,500,67.1z M355.4,326.9c0-79.4,64.9-144,144.6-144c79.8,0,144.7,64.6,144.7,144c0,79.4-64.9,144-144.7,144C420.3,470.9,355.4,406.3,355.4,326.9z M586.5,326.9c0-47.5-38.8-86.1-86.5-86.1c-47.7,0-86.5,38.6-86.5,86.1c0,47.5,38.8,86.1,86.5,86.1C547.7,413,586.5,374.4,586.5,326.9z"/></g>
</svg>