<?xml version="1.0" encoding="utf-8"?>
<!-- Svg Vector Icons : http://www.sfont.cn -->
<!DOCTYPE svg PUBLIC "-//W3C//DTD SVG 1.1//EN" "http://www.w3.org/Graphics/SVG/1.1/DTD/svg11.dtd">
<svg version="1.1" xmlns="http://www.w3.org/2000/svg" xmlns:xlink="http://www.w3.org/1999/xlink" x="0px" y="0px" viewBox="0 0 1000 1000" enable-background="new 0 0 1000 1000" xml:space="preserve">
<metadata> Svg Vector Icons : http://www.sfont.cn </metadata>
<g><path d="M563.8,635.2L518.3,702c-11.7,17.2-35.4,21.7-52.7,10l-96.2-65.5c-17.2-11.8-21.7-35.5-10-52.7l139.8-205.3c11.7-17.3,35.5-21.7,52.7-10l96.2,65.5c17.2,11.7,21.7,35.5,10,52.7l-45.5,66.8l348,237c11.3,7.7,14.2,23.1,6.5,34.4l-21,30.8c-7.6,11.3-23.1,14.2-34.3,6.5L563.8,635.2z"/><path d="M951.1,162.4L951.1,162.4c-24.1-24-57.2-38.9-93.5-38.9H142.4c-36.4,0-69.5,14.9-93.5,38.9c-24,24-38.9,57.1-38.9,93.5v479.6c0,36.4,14.9,69.5,38.9,93.5c24,24,57.1,38.9,93.5,38.9h303.9c-5.8-16-9.5-32.9-10.9-50.4h-293c-22.5,0-43-9.2-57.9-24.1c-14.9-14.9-24.1-35.4-24.1-57.9v-429h879.1v135.2c17.5,0.5,34.4,3.4,50.4,8.2V256C990,219.5,975.1,186.4,951.1,162.4z M928.2,238.3H71.7v-2c0-28.8,23.5-52.3,52.3-52.3h751.8c28.8,0,52.3,23.5,52.3,52.3L928.2,238.3L928.2,238.3z"/></g>
</svg>