<?xml version="1.0" encoding="utf-8"?>
<!-- Svg Vector Icons : http://www.sfont.cn -->
<!DOCTYPE svg PUBLIC "-//W3C//DTD SVG 1.1//EN" "http://www.w3.org/Graphics/SVG/1.1/DTD/svg11.dtd">
<svg version="1.1" xmlns="http://www.w3.org/2000/svg" xmlns:xlink="http://www.w3.org/1999/xlink" x="0px" y="0px" viewBox="0 0 1000 1000" enable-background="new 0 0 1000 1000" xml:space="preserve">
<metadata> Svg Vector Icons : http://www.sfont.cn </metadata>
<g><g><g><path d="M603.8,219.4c0.8-4,1.4-7.9,1.4-12.1c0-41-39.1-74.2-87.3-74.2c-48.2,0-87.2,33.2-87.2,74.2c0,4.2,0.7,8.2,1.5,12.1c-60.8,17.3-113.9,52.6-153.6,99.5h478.8C717.7,272,664.6,236.7,603.8,219.4z"/><path d="M914.5,357c-44.7-22.3-97.8-15-143,14.1H263.6c-32.7,45.4-53.6,99.9-58,159c-5.5-14.2-8.1-32-6.7-54.5c3.7-62.4-12.5-110.9-48.3-144.1c-54.9-51-132-42.5-140.5-41.3c0,0,28.7,42.9,11,83.1c0,0,46.1-4.8,72.4,19.7c16.5,15.4,23.8,41.5,21.7,77.8c-3.8,63.3,12.6,111.9,48.6,144.3c17.1,15.4,36.2,24.7,54.6,30.4c39.2,128.3,158.5,221.6,299.6,221.6c119,0,222.4-66.3,275.5-163.9c65.1,5.5,136-37.7,173.1-111.9C1012.4,499.2,989,394.2,914.5,357z M891.5,553.7c-15.3,30.6-40.9,51.8-65.8,58.4c3.6-19,5.6-38.5,5.6-58.5c0-37.6-6.9-73.5-19.1-106.8c20.7-13.6,43.5-18,61.9-8.9C906.7,454.2,914.8,507.2,891.5,553.7z"/></g></g><g></g><g></g><g></g><g></g><g></g><g></g><g></g><g></g><g></g><g></g><g></g><g></g><g></g><g></g><g></g></g>
</svg>