<?xml version="1.0" encoding="utf-8"?>
<!-- Svg Vector Icons : http://www.sfont.cn -->
<!DOCTYPE svg PUBLIC "-//W3C//DTD SVG 1.1//EN" "http://www.w3.org/Graphics/SVG/1.1/DTD/svg11.dtd">
<svg version="1.1" xmlns="http://www.w3.org/2000/svg" xmlns:xlink="http://www.w3.org/1999/xlink" x="0px" y="0px" viewBox="0 0 1000 1000" enable-background="new 0 0 1000 1000" xml:space="preserve">
<metadata> Svg Vector Icons : http://www.sfont.cn </metadata>
<g><path d="M920.3,278l-16.1,36l0,0L796.1,554.4l-387.8,25.8l-48.6,3.3L252.9,278H264H920.3 M867.5,768c16.8,0,30.6,13.8,30.6,30.6s-13.8,30.6-30.6,30.6s-30.6-13.8-30.6-30.6V768H867.5 M285.6,768v30.6c0,16.8-13.8,30.6-30.6,30.6s-30.6-13.8-30.6-30.6S238.2,768,255,768H285.6 M193.8,109.5H55.9C30.5,109.5,10,130,10,155.5s20.5,45.9,45.9,45.9h105.3l176.9,505.3H255c-50.7,0-91.9,41.2-91.9,91.9s41.2,91.9,91.9,91.9s91.9-41.2,91.9-91.9h428.8c0,50.7,41.2,91.9,91.9,91.9s91.9-41.2,91.9-91.9s-41.2-91.9-91.9-91.9H435.3l-23-65.5l396.8-26.4l0,0c17.4-1.1,32-11.9,38.9-27l0,0l137.8-306.3l0,0c2.7-5.7,4.2-12.1,4.2-18.8c0-25.5-20.5-45.9-45.9-45.9H263.8L237,140.5h-0.2C230.7,122.5,213.8,109.5,193.8,109.5L193.8,109.5z"/></g>
</svg>