<?xml version="1.0" encoding="utf-8"?>
<!-- Svg Vector Icons : http://www.sfont.cn -->
<!DOCTYPE svg PUBLIC "-//W3C//DTD SVG 1.1//EN" "http://www.w3.org/Graphics/SVG/1.1/DTD/svg11.dtd">
<svg version="1.1" xmlns="http://www.w3.org/2000/svg" xmlns:xlink="http://www.w3.org/1999/xlink" x="0px" y="0px" viewBox="0 0 1000 1000" enable-background="new 0 0 1000 1000" xml:space="preserve">
<metadata> Svg Vector Icons : http://www.sfont.cn </metadata>
<g><path d="M429.2,185l56.9-29.9l56.8,29.9L532,121.7l46-44.9l-63.5-9.2L486.1,10l-28.5,57.6l-63.5,9.2l46,44.9L429.2,185z"/><path d="M906.5,827.9L684.9,606h131.5L646.1,435.7h90.1L486.1,185.5L235.9,435.7H326L155.7,606h131.5L65.6,827.9H398v70.3L270,990h432.1L574,898.1v-70.3H906.5z"/><path d="M168,329.7c31.1,0,56.3-25.2,56.3-56.3S199.1,217,168,217s-56.3,25.2-56.3,56.3S136.9,329.7,168,329.7z"/><path d="M293.8,278.9c15.6,0,28.2-12.6,28.2-28.2c0-15.6-12.6-28.2-28.2-28.2c-15.6,0-28.2,12.6-28.2,28.2C265.7,266.4,278.3,278.9,293.8,278.9z"/><path d="M230,126.8c17.6,0,31.9-14.3,31.9-31.9c0-17.7-14.3-31.9-31.9-31.9c-17.7,0-31.9,14.3-31.9,31.9S212.4,126.8,230,126.8z"/><path d="M333.3,168.1c10.4,0,18.8-8.4,18.8-18.8c0-10.4-8.4-18.8-18.8-18.8c-10.4,0-18.7,8.4-18.7,18.8C314.5,159.7,322.9,168.1,333.3,168.1z"/><path d="M667.8,87.3c10.4,0,18.8-8.4,18.8-18.8c0-10.4-8.4-18.8-18.8-18.8c-10.4,0-18.8,8.4-18.8,18.8C648.9,78.9,657.4,87.3,667.8,87.3z"/><path d="M624.5,186.9c14.5,0,26.3-11.8,26.3-26.3c0-14.6-11.8-26.3-26.3-26.3s-26.3,11.8-26.3,26.3C598.2,175.1,610,186.9,624.5,186.9z"/><path d="M741,277.1c35.3,0,63.9-28.7,63.9-63.9s-28.6-63.9-63.9-63.9c-35.3,0-63.9,28.7-63.9,63.9S705.7,277.1,741,277.1z"/><path d="M727.9,344.7c0,14.6,11.8,26.3,26.3,26.3s26.3-11.8,26.3-26.3s-11.8-26.3-26.3-26.3S727.9,330.1,727.9,344.7z"/><path d="M152.9,478.1c27,0,48.9-21.9,48.9-48.9c0-27-21.9-48.8-48.9-48.8c-26.9,0-48.9,21.9-48.9,48.8C104.1,456.2,126,478.1,152.9,478.1z"/><path d="M883.8,220.7c-28,0-50.7,22.8-50.7,50.7c0,28,22.7,50.8,50.7,50.8c28,0,50.7-22.8,50.7-50.8C934.4,243.4,911.8,220.7,883.8,220.7z"/></g>
</svg>