<?xml version="1.0" encoding="utf-8"?>
<!-- Svg Vector Icons : http://www.sfont.cn -->
<!DOCTYPE svg PUBLIC "-//W3C//DTD SVG 1.1//EN" "http://www.w3.org/Graphics/SVG/1.1/DTD/svg11.dtd">
<svg version="1.1" xmlns="http://www.w3.org/2000/svg" xmlns:xlink="http://www.w3.org/1999/xlink" x="0px" y="0px" viewBox="0 0 1000 1000" enable-background="new 0 0 1000 1000" xml:space="preserve">
<metadata> Svg Vector Icons : http://www.sfont.cn </metadata>
<g><path d="M642.6,614.8c-145.2,0-268-123.9-268-270.5c0-146.6,119.3-265.9,266-265.9c146.3,0,269.9,122.9,269.9,268.5C910.6,494.6,790.4,614.8,642.6,614.8z M640.7,169.5c-96.4,0-174.9,78.4-174.9,174.8c0,97.2,81,179.3,176.8,179.3s176.8-81,176.8-176.8C819.4,250.7,737.6,169.5,640.7,169.5z"/><path d="M944.4,693.7c-11.7,0-23.3-4.4-32.2-13.4l-97.3-97.3c-17.8-17.8-17.8-46.7,0-64.5c17.8-17.8,46.7-17.8,64.5,0l97.3,97.3c17.8,17.8,17.8,46.7,0,64.5C967.7,689.3,956.1,693.7,944.4,693.7z"/><path d="M283.5,215.1H55.6c-25.2,0-45.6-20.4-45.6-45.6c0-25.2,20.4-45.6,45.6-45.6h227.9c25.2,0,45.6,20.4,45.6,45.6C329.1,194.7,308.7,215.1,283.5,215.1z"/><path d="M283.5,557H55.6C30.4,557,10,536.6,10,511.4c0-25.2,20.4-45.6,45.6-45.6h227.9c25.2,0,45.6,20.4,45.6,45.6C329.1,536.6,308.7,557,283.5,557z"/><path d="M876.1,921.6H55.6C30.4,921.6,10,901.2,10,876c0-25.2,20.4-45.6,45.6-45.6h820.5c25.2,0,45.6,20.4,45.6,45.6C921.6,901.2,901.2,921.6,876.1,921.6z"/></g>
</svg>