<?xml version="1.0" encoding="utf-8"?>
<!-- Svg Vector Icons : http://www.sfont.cn -->
<!DOCTYPE svg PUBLIC "-//W3C//DTD SVG 1.1//EN" "http://www.w3.org/Graphics/SVG/1.1/DTD/svg11.dtd">
<svg version="1.1" xmlns="http://www.w3.org/2000/svg" xmlns:xlink="http://www.w3.org/1999/xlink" x="0px" y="0px" viewBox="0 0 1000 1000" enable-background="new 0 0 1000 1000" xml:space="preserve">
<metadata> Svg Vector Icons : http://www.sfont.cn </metadata>
<g><path d="M970,30c-26.7-26.6-69.9-26.6-96.5,0L500,403.5L126.5,30C99.9,3.3,56.6,3.3,30,30C3.3,56.6,3.3,99.9,30,126.5L403.5,500L30,873.5C3.3,900.1,3.3,943.4,30,970c13.3,13.3,30.8,20,48.3,20c17.5,0,34.9-6.7,48.3-20L500,596.5L873.5,970c13.3,13.3,30.8,20,48.3,20c17.5,0,34.9-6.7,48.3-20c26.7-26.6,26.7-69.9,0-96.5L596.5,500L970,126.5C996.7,99.9,996.7,56.6,970,30z"/></g>
</svg>