<?xml version="1.0" encoding="utf-8"?>
<!-- Svg Vector Icons : http://www.sfont.cn -->
<!DOCTYPE svg PUBLIC "-//W3C//DTD SVG 1.1//EN" "http://www.w3.org/Graphics/SVG/1.1/DTD/svg11.dtd">
<svg version="1.1" xmlns="http://www.w3.org/2000/svg" xmlns:xlink="http://www.w3.org/1999/xlink" x="0px" y="0px" viewBox="0 0 1000 1000" enable-background="new 0 0 1000 1000" xml:space="preserve">
<metadata> Svg Vector Icons : http://www.sfont.cn </metadata>
<g><path d="M10.6,760.4"/><path d="M768.9,229.7L508.3,374.3L253.5,226c-10.3,9-15.8,23.9-15.8,29V713c0,18.1,23.4,40.7,41.5,40.7h458.1c18.1,0,40.7-22.6,40.7-40.7V254.9C778,253.3,776.4,234.1,768.9,229.7z M589,591.3c7.8,0,14.1,6.3,14.1,14.1c0,7.8-6.3,14.1-14.1,14.1v0.1l-65.3,0V653h-0.1c0,7.8-6.3,14.1-14.1,14.1c-7.8,0-14.1-6.3-14.1-14.1h-0.1v-33.3l-67.3-0.1v-0.1c-7.8,0-14.1-6.3-14.1-14.2c0-7.8,6.3-14.2,14.1-14.2l67.3,0v-28.7l-67.3,0v-0.1c-7.8,0-14.1-6.3-14.1-14.1c0-7.8,6.3-14.2,14.1-14.2l67.3,0v-0.7l-67-77.2l0.1-0.1c-5.8-5.2-6.4-14.1-1.2-20c5.2-5.9,14.1-6.4,20-1.2l61.3,72.8l59.9-69.7c5.8-5.2,14.8-4.7,20,1.2c5.2,5.8,4.7,14.8-1.2,20l0.1,0.1l-63.6,74.8l65.3,0c7.8,0,14.1,6.3,14.1,14.1s-6.3,14.1-14.1,14.1v0.1l0,0l-65.3,0v28.7L589,591.3z"/><path d="M789.8,10H210.2C99.6,10,10,99.6,10,210.2v579.7C10,900.4,99.6,990,210.2,990h579.7C900.4,990,990,900.4,990,789.8V210.2C990,99.6,900.4,10,789.8,10z M803,251.6L803,251.6l0,282.2v182.5c0,34.5-27.9,62.4-62.4,62.4H275.9c-34.5,0-62.4-27.9-62.4-62.4V251.6c0-21.7,11.1-40.8,27.9-52l2.2-1.2c9.5-5.8,20.5-9.3,32.3-9.3h464.7c26,0,48.3,16,57.7,38.6l2.1,6.8C801.9,240.1,803,245.7,803,251.6L803,251.6L803,251.6L803,251.6z"/><path d="M747.2,214.3l-461.4-0.1l220.6,131.1L747.2,214.3z"/></g>
</svg>