<?xml version="1.0" encoding="utf-8"?>
<!-- Svg Vector Icons : http://www.sfont.cn -->
<!DOCTYPE svg PUBLIC "-//W3C//DTD SVG 1.1//EN" "http://www.w3.org/Graphics/SVG/1.1/DTD/svg11.dtd">
<svg version="1.1" xmlns="http://www.w3.org/2000/svg" xmlns:xlink="http://www.w3.org/1999/xlink" x="0px" y="0px" viewBox="0 0 1000 1000" enable-background="new 0 0 1000 1000" xml:space="preserve">
<metadata> Svg Vector Icons : http://www.sfont.cn </metadata>
<g><g transform="translate(0.000000,511.000000) scale(0.100000,-0.100000)"><path d="M816.6,4760.4c-330.5-55.7-591.9-270.9-680.2-561.1c-124.9-401.6,78.8-805.2,507.3-1010.8c86.5-42.3,453.5-176.8,816.7-297.8c361.3-123,736-259.4,832.1-305.5l172.9-80.7l-88.4-99.9c-196-224.8-507.3-413.1-1053-638c-157.6-65.3-351.7-151.8-432.4-192.2c-413.1-207.5-620.7-484.2-620.7-828.2c0-461.2,357.4-776.3,876.2-774.4c395.9,1.9,749.4,197.9,899.3,503.4c55.7,115.3,61.5,142.2,61.5,309.4c0,169.1-5.8,194.1-63.4,311.3c-78.8,161.4-228.7,328.6-363.2,403.5c-57.6,32.7-101.8,61.5-98,63.4c15.4,13.5,1156.8,663,1166.4,663c5.8,0,30.7-34.6,55.7-76.9l42.3-74.9v-3105.3c0-2323.2,5.8-3128.3,23.1-3195.6c34.6-136.4,184.5-280.6,324.8-309.4c76.9-17.3,901.2-21.1,3236-17.3l3132.2,5.8l92.2,46.1c99.9,48,176.8,136.4,217.1,246c21.2,59.6,25,649.5,26.9,3268.6c0,3097.6-1.9,3197.5-36.5,3266.7c-46.1,90.3-86.5,126.8-194.1,174.9c-86.5,38.4-111.4,40.4-3209.1,40.4H3337.7l960.8,486.2c528.4,267.1,1420,718.7,1979.2,1003.1L7296.2,4501l-105.7,25c-459.3,105.7-995.4,74.9-1516.2-82.6c-476.6-144.1-1433.5-570.7-1913.9-849.3c-676.4-393.9-1093.4-680.2-1156.8-797.5c-17.3-32.7-28.8-30.8-199.8,30.7c-180.6,65.3-703.3,274.8-845.5,338.2l-74.9,34.6l117.2,92.2c153.7,119.1,274.8,286.3,307.5,417c13.4,55.7,23.1,169.1,23.1,253.6c-1.9,132.6-11.5,167.2-71.1,290.2C1675.6,4625.9,1250.9,4833.4,816.6,4760.4z M1316.2,4477.9c286.3-126.8,413.1-370.9,332.4-639.9c-86.5-290.2-417-505.4-722.5-470.8c-121.1,15.4-315.1,99.9-422.8,184.5c-99.9,78.8-172.9,230.6-172.9,353.6c0,242.1,222.9,505.4,509.2,601.5C953,4543.3,1202.8,4529.8,1316.2,4477.9z M5653.3,1841.5v-211.4h-883.9h-883.9v211.4v211.4h883.9h883.9V1841.5z M8439.6,1841.5v-211.4h-883.9h-883.9v211.4v211.4h883.9h883.9V1841.5z M9496.5,592.5v-883.9h-211.4h-211.4v883.9v883.9h211.4h211.4V592.5z M1339.3,1332.3c126.8-21.1,274.8-105.7,376.6-217.1c211.4-230.6,194.1-518.8-44.2-724.4C1379.6,139,993.4,135.1,724.4,383c-146,134.5-192.2,230.6-192.2,403.5c0,136.4,5.8,153.7,67.3,246c105.7,153.7,299.8,276.7,484.2,307.5c55.7,7.7,119.1,13.5,140.3,9.6C1245.1,1347.7,1297,1338,1339.3,1332.3z M3750.9,112.1v-883.9h-211.4h-211.4v883.9V996h211.4h211.4V112.1z M5791.6,310c134.5-61.5,270.9-197.9,334.3-338.2c44.2-98,55.7-153.7,61.5-307.5c5.8-109.5-1.9-224.8-15.4-278.6c-57.6-232.5-226.7-442-430.4-534.2c-297.8-134.5-680.2-11.5-845.5,269C4767.4-660.4,4752-289.6,4859.6-57c96.1,203.7,232.5,332.4,415.1,392C5395.8,375.3,5678.2,359.9,5791.6,310z M7280.9,338.8c-5.8-13.5-328.6-595.7-720.6-1293.2l-711-1268.3l-194.1-5.8c-107.6-1.9-194.1,0-194.1,5.8c0,7.7,1364.3,2450,1435.4,2571.1c3.8,7.7,94.2,13.5,201.8,13.5C7244.3,361.9,7288.5,356.1,7280.9,338.8z M7622.9-750.7c466.9-207.5,524.6-1006.9,94.2-1335.5c-119.1-90.3-257.5-134.5-420.8-134.5c-197.9,0-319,48-453.5,178.7c-157.6,155.7-197.9,271-197.9,559.2c0,186.4,5.8,238.3,44.2,326.7c90.3,217.1,228.7,355.5,430.4,426.6C7255.9-681.6,7488.4-691.2,7622.9-750.7z M9496.5-2213.1V-3097h-211.4h-211.4v883.9v883.9h211.4h211.4V-2213.1z M3750.9-2674.2v-883.9h-211.4h-211.4v883.9v883.9h211.4h211.4V-2674.2z M6114.5-3942.5v-211.4h-883.9h-883.9v211.4v211.4h883.9h883.9V-3942.5z M8920-3942.5v-211.4H8036h-883.9v211.4v211.4H8036H8920V-3942.5z"/><path d="M5386.2,21.7c-94.1-94.2-124.9-194.1-124.9-418.9c0-286.3,76.9-426.6,244.1-445.8c73-9.6,92.2-3.8,144.1,44.2c161.4,148,155.6,693.7-9.6,839.7c-21.1,19.2-71.1,38.4-109.5,46.1C5468.8,96.7,5453.4,89,5386.2,21.7z"/><path d="M7275.1-983.2c-107.6-42.3-161.4-199.9-161.4-463.1c0-313.2,82.6-459.3,261.3-459.3c169.1,0,213.3,113.4,196,507.3c-9.6,228.7-59.6,357.4-151.8,405.5C7359.6-960.2,7334.7-958.3,7275.1-983.2z"/></g></g>
</svg>