<?xml version="1.0" encoding="utf-8"?>
<!-- Svg Vector Icons : http://www.sfont.cn -->
<!DOCTYPE svg PUBLIC "-//W3C//DTD SVG 1.1//EN" "http://www.w3.org/Graphics/SVG/1.1/DTD/svg11.dtd">
<svg version="1.1" xmlns="http://www.w3.org/2000/svg" xmlns:xlink="http://www.w3.org/1999/xlink" x="0px" y="0px" viewBox="0 0 1000 1000" enable-background="new 0 0 1000 1000" xml:space="preserve">
<metadata> Svg Vector Icons : http://www.sfont.cn </metadata>
<g><g><g><path d="M346.2,282.7c-4.8-8,38-162.2,38-174.5c0-12.2-29.4-52.9-32.6-59c-3.2-6.1-16.8-10.4-23.5-15.4c-6.7-5-15.1-15.6-21.3-21.3c-6.1-5.7-42.5,0-53,0c-10.4,0,4.1,16.3,14.6,19.4c-3.3,6.4-19.6,14.6-14.6,20c5,5.4,39.4-12.2,48.9-8.2c9.5,4.1,18.9,29.6,18.9,29.6s-4.4,11.2-1.2,19.3c3.2,8.1,15.9,18.5,13.6,28.5c-2.2,9.9-23.6,46-29.9,57c-6.3,10.9-8.2,37.5-13.6,43.4c-5.4,5.9-17.6,0-17.6,0s7.2-45.7,4.1-54.3c-3.2-8.6-3.2-59.7-53-51.6c-49.8,8.1-43,62.5-39.4,72c1.8,4.6,2.8,22.1,9.1,31.3c6.6,9.6,18.1,10.8,18.1,10.8s3.6,11.3,0,15c-3.6,3.6-46.2-20.4-46.2-20.4s-45.7-36.6-46.2-42.1c-0.2-2.4,4.2-7.8,4.5-14.5c0.4-8.5-3-18.4-0.5-19.5c4.5-1.8,10.5-8.6,14.9-12.2c4.4-3.6-1.8-14.5,2.7-19c4.5-4.5,30.7-31.3,36.6-36.7c5.9-5.3,17.3-12.2,23.7-16.3c6.5-4.1,27.9-21.7,25.1-28.5c-2.7-6.8-21.5,18.1-25.8,15.4c-4.3-2.7-6.8-27.1-20.4-22.2c-9.5,3.5-26,32.5-31.2,40.7c-5.3,8.2-3.6,8.2-9.1,12.2c4.4-3.3-23.3,20-39.8,33.9c-6.4,5.4-13.1,16.6-20.3,25.8c-11.3,14.4-22.3,27.8-23.1,36.6c-1.4,14.5,49.3,81,59.7,86.9c10.4,5.9,27.2,9.5,33.9,16.3c6.8,6.8,26.3,22.2,29.9,30.5c3.7,8.4,30.8,47.8,44.8,61.8c14.1,14,36.1,18.2,44.8,20.4c8.7,2.2,13.6,26.7,10.8,42.1c-2.7,15.4-19,44.3-24.4,74.7C251,541,266.2,562,268.7,584c3.6,32.1-34,238-40.1,271.6c-6,33.6-4.7,95.5-11.5,105.9c-6.8,10.4,0,28.5,0,28.5s86.9,0,108.6,0c21.7,0,37.6-7.2,36.6-14.9c-0.9-7.7-40.7-5.4-42.1-21.7c-1.3-16.3,53-368.8,59.8-388.3c6.8-19.4,21.7-85.5,20.3-120.8c-1.3-35.3-19.4-98.6-25.8-114C368.3,314.8,351,290.7,346.2,282.7z"/><path d="M942.1,516.2c-2.7-3.8-12.8-25.5-23.1-36.6c-23-25.1-55-47.8-62.4-55.7c-10.9-11.3-21.7-23.1-38-19.7c-16.3,3.4-8.1,2-21.7,7.5c-13.5,5.5-101.3,1.8-114-5.5c-12.7-7.2-53.1-33.3-62.4-39.3c-9.3-6-22.6-28.5-35.3-33.9c-12.7-5.5-26.7-2.3-31.2-8.2c-4.5-5.9-11.8-25.8-7.2-29.9c4.5-4.1,20.3,18.8,32.6,11.1c12.2-7.7,6.8-25.7,5.8-30.2c-0.9-4.4,15.4-30.8,9.5-50.2c-5.9-19.5-34.4-27.6-53-29.9c-18.5-2.2-31.2,19-31.2,19s-9.5,5.9-21.8,6.8c-4.5,0.4-0.7,5.5,1.4,9.5c2.1,4-9.5,20.3-7.1,27c2.4,6.7,22.1,10.1,21.4,17.8c-0.7,7.7-5.2,21.8-22.4,23.1c-17.2,1.4-22.6-26.7-35.3-35.3c-6.3-4.3-9.2-19.1-15.3-31.3c-6.1-12.1-15.4-21.6-17.2-25.8c-3.6-8.4,12.2-39.3,12.2-39.3s71,28.1,115.4-30.3c48.4-63.7-6.8-124.5-6.8-124.5l-57,44.8c0,0-4.5-5-10.8,0c-6.3,5-22.9,17.7-29.9,23.1c-7,5.4-52.5,110.4-52.9,120.8c-0.5,10.4,46.1,123.6,46.1,123.6s-7.8,18.9-16.3,39.4c-8.5,20.4,11.8,75.5,6.8,116.8c-5,41.1,8.4,131.6,13.2,166.9c4.7,35.3,3.1,176.9-10.4,266.1c36.2,20.9,69.2,10.9,69.2,10.9s4.3,8.5,8.2,16.3c3.9,7.8-37.1,28.1-23.1,29.9c14.1,1.8,55.2,0.2,59.8,0c4.5-0.2,19.9-18.5,19.9-18.5l7.9,13.4l6.9-0.5l6.5-25.4c0,0,19,5.3,28.1-3c-7.2-8.1-17.7-28.1-17.7-28.1s69.7-15.3,65.2-24.8c-4.5-9.6-27.2-88.2-27.2-88.2S894.7,610.8,896,594.9c1.3-15.9,1.3-46.2,1.3-46.2S950.7,528.4,942.1,516.2z M514.1,463.7c4.5-6.8-2.7-25.8,0-34.8c2.7-9,18.1-28.5,23.9-37.1c5.9-8.6,15.4-13.1,26.3-11.7c10.8,1.3,36.9,31.1,51,35.4c14.2,4.4,74.7,22.9,74.7,22.9S590.5,442.9,514.1,463.7z"/></g></g><g></g><g></g><g></g><g></g><g></g><g></g><g></g><g></g><g></g><g></g><g></g><g></g><g></g><g></g><g></g></g>
</svg>