<?xml version="1.0" encoding="utf-8"?>
<!-- Svg Vector Icons : http://www.sfont.cn -->
<!DOCTYPE svg PUBLIC "-//W3C//DTD SVG 1.1//EN" "http://www.w3.org/Graphics/SVG/1.1/DTD/svg11.dtd">
<svg version="1.1" xmlns="http://www.w3.org/2000/svg" xmlns:xlink="http://www.w3.org/1999/xlink" x="0px" y="0px" viewBox="0 0 1000 1000" enable-background="new 0 0 1000 1000" xml:space="preserve">
<metadata> Svg Vector Icons : http://www.sfont.cn </metadata>
<g><g transform="translate(0.000000,511.000000) scale(0.100000,-0.100000)"><path d="M1659.4,4759.4c-38.9-19.5-88.7-60.6-110.4-90.9C1408.4,4467.3,136,2283.8,116.5,2212.4c-13-58.4-19.5-1196.7-15.2-3313.1l6.5-3224.4l47.6-75.7c26-41.1,80.1-95.2,119-119c71.4-43.3,114.7-43.3,4637.5-49.8c2512.4-4.3,4618,0,4680.8,6.5c125.5,15.2,251,101.7,287.8,199.1c10.8,30.3,19.5,1456.4,19.5,3332.6c0,2722.3-4.3,3289.3-28.1,3336.9c-17.3,30.3-341.9,582.1-722.8,1222.7C8703.3,4279,8435,4711.8,8393.9,4740l-62.8,45.4l-3300.1,4.3C2023,4794.1,1724.4,4791.9,1659.4,4759.4z M4396.9,4077.8c-6.5-28.1-82.2-400.3-164.5-831l-153.7-779V1056.8v-1411H5031h952.2v1421.8v1419.6l-151.5,770.4c-84.4,424.2-155.8,792-162.3,820.2l-10.8,47.6l1181.5-4.3l1181.6-6.5l473.9-800.7c261.9-439.3,473.9-807.2,473.9-815.8c0-10.8-575.6-17.3-1276.8-17.3H6413.8l6.5-328.9l6.5-331.1l1408.8-6.5l1408.8-4.3v-2832.7c2.1-1558.1-4.3-2843.5-13-2856.5c-10.8-17.3-1131.8-21.6-4235-19.5l-4217.7,6.5l-6.5,2852.2l-4.3,2850h1439.1H3646v335.4v335.4H2347.6c-774.7,0-1298.4,8.7-1298.4,19.5c0,15.2,789.9,1365.5,921.9,1577.6l30.3,47.6h1203.2h1203.2L4396.9,4077.8z"/><path d="M1836.9-938.4c-99.6-38.9-147.1-183.9-95.2-283.5c49.8-90.9,125.5-106,562.6-106c454.4,0,534.5,17.3,582.1,121.2c30.3,69.2,30.3,101.7-2.2,170.9c-47.6,108.2-106,119-573.5,116.9C2074.9-918.9,1860.7-927.6,1836.9-938.4z"/><path d="M1774.1-1814.9c-77.9-75.7-73.6-190.4,8.7-272.7l62.7-62.8h1216.2c1281.1,0,1313.6,2.2,1350.4,97.4c30.3,80.1,13,186.1-41.1,238l-51.9,54.1H3072.5H1826.1L1774.1-1814.9z"/><path d="M1787.1-2639.3c-88.7-73.6-95.2-199.1-13-279.2l51.9-54.1h1246.5H4319l51.9,54.1c54.1,51.9,71.4,158,41.1,238c-36.8,95.2-69.3,97.4-1348.2,97.4H1854.2L1787.1-2639.3z"/></g></g>
</svg>