<?xml version="1.0" encoding="utf-8"?>
<!-- Svg Vector Icons : http://www.sfont.cn -->
<!DOCTYPE svg PUBLIC "-//W3C//DTD SVG 1.1//EN" "http://www.w3.org/Graphics/SVG/1.1/DTD/svg11.dtd">
<svg version="1.1" xmlns="http://www.w3.org/2000/svg" xmlns:xlink="http://www.w3.org/1999/xlink" x="0px" y="0px" viewBox="0 0 1000 1000" enable-background="new 0 0 1000 1000" xml:space="preserve">
<metadata> Svg Vector Icons : http://www.sfont.cn </metadata>
<g><g transform="translate(0.000000,511.000000) scale(0.100000,-0.100000)"><path d="M4415.7,5066.8c-27.8-31.8-156.9-190.6-289.9-357.4c-188.6-234.3-256.2-305.8-309.8-323.7c-53.6-17.9-152.9-11.9-500.4,27.8c-246.2,29.8-440.8,43.7-450.7,33.8s133-139,333.6-299.8c226.4-180.7,359.4-303.8,381.2-345.5c27.8-59.6,25.8-99.3-19.9-510.3c-27.8-244.2-43.7-452.7-33.8-462.7c7.9-7.9,137,135,283.9,317.7c146.9,184.7,285.9,351.5,307.8,371.3c63.5,57.6,150.9,59.6,536.1,15.9c409-47.7,508.3-51.6,490.5-21.8c-7.9,11.9-166.8,144.9-355.4,295.9c-232.3,186.7-351.5,295.9-369.3,337.6c-21.8,53.6-17.9,129.1,23.8,498.4c25.8,240.3,41.7,446.8,35.7,456.7C4473.2,5112.5,4443.5,5096.6,4415.7,5066.8z"/><path d="M9359.9,4131.6c-25.8-29.8-121.1-145-210.5-254.2c-99.3-125.1-182.7-208.5-216.4-220.4c-37.7-13.9-148.9-7.9-353.4,15.9c-349.5,41.7-347.5,41.7-347.5,23.8c0-9.9,113.2-105.2,250.2-214.4c137-109.2,262.1-222.4,276-250.2c23.8-43.7,21.8-99.3-9.9-377.3c-21.8-178.7-39.7-327.6-39.7-329.6c0-33.8,63.5,31.8,210.5,218.4c97.3,121.1,196.6,242.3,220.4,268.1c53.6,53.6,133,55.6,472.6,13.9c276-33.8,287.9-35.7,287.9-13.9c0,9.9-111.2,105.2-248.2,214.5c-135,107.2-258.1,216.4-270,242.2c-21.9,37.7-19.9,107.2,9.9,373.3c19.9,180.7,31.8,333.6,27.8,337.6C9413.5,4183.2,9387.7,4161.4,9359.9,4131.6z"/><path d="M1183,2717.8C1014.2,2509.3,928.9,2416,891.1,2408c-39.7-11.9-554,29.8-768.4,59.6c-65.5,7.9,7.9-67.5,258.1-266.1c158.9-125.1,297.8-244.2,307.8-262.1c25.8-47.7,21.8-178.7-13.9-484.5c-49.6-426.9-57.6-424.9,226.4-71.5c135,166.8,268.1,313.7,293.9,325.7c37.7,17.9,137,13.9,420.9-17.9c204.5-23.8,379.3-35.7,387.2-27.8c7.9,7.9-117.1,121.1-278,252.2c-160.8,129.1-305.8,260.1-319.7,289.9c-21.8,47.7-19.9,111.2,13.9,413c23.8,196.6,41.7,367.3,41.7,377.3C1461,3049.4,1403.4,2991.8,1183,2717.8z"/><path d="M2412.1,2006.9l-105.2-53.6l-562-963C1435.2,460.1,1161.2-16.4,1133.4-70.1c-59.6-119.1-63.5-242.2-11.9-345.5c19.9-39.7,947.2-1038.5,2057.1-2218c2190.2-2325.2,2130.6-2267.6,2317.3-2245.7c51.6,6,121.1,23.8,152.9,41.7c71.5,35.7,4106.3,4310.8,4155.9,4404.2c49.6,89.4,61.5,174.7,37.7,264.1C9820.6-85.9,8692.7,1864,8623.2,1941.4c-23.8,25.8-79.4,63.5-123.1,83.4c-75.5,35.7-204.5,37.7-3030.1,37.7H2517.4L2412.1,2006.9z M4846.5,1206.7c-43.7-43.7-307.8-303.8-589.7-575.8l-508.3-496.4l-287.9,502.4c-156.9,276-307.8,536.1-331.6,577.8l-43.7,73.5h919.4H4924L4846.5,1206.7z M7834.9,1276.2c0-7.9-145-266.1-321.7-575.8l-321.7-561.9l-307.8,295.9c-170.8,162.8-434.8,421-587.7,573.9l-278,280h909.4C7425.9,1288.1,7834.9,1282.2,7834.9,1276.2z M6069.7,563.4C6383.4,257.6,6639.6,1.4,6641.6-6.5c0-9.9-524.2-15.9-1169.6-15.9c-643.3,0-1171.5,5.9-1171.5,13.9c0,27.8,1143.7,1135.8,1169.6,1131.8C5485.9,1121.3,5756,869.2,6069.7,563.4z M8577.6,519.7c158.9-274,289.9-508.3,289.9-520.2c0-15.9-184.7-21.8-595.7-21.8c-426.9,0-595.7,5.9-595.7,21.8c0,37.7,585.8,1048.4,597.7,1034.5C8281.7,1026,8416.7,795.7,8577.6,519.7z M2976.1,517.7C3136.9,235.7,3268-0.6,3268-8.5c0-7.9-272-13.9-605.6-13.9s-605.6,4-605.6,9.9c0,21.8,603.6,1042.5,615.5,1042.5C2680.2,1030,2817.2,799.7,2976.1,517.7z M4048.3-1722.1c282-673.1,508.3-1227.1,504.4-1231.1c-6-6-1908.2,2001.5-2225.9,2349l-95.3,105.2h653.3H3538L4048.3-1722.1z M6846.1-584.3C6673.3-1017.2,5480-3854.7,5470-3854.7c-7.9,0-1314.5,3101.6-1399.9,3326c-9.9,25.8,162.8,29.8,1399.9,29.8h1411.8L6846.1-584.3z M8535.9-685.6c-95.3-101.3-621.5-659.2-1167.6-1239c-546-579.8-994.8-1052.4-996.8-1048.4c-2,2,222.4,544.1,496.4,1203.3c276,661.2,508.3,1217.2,516.3,1237.1c11.9,31.8,61.6,33.8,671.1,33.8h657.3L8535.9-685.6z"/></g></g>
</svg>