<?xml version="1.0" encoding="utf-8"?>
<!-- Svg Vector Icons : http://www.sfont.cn -->
<!DOCTYPE svg PUBLIC "-//W3C//DTD SVG 1.1//EN" "http://www.w3.org/Graphics/SVG/1.1/DTD/svg11.dtd">
<svg version="1.1" xmlns="http://www.w3.org/2000/svg" xmlns:xlink="http://www.w3.org/1999/xlink" x="0px" y="0px" viewBox="0 0 1000 1000" enable-background="new 0 0 1000 1000" xml:space="preserve">
<metadata> Svg Vector Icons : http://www.sfont.cn </metadata>
<g><path d="M68.2,380.3l-40.3-11.2c-8.9,29.1-13.4,58.2-15.7,89.5l40.3,2.2C54.7,434,59.2,407.1,68.2,380.3z M52.5,543.6L10,548.1c2.2,29.1,9,60.4,17.9,89.5l40.3-11.2C59.2,599.6,54.7,570.5,52.5,543.6z M260.6,120.8L238.2,85c-24.6,15.7-49.2,33.6-71.6,55.9l29.1,31.3C215.8,152.1,238.2,134.2,260.6,120.8z M59.2,720.4c13.4,26.8,29.1,53.7,47,76.1l35.8-24.6c-15.7-22.4-31.3-44.7-44.7-69.4L59.2,720.4z M168.9,865.8c22.4,20.1,47,38,71.6,53.7l22.4-35.8c-22.4-13.4-44.7-31.3-67.1-49.2L168.9,865.8z M757.3,82.7c-24.6-15.7-53.7-29.1-80.5-40.3l-15.7,40.3c24.6,9,51.5,22.4,73.8,35.8L757.3,82.7z M580.5,60.3l8.9-42.5c-29.1-4.5-60.4-8.9-89.5-8.9l0,0h-2.2l2.2,44.7C526.8,53.6,553.7,55.9,580.5,60.3z M415,60.3L406,17.8c-29.1,6.7-58.2,13.4-87.3,24.6l15.7,40.3C361.3,73.8,388.1,64.8,415,60.3z M139.8,232.6L106.2,208c-17.9,24.6-33.6,49.2-47,76.1l38,17.9C108.4,277.4,124.1,255,139.8,232.6z M972.1,366.9c-8.9-29.1-20.1-58.2-33.6-85l-38,20.1c11.2,24.6,22.4,51.5,29.1,76.1L972.1,366.9z M802.1,832.3l29.1,31.3c22.4-20.1,42.5-42.5,60.4-67.1L858,771.8C840.1,792,822.2,814.4,802.1,832.3z M900.5,700.3l38,17.9c13.4-26.9,24.6-55.9,33.6-85l-40.3-11.2C922.9,651,913.9,675.6,900.5,700.3z M987.8,456.4l-42.5,4.5c2.2,11.2,2.2,26.8,2.2,40.3c0,13.4,0,26.8-2.2,40.3l42.5,4.5c2.2-15.7,2.2-29.1,2.2-44.7C990,485.5,990,469.8,987.8,456.4z M855.8,230.4l33.6-26.8c-17.9-24.6-38-47-60.4-67.1l-29.1,31.3C822.2,187.9,840.1,208,855.8,230.4z M515.7,762.9l179-179c4.5-4.5,6.7-9,6.7-15.7c0-13.4-9-22.4-22.4-22.4c-6.7,0-11.2,2.2-15.7,6.7l-141,141V255c0-13.4-9-22.4-22.4-22.4c-13.4,0-22.4,8.9-22.4,22.4v438.5l-141-141c-4.5-4.5-8.9-6.7-15.7-6.7c-13.4,0-22.4,9-22.4,22.4c0,6.7,2.2,11.2,6.7,15.7l179,179c4.5,4.5,8.9,6.7,15.7,6.7S511.2,767.4,515.7,762.9z M500,948.6v42.5c31.3,0,60.4-2.2,89.5-8.9l-8.9-42.5C555.9,946.4,526.8,948.6,500,948.6z M323.2,959.8c29.1,11.2,58.2,20.1,87.3,24.6l6.7-42.5c-26.8-4.5-53.7-13.4-80.5-22.4L323.2,959.8z M661.1,919.5l15.7,40.3c29.1-11.2,55.9-24.6,80.5-40.3l-22.4-35.8C712.6,897.1,687.9,908.3,661.1,919.5z"/></g>
</svg>