<?xml version="1.0" encoding="utf-8"?>
<!-- Svg Vector Icons : http://www.sfont.cn -->
<!DOCTYPE svg PUBLIC "-//W3C//DTD SVG 1.1//EN" "http://www.w3.org/Graphics/SVG/1.1/DTD/svg11.dtd">
<svg version="1.1" xmlns="http://www.w3.org/2000/svg" xmlns:xlink="http://www.w3.org/1999/xlink" x="0px" y="0px" viewBox="0 0 1000 1000" enable-background="new 0 0 1000 1000" xml:space="preserve">
<metadata> Svg Vector Icons : http://www.sfont.cn </metadata>
<g><path d="M852.7,455.5c-18.6,0-33.7,15.1-33.7,33.7v423.2c0,7.2-5.8,13-13,13H90.4c-7.2,0-13-5.8-13-13V196.8c0-7.2,5.8-13,13-13h423.4c18.6,0,33.7-15.1,33.7-33.7c0-18.6-15.1-33.7-33.7-33.7H90.4c-44.3,0-80.4,36-80.4,80.4v715.6c0,44.3,36.1,80.4,80.4,80.4H806c44.3,0,80.4-36.1,80.4-80.4V489.2C886.3,470.6,871.2,455.5,852.7,455.5z"/><path d="M966.4,117.8l-86.9-86.9c-15.2-15.2-35.4-23.5-56.8-23.5c-21.5,0-41.6,8.4-56.8,23.5L378.6,418.1c-3.5,3.5-6.2,7.8-7.9,12.4L285.2,669c-4.4,12.3-1.3,26,7.9,35.2c6.4,6.4,15,9.9,23.8,9.9c3.8,0,7.7-0.6,11.4-2l238.4-85.5c4.7-1.7,8.9-4.4,12.4-7.9l387.3-387.3c15.2-15.2,23.6-35.4,23.6-56.8C990,153.1,981.6,132.9,966.4,117.8z M372.7,624.6L425.6,477l94.6,94.6L372.7,624.6z M918.8,183.8L537.5,565.1L432.2,459.8L813.5,78.5c3.3-3.3,7.2-3.8,9.2-3.8c2,0,5.9,0.5,9.2,3.8l86.9,86.9c3.3,3.3,3.8,7.2,3.8,9.2C922.6,176.6,922.1,180.4,918.8,183.8z"/><path d="M579,433.9l-31.3,31.3c-3.3,3.3-3.3,8.6,0,11.9c1.6,1.6,3.8,2.5,5.9,2.5c2.2,0,4.3-0.8,6-2.5l31.3-31.3c3.3-3.3,3.3-8.6,0-11.9C587.7,430.7,582.3,430.7,579,433.9z"/><path d="M842.5,170.5L621.4,391.6c-3.3,3.3-3.3,8.6,0,11.9c1.6,1.6,3.8,2.5,5.9,2.5c2.2,0,4.3-0.8,6-2.5l221.1-221.1c3.3-3.3,3.3-8.6,0-11.9C851.2,167.2,845.8,167.2,842.5,170.5z"/></g>
</svg>