<?xml version="1.0" encoding="utf-8"?>
<!-- Svg Vector Icons : http://www.sfont.cn -->
<!DOCTYPE svg PUBLIC "-//W3C//DTD SVG 1.1//EN" "http://www.w3.org/Graphics/SVG/1.1/DTD/svg11.dtd">
<svg version="1.1" xmlns="http://www.w3.org/2000/svg" xmlns:xlink="http://www.w3.org/1999/xlink" x="0px" y="0px" viewBox="0 0 1000 1000" enable-background="new 0 0 1000 1000" xml:space="preserve">
<metadata> Svg Vector Icons : http://www.sfont.cn </metadata>
<g><path d="M234.6,472.8l-40.8,40.8L319,650.4l71-71L234.6,472.8z M826.7,255l-15.3,12.3l3.1,3.1L557.6,527.2l32.4,32.4L860.7,289L826.7,255z M374.1,710.7l3.4,3.7h57.8l97-97L499.9,585L374.1,710.7z"/><path d="M500,10C229.4,10,10,229.4,10,500c0,270.6,219.4,490,490,490c270.6,0,490-219.4,490-490C990,229.4,770.6,10,500,10z M500,853.9c-45.1,0-81.7-36.6-81.7-81.7c0-45.1,36.6-81.7,81.7-81.7c45.1,0,81.7,36.6,81.7,81.7C581.6,817.3,545.1,853.9,500,853.9z M581.6,200.6L581.6,200.6c0,3.9-0.3,7.7-0.8,11.5l-26.4,369.6c0,15-12.2,27.2-27.2,27.2h-54.4c-15,0-27.2-12.2-27.2-27.2l-26.4-369.6c-0.5-3.8-0.8-7.6-0.8-11.5c0,0,0,0,0,0l0,0c0-0.5,0-0.9,0-1.4c0.8-44.5,37-80.3,81.6-80.3c44.6,0,80.9,35.8,81.6,80.3C581.6,199.6,581.6,200.1,581.6,200.6L581.6,200.6z"/></g>
</svg>