<?xml version="1.0" encoding="utf-8"?>
<!-- Svg Vector Icons : http://www.sfont.cn -->
<!DOCTYPE svg PUBLIC "-//W3C//DTD SVG 1.1//EN" "http://www.w3.org/Graphics/SVG/1.1/DTD/svg11.dtd">
<svg version="1.1" xmlns="http://www.w3.org/2000/svg" xmlns:xlink="http://www.w3.org/1999/xlink" x="0px" y="0px" viewBox="0 0 1000 1000" enable-background="new 0 0 1000 1000" xml:space="preserve">
<metadata> Svg Vector Icons : http://www.sfont.cn </metadata>
<g><g transform="translate(0.000000,512.000000) scale(0.100000,-0.100000)"><path d="M2382,4997.7c-187.6-59.4-293-151.3-390.6-337l-46-86.2l-5.7-2071.8L1935.8,431l-685.5-5.8l-683.6-5.7l-128.3-63.2C294.9,285.4,227.9,218.4,157,65.3L107.2-40.1l-5.7-1799.9c-3.8-1585.4-1.9-1817.1,24.9-1951.2c78.5-383,317.9-693.1,670.2-863.6c273.8-132.1,21.1-124.5,4202.9-124.5c3368.1,0,3789.3,3.8,3919.5,30.6c381,78.5,687.4,317.9,857.8,668.3c134,277.6,126.4-11.5,120.6,4538l-5.7,4097.6l-63.2,128.3c-70.8,143.6-137.9,210.6-291.1,281.5l-105.3,49.8l-3484.9,3.8C3103.9,5020.7,2447.1,5016.8,2382,4997.7z M9146.9,4362c28.7-21.1,70.8-63.2,91.9-91.9l40.2-51.7V251v-3967.4l-46-95.7c-61.3-120.6-178.1-237.4-298.7-298.7l-95.7-46l-3230.2-5.7l-3230.2-3.8l57.4,120.6c118.7,254.7,113,13.4,113,4296.7c0,2720.9,5.7,3925.3,21.1,3963.6c26.8,70.8,90,139.8,160.8,170.4c47.9,21.1,612.7,24.9,3211.1,21.1C9093.3,4402.2,9095.2,4402.2,9146.9,4362z M1932-1949.1l-5.7-1767.3l-46-95.7c-61.3-120.6-178.1-237.4-298.7-298.7c-137.9-67-379.1-67-517,0c-120.6,61.3-237.4,178.1-298.7,298.7l-46,95.7l-5.7,1618c-3.8,890.4,0,1644.8,5.7,1679.3c13.4,76.6,93.8,174.2,172.3,208.7c42.1,19.1,183.8,24.9,551.5,26.8h492.1L1932-1949.1z"/><path d="M3950.2,2847.4c-34.5-17.2-86.2-61.3-114.9-97.6c-74.7-97.7-72.8-256.6,0-352.3c101.5-134,72.8-130.2,1164.2-130.2c1091.4,0,1062.7-3.8,1164.2,130.2c74.7,97.7,74.7,254.7,0,352.3c-101.5,134-72.8,130.2-1168,130.2C4126.3,2880,4005.7,2876.1,3950.2,2847.4z"/><path d="M3950.2,1622c-34.5-17.2-86.2-61.3-114.9-97.6c-74.7-97.7-72.8-256.6,0-352.3c105.3-137.9-30.6-130.2,2083.3-130.2s1977.9-7.7,2083.3,130.2c74.7,97.7,74.7,254.7,0,352.3c-105.3,137.9,30.6,130.2-2087.1,130.2C4193.4,1654.5,4007.6,1650.7,3950.2,1622z"/><path d="M3950.2,396.5c-34.5-17.2-86.2-61.3-114.9-97.6c-74.7-97.7-72.8-256.6,0-352.3c105.3-137.9-30.6-130.2,2083.3-130.2s1977.9-7.7,2083.3,130.2c74.7,97.6,74.7,254.7,0,352.3c-105.3,137.9,30.6,130.2-2087.1,130.2C4193.4,429.1,4007.6,425.2,3950.2,396.5z"/><path d="M3950.2-828.9c-34.5-17.2-86.2-61.3-114.9-97.6c-74.7-97.7-72.8-256.6,0-352.3c105.3-137.9-30.6-130.2,2083.3-130.2s1977.9-7.7,2083.3,130.2c74.7,97.6,74.7,254.7,0,352.3c-105.3,137.8,30.6,130.2-2087.1,130.2C4193.4-796.4,4007.6-800.2,3950.2-828.9z"/><path d="M3950.2-2054.4c-34.5-17.2-86.2-61.3-114.9-97.6c-74.7-97.7-72.8-256.6,0-352.3c105.3-137.9-30.6-130.2,2083.3-130.2s1977.9-7.7,2083.3,130.2c74.7,97.6,74.7,254.7,0,352.3c-105.3,137.9,30.6,130.2-2087.1,130.2C4193.4-2021.8,4007.6-2025.7,3950.2-2054.4z"/></g></g>
</svg>