<?xml version="1.0" encoding="utf-8"?>
<!-- Svg Vector Icons : http://www.sfont.cn -->
<!DOCTYPE svg PUBLIC "-//W3C//DTD SVG 1.1//EN" "http://www.w3.org/Graphics/SVG/1.1/DTD/svg11.dtd">
<svg version="1.1" xmlns="http://www.w3.org/2000/svg" xmlns:xlink="http://www.w3.org/1999/xlink" x="0px" y="0px" viewBox="0 0 1000 1000" enable-background="new 0 0 1000 1000" xml:space="preserve">
<metadata> Svg Vector Icons : http://www.sfont.cn </metadata>
<g><g><g><path d="M424.1,608.8c-11.7-17.7-26.7-33.3-39.4-50.5c-8.8-12.1-18.4-24.5-23.6-38.4c-16.4-44.4-8.6-85.8,22.5-121c15.1-17.1,32.7-31.7,49.4-47.3c23.4-21.9,38.6-47.4,39.9-81.1c1.3-35.9-16.3-65.1-48.4-73.9c-16.3-4.5-50.5-6.9-50.6-6.2c-49.1,2.4-96.3,12.7-139.5,37.5c-39.4,22.7-67.7,54.8-75.5,101.8c-6.6,39.5-2.9,78.9,11,116.2c12.4,33.3,28.2,65.4,42.9,97.8c17.3,38.1,28.7,77.7,29.7,120c0.2,10.9,0.6,22,2.7,32.6c6.8,35.8,23.5,64.6,57.2,80.2c20.3,9.4,41.7,7.5,62.9,4.5c39.8-5.7,65.9-29.3,73.9-66.7C446.9,677.3,445.4,641.2,424.1,608.8z"/><path d="M481,135.9c14.8-18.2,20.6-39.5,21.3-65.3c-0.5-3.8-0.8-10.1-2-16.3c-1-5.2-2.5-10.3-4.4-15.3C484,7.2,454.2,0.5,430.3,24.1c-23.8,23.6-31.6,75-15.8,105.1C430.1,158.7,459.9,161.8,481,135.9z"/><path d="M367.4,133.6c18.2-18.1,22.4-54.3,8.8-76.3c-12.1-19.6-33.1-20.7-47.4-2.2c-9.3,12-13.1,26-12.9,41.1c-0.1,13.1,2.9,24.2,9,33.2C336,145.7,353.6,147.4,367.4,133.6z"/><path d="M287.7,145.5c7.6-9.5,10-20.7,10.5-32.5c-0.6-12.2-2.9-23.7-10.9-33.2c-9.8-11.6-23.6-11.5-33.4,0c-14.1,16.6-14.3,49-0.4,65.8C263.4,157.9,277.7,157.9,287.7,145.5z"/><path d="M235.1,167.3c8.3-14.9,3.4-40.1-9.9-50.7c-10-8-21.8-5.8-27.4,5.8c-2.5,5.3-3.3,11.5-4.9,17.3c1.3,13.3,5,24.9,15.2,33.2C217.8,180.9,228.9,178.3,235.1,167.3z"/><path d="M191.2,206.8c3.8-5.9,5.3-13.3,7.9-20.5c-2.6-6.9-4.1-13.7-7.6-19.2c-5.8-9.1-16.2-9.1-23.2-0.7c-8.6,10.2-9.2,29.7-1.2,40.5C174.1,216.2,184.9,216.7,191.2,206.8z"/><path d="M637.6,404.8c0.1-0.7-33.5-7.5-50.5-7.5c-33.3-0.1-58,23.5-66.3,58.4c-7.8,32.8,0.2,61.5,16.9,88.8c11.8,19.5,25,38.3,35,58.8c20.5,42.1,17.2,84.1-10.5,122.5c-8.6,12-21.3,21.4-33,30.8c-16.7,13.3-35.3,24.2-51.4,38.3c-29.2,25.5-40.2,59.9-42.4,97.7c-2.3,38.2,16.6,67.8,53.4,84c19.7,8.6,39.7,16.1,61.8,12.4c36.6-6.2,60.4-29.6,76.5-62.1c4.8-9.7,8.2-20.3,11.3-30.8c12.1-40.6,33.7-75.7,60.5-107.8c22.8-27.4,46.5-54.1,67.4-82.8c23.3-32.2,37.3-69.2,41.5-109.1c5-47.4-13.8-85.9-45.6-118.3C727,442.6,684.2,420.2,637.6,404.8z"/><path d="M614.7,335.1c23.2-24.8,29.4-76.4,12.7-105.5c-16.7-29.1-47.1-30.5-67.1-3.1c-3.1,4.3-6,8.8-8.3,13.6c-2.8,5.6-4.8,11.6-6.3,15.2c-6.1,25-6.2,47.2,3.2,68.6C562.2,354.5,591.8,359.4,614.7,335.1z"/><path d="M701,359.1c8.3-7,14.1-17,17.5-29.6c4.2-14.6,4.3-29.1-1.5-43.2c-8.8-21.5-29.4-26-46.3-10.4c-18.9,17.6-24.5,53.6-11.8,75.8C668.5,368.8,686,371.8,701,359.1z"/><path d="M765.6,393.8c17.9-12.6,26.3-43.8,17.1-63.5c-6.4-13.7-19.6-17.4-32.1-8.9c-10.3,7-15.6,17.5-19.4,29.1c-2.6,11.6-3.4,23,1.4,34.2C738.9,399.2,752.6,403,765.6,393.8z"/><path d="M777.5,419.7c3,12.2,13.1,17.6,24.6,12.6c12-5.3,18.7-15.5,23.5-28c0-6,0.9-12.1-0.2-18c-2.3-12.7-13-17.9-24.8-12.9C784.9,380.1,773.4,403.1,777.5,419.7z"/><path d="M842.1,436.4c-4.5-9.9-14.6-12.8-22.6-5.5c-4.8,4.4-8,10.6-12.4,16.5c0.6,7.7,0.2,15.2,2.2,21.8c3.4,11.2,14,13.7,23.2,6.4C843,467.4,847.6,448.5,842.1,436.4z"/></g></g><g></g><g></g><g></g><g></g><g></g><g></g><g></g><g></g><g></g><g></g><g></g><g></g><g></g><g></g><g></g></g>
</svg>