<?xml version="1.0" encoding="utf-8"?>
<!-- Svg Vector Icons : http://www.sfont.cn -->
<!DOCTYPE svg PUBLIC "-//W3C//DTD SVG 1.1//EN" "http://www.w3.org/Graphics/SVG/1.1/DTD/svg11.dtd">
<svg version="1.1" xmlns="http://www.w3.org/2000/svg" xmlns:xlink="http://www.w3.org/1999/xlink" x="0px" y="0px" viewBox="0 0 1000 1000" enable-background="new 0 0 1000 1000" xml:space="preserve">
<metadata> Svg Vector Icons : http://www.sfont.cn </metadata>
<g><g transform="translate(0.000000,511.000000) scale(0.100000,-0.100000)"><path d="M564.1,3347.3c-180.3-42.2-360.6-199.4-427.7-372.1C101.9,2883.1,100,2793,100,108.1c0-2690.7,1.9-2773.1,36.4-2867.1c49.9-124.7,197.5-281.9,324.1-337.5l99.7-46H5000h4439.7l99.7,46c126.6,55.6,274.2,212.9,324.1,337.5c34.5,94,36.4,176.4,36.4,2867.1s-1.9,2773.2-36.4,2867.1c-49.9,124.7-197.5,281.9-324.1,337.5l-99.7,46l-4401.4,3.8C2516.4,3362.6,606.3,3356.8,564.1,3347.3z M2171.2,2865.9c5.8-24.9,47.9-237.8,94-471.8c76.7-387.4,90.1-435.3,140-487.1c101.6-107.4,111.2-105.5,176.4,32.6l57.5,124.7l-76.7,387.4c-40.3,214.8-78.6,404.6-82.5,423.8c-7.7,30.7,164.9,32.6,3432.9,32.6h3442.5l46-47.9l47.9-46v-506.3c0-389.3-5.8-510.1-23-515.9c-13.4-5.7-993.4-197.5-2176.7-429.6l-2151.8-420l-23-53.7c-13.4-30.7-55.6-105.5-95.9-168.8c-44.1-69-63.3-113.1-49.9-113.1c15.3,0,155.4,24.9,312.6,57.5c157.3,30.7,1152.6,226.3,2213.2,431.5c1060.5,207.1,1942.7,379.7,1961.9,385.5c30.7,9.6,32.6-95.9,32.6-2034.8V-2598l-47.9-46l-46-47.9H6469c-2730.9,0-2886.3,1.9-2894,34.5c-5.8,17.3-90.1,437.3-188,932.1l-176.4,897.5l-120.8-130.4c-67.1-72.9-120.8-149.6-122.7-168.7c0-34.5,278.1-1455.6,299.2-1530.4c9.6-32.6-61.4-34.5-1306-34.5H644.7l-46,47.9l-47.9,46v1169.9v1171.8l44.1,9.6c23,5.8,138.1,28.8,257,53.7l214.8,42.2L911.2-30L757.8,92.7L654.2,73.6L550.7,56.3v1378.9v1378.9l47.9,46l46,47.9h757.5h759.5L2171.2,2865.9z"/><path d="M3751.5,2361.5c-586.9-149.6-886-625.2-953.1-1524.7l-13.4-182.2l-74.8,134.2c-270.4,483.3-606,828.5-980,1008.8c-253.2,122.7-429.6,136.2-623.3,53.7c-333.7-145.8-444.9-642.5-243.6-1093.1c211-473.7,828.5-813.1,1505.5-830.4c122.7-1.9,182.2-13.4,214.8-36.4l47.9-32.6l-47.9-92.1c-28.8-51.8-155.3-197.6-308.8-349c-141.9-141.9-287.7-301.1-322.2-351c-147.7-218.6-287.7-632.9-260.8-772.9c28.8-153.4,264.7-197.5,337.5-61.4c11.5,21.1,38.4,109.3,57.5,193.7c21.1,84.4,72.9,222.5,117,308.8c69,132.3,118.9,193.7,343.3,414.3c260.8,258.9,362.5,391.2,431.5,560c19.2,51.8,46,92.1,55.6,92.1c11.5,0,53.7,23,94,49.9c69,47.9,78.6,49.9,153.4,26.8c134.2-38.4,303-140,404.7-239.7c53.7-51.8,166.9-199.5,253.2-326c178.4-262.7,274.2-362.5,437.3-460.3c205.2-122.7,538.9-205.2,646.3-161.1c126.6,51.8,147.7,249.3,32.6,320.3c-21.1,13.4-97.8,36.4-172.6,51.8c-293.4,61.4-431.5,170.7-686.6,544.6c-176.4,257-345.2,425.8-510.1,512.1c-57.5,30.7-105.5,59.5-105.5,65.2c0,5.8,57.5,40.3,130.4,74.8c199.5,97.8,544.7,335.6,678.9,467.9c232,228.2,345.2,479.4,347.1,771c1.9,211-40.3,372.1-141.9,527.4C4417,2302.1,4066,2442.1,3751.5,2361.5z M4094.8,1977.9c95.9-40.3,151.5-95.9,211-211c40.3-78.6,49.9-122.7,49.9-249.3c1.9-134.2-5.8-170.7-57.5-280c-76.7-161.1-214.8-301.1-462.2-466C3582.7,604.8,3216.4,428.4,3180,459c-19.2,17.3-23,63.3-13.4,214.8c46,698.1,176.4,1052.9,446.9,1223.6C3780.3,2002.9,3960.5,2033.6,4094.8,1977.9z M1494.2,1494.7c327.9-126.6,686.6-504.4,914.8-960.8c67.1-132.3,76.7-164.9,57.5-199.5c-19.2-36.4-30.7-38.4-184.1-26.9c-207.1,17.3-452.6,88.2-642.5,186c-301.1,157.3-477.5,400.8-491,682.7C1133.7,1473.6,1256.4,1588.6,1494.2,1494.7z"/><path d="M5937.8,223.1c-99.7-17.3-235.9-80.6-301.1-141.9c-24.9-21.1-69.1-82.5-95.9-136.2c-47.9-86.3-51.8-115.1-51.8-308.8c0-197.5,3.8-218.6,57.5-326c124.6-245.4,377.8-318.3,811.2-235.9c63.3,13.4,107.4,32.6,118.9,55.6c11.5,19.2,19.2,151.5,19.2,295.3c0,318.4,0,318.4-255.1,318.4c-220.5,0-243.6-13.4-243.6-134.2c0-86.3,3.8-95.9,47.9-105.5c157.3-32.6,145.8-23,140-111.2l-5.7-80.5l-101.6-5.7c-186-11.5-272.3,90.1-272.3,318.3c0,164.9,46,274.3,134.2,320.3c63.3,32.6,258.9,38.3,335.6,9.6c32.6-11.5,63.3-13.4,84.4-1.9c38.4,21.1,88.2,159.2,72.9,201.4C6411.5,209.7,6104.6,253.8,5937.8,223.1z"/><path d="M6756.7,192.5c-26.8-24.9-30.7-103.6-30.7-554.2c0-604.1-5.8-584.9,163-584.9c168.8,0,163-19.2,163,584.9c0,604.1,5.8,584.9-163,584.9C6821.9,223.1,6775.9,213.6,6756.7,192.5z"/><path d="M7332.1,192.5c-26.8-24.9-30.7-103.6-30.7-554.2s3.8-529.3,30.7-554.2c36.4-36.4,218.6-42.2,253.2-7.7c13.4,13.4,23,84.4,23,184.1c0,218.6,9.6,234,163,234c67.1,0,134.2,5.8,151.5,11.5c38.4,15.3,57.5,118.9,32.6,186c-19.2,49.9-24.9,51.8-163,51.8c-157.2,0-184.1,19.2-184.1,122.7c0,82.5,46,107.4,199.5,107.4c82.5,0,147.7,9.6,161.1,23c13.4,13.4,23,57.5,23,101.6c0,44.1-9.6,88.2-23,101.6c-15.3,15.3-113.1,23-314.5,23C7414.5,223.1,7357,217.4,7332.1,192.5z"/><path d="M8127.9,196.3c-13.4-15.4-21.1-69-17.3-120.8l5.8-92.1l107.4-9.6c176.4-15.3,170.7-1.9,170.7-467.9c0-291.5,5.8-412.3,23-429.6c30.7-30.7,230.1-30.7,260.8,0c17.3,17.3,23,140,23,429.6c0,400.8,0,408.5,42.2,437.2c24.9,17.3,82.5,30.7,132.3,30.7c101.7,0,113.2,15.4,113.2,134.3c0,55.6-9.6,80.6-36.4,95.9c-23,11.5-193.7,19.2-420,19.2C8225.8,223.1,8145.2,217.4,8127.9,196.3z"/><path d="M5709.6-1399.3c-88.2-38.3-147.7-95.9-197.5-189.8c-34.5-63.3-42.2-109.3-42.2-258.9c0-218.6,40.3-314.5,166.9-397c69-46,101.6-53.7,243.6-59.4c203.3-5.8,258.9,17.3,266.6,111.2c9.6,94-26.8,113.1-157.3,90.2c-90.1-17.3-113.1-13.4-168.8,17.3c-109.3,65.2-143.8,251.2-72.9,404.6c49.9,111.2,105.5,134.2,245.5,105.5c103.6-23,111.2-21.1,143.8,19.2c46,55.6,34.5,132.3-24.9,163C6045.2-1359,5792.1-1362.9,5709.6-1399.3z"/><path d="M6545.7-1410.8c-21.1-34.5-182.2-508.2-268.5-794c-17.2-57.5,34.5-103.6,115.1-103.6c94,0,136.2,26.8,151.5,97.8c15.3,71,65.2,92,193.7,82.4c51.8-3.8,101.7-5.7,109.3-7.7c7.7,0,28.8-32.6,46-71c36.4-88.2,53.7-101.6,143.8-101.6c63.3,0,130.4,38.4,130.4,72.9c0,34.5-268.5,815.1-289.6,840c-15.4,19.2-65.2,26.8-163,26.8C6589.9-1368.6,6570.7-1374.4,6545.7-1410.8z M6779.7-1765.6c36.4-132.3,23-163-67.1-155.3c-65.2,5.7-72.9,11.5-69,55.6c1.9,26.8,11.5,86.3,24.9,130.4C6697.3-1623.7,6743.3-1635.2,6779.7-1765.6z"/><path d="M7326.3-1389.7c-19.2-19.2-24.9-136.2-24.9-452.6c0-402.7,1.9-427.7,36.4-446.8c55.6-28.8,147.7-23,182.2,11.5c23,21.1,30.7,69,30.7,172.6c0,126.6,3.8,143.8,34.5,138.1c17.3-3.8,72.9-74.8,124.7-159.2c49.9-82.5,101.6-159.2,115.1-166.9c32.6-21.1,124.7-19.2,168.8,3.8c55.6,30.7,46,72.9-49.9,214.8c-47.9,70.9-86.3,145.7-86.3,164.9s21.1,55.6,47.9,80.5c61.4,57.5,92.1,164.9,69,241.7c-32.6,107.4-46,124.6-124.7,164.9C7752-1370.6,7366.6-1347.5,7326.3-1389.7z M7686.8-1579.6c24.9-15.3,36.4-40.3,36.4-88.2c0-51.8-9.6-70.9-49.9-88.2c-65.2-30.7-111.2,0-118.9,78.6C7544.9-1577.7,7602.5-1535.5,7686.8-1579.6z"/><path d="M8216.2-1397.4c-28.8-26.8-32.6-82.5-32.6-441.1c0-506.3-15.3-479.5,258.9-466c283.8,15.3,412.3,82.5,492.9,262.7c44.1,95.9,51.8,320.3,15.3,414.3c-28.8,76.7-107.4,157.3-201.4,207.1C8641.9-1364.8,8264.1-1347.5,8216.2-1397.4z M8628.5-1600.7c122.7-65.2,118.9-377.8-5.8-466c-61.4-42.2-145.8-40.3-170.7,5.7c-26.9,53.7-24.9,429.6,3.8,458.4C8484.7-1573.8,8576.7-1571.9,8628.5-1600.7z"/></g></g>
</svg>