<?xml version="1.0" encoding="utf-8"?>
<!-- Svg Vector Icons : http://www.sfont.cn -->
<!DOCTYPE svg PUBLIC "-//W3C//DTD SVG 1.1//EN" "http://www.w3.org/Graphics/SVG/1.1/DTD/svg11.dtd">
<svg version="1.1" xmlns="http://www.w3.org/2000/svg" xmlns:xlink="http://www.w3.org/1999/xlink" x="0px" y="0px" viewBox="0 0 1000 1000" enable-background="new 0 0 1000 1000" xml:space="preserve">
<metadata> Svg Vector Icons : http://www.sfont.cn </metadata>
<g><path d="M956.4,234.8h-82.7c20.4,0,38.8-44.1,47.2-73.2c10.3-35.9,4-71.2-18.1-102.6c-1.5-2.2-3.2-4-5.1-5.7c-106.4-98.1-250.4-3.6-309,42.8c-15.8,11.8-19.8,35.2-8.9,52.3c10.9,17.3,32.7,21.7,48.6,9.9c0.3-0.2,2.9-2.2,3.2-2.5c33.5-26.6,147.1-107.6,217.5-47.7c6.6,10.6,8,20.5,4.9,31.7c-8.3,29.1-43.4,55.9-60.4,62c-65.8,26.6-87.3,29.4-114.8,31.5c-2.3,0.2-4.2,1.4-6.3,1.4h-96.7c-1.5,0-2.8-4.8-5-7C534.7,191.5,449.1,106.2,432.2,94C303.6-1.1,186.8-15.9,111.8,53.3c-1.9,1.7-3.6,3.8-5.1,5.9c-22.2,31.4-28.4,66.5-18.1,102.4c8.3,29.1,26.8,73.2,47.1,73.2H46.5c-19.3,0-36.5,17.9-36.5,38.7v188.7c0,20.8,0,37.7,35,37.7v369.1c0,65.8,46.6,120.6,102.1,120.6h705.8c56.1,0,102.1-55.9,102.1-120.6V500c35,0,35-16.9,35-37.7V273.5C990,252.6,975.7,234.8,956.4,234.8L956.4,234.8z M330.7,233.4c-27.6-2.2-49.1-5.1-116.1-32.2c-15.7-5.7-50.8-32.4-59.1-61.4c-3.2-11.2-1.7-21,4.8-31.6c70.1-59.5,185.5,13.3,234.8,49.7c6.9,5.4,41.1,39.2,80.2,76.9H337C334.9,234.8,333,233.5,330.7,233.4L330.7,233.4z M920,310.3v113.2H84.3c-1,0-4.3,1.4-4.3,1.5l0-114.7H920L920,310.3z M852.9,914.2H147.1c-18.1,0-32.1-24.4-32.1-45.1V499h770v370.1C885,891.6,870.1,914.2,852.9,914.2L852.9,914.2z"/></g>
</svg>