<?xml version="1.0" encoding="utf-8"?>
<!-- Svg Vector Icons : http://www.sfont.cn -->
<!DOCTYPE svg PUBLIC "-//W3C//DTD SVG 1.1//EN" "http://www.w3.org/Graphics/SVG/1.1/DTD/svg11.dtd">
<svg version="1.1" xmlns="http://www.w3.org/2000/svg" xmlns:xlink="http://www.w3.org/1999/xlink" x="0px" y="0px" viewBox="0 0 1000 1000" enable-background="new 0 0 1000 1000" xml:space="preserve">
<metadata> Svg Vector Icons : http://www.sfont.cn </metadata>
<g><path d="M497.5,90.6c100.1,0,133.9,76,163.8,181.5h99.3C740.9,120,658.8,2.3,497.5,2.3c-161.2,0-243.3,117.7-263,269.8h99.4C363.8,166.6,397.7,90.6,497.5,90.6z"/><path d="M342.1,800.9h311.2V502.7H342.1V800.9z M390.1,564.6H539v-17.8c0-11.4,9.5-20.6,21.1-20.6h5.8c11.7,0,21.1,9.2,21.1,20.6v17.8h20.2c11.7,0,21.1,9.2,21.1,20.6c0,11.4-9.5,20.6-21.1,20.6H587v131.5c0,16.5-13.7,29.8-30.5,29.8h-41.9c-11.8,0-21.3-9.4-21.1-21c0.2-11.3,9.6-20.3,21.1-20.3H539v-120h-40.3l-74.9,149.7c-3.5,7.1-10.9,11.6-19,11.6h-3.7c-15.7,0-25.9-16.1-18.9-29.8l66.6-131.5h-58.6c-11.7,0-21.1-9.2-21.1-20.6C369,573.8,378.5,564.6,390.1,564.6z"/><path d="M988.7,895.8l-72.4-550.5c-3-22.6-22.7-39.6-46.1-39.6H759.9h-87.3H322.5h-87.4h-109c-23.5,0-43.3,17.1-46.1,39.9l-69,551.2c-0.6,4-0.9,8.1-0.9,12.3c0,49,44.5,88.6,99.5,88.6h781c54.8,0,99.5-39.6,99.5-88.6C989.9,904.8,989.5,900.3,988.7,895.8z M701.3,802.3c0,21.7-18,39.3-40.3,39.3H334.4c-22.3,0-40.3-17.6-40.3-39.3V500.8c0-21.7,18-39.4,40.3-39.4H661c22.3,0,40.3,17.6,40.3,39.4V802.3z"/></g>
</svg>