<?xml version="1.0" encoding="utf-8"?>
<!-- Svg Vector Icons : http://www.sfont.cn -->
<!DOCTYPE svg PUBLIC "-//W3C//DTD SVG 1.1//EN" "http://www.w3.org/Graphics/SVG/1.1/DTD/svg11.dtd">
<svg version="1.1" xmlns="http://www.w3.org/2000/svg" xmlns:xlink="http://www.w3.org/1999/xlink" x="0px" y="0px" viewBox="0 0 1000 1000" enable-background="new 0 0 1000 1000" xml:space="preserve">
<metadata> Svg Vector Icons : http://www.sfont.cn </metadata>
<g><path d="M500.5,941.1c-5.2,0-10.5-1.7-15-5.1C466.1,920.9,8.6,564.8,10,353l0-3.7c0.2-39,0.4-72.6,8.7-104c31-117.6,120.6-185.5,245.7-186.4c92.5,0.3,180.3,58.3,235.3,158C554.1,117,638.3,59.6,731.5,59c123.8-0.4,217.7,68.7,249.2,185.9c8.8,32.6,9,67.9,9.3,108.8c0.9,136.2-178.8,325.6-329.7,460.7c-10.1,9-25.6,8.2-34.6-1.9c-9-10.1-8.2-25.6,1.9-34.6c202.7-181.5,314-331.6,313.4-422.6c-0.2-38.8-0.4-71.2-7.6-97.7C897.2,123.1,782.5,108,733.2,108c-0.5,0-1,0-1.4,0c-76.1,0.4-145.9,50.3-191.4,136.9c-5.2,9.9-17.4,33.2-40.4,33.3c0,0-0.1,0-0.1,0c-22.9,0-35-22.5-40.8-33.4c-45.9-85.8-118-136.9-193.2-136.9c-0.4,0-0.8,0-1.1,0c-59.5,0.4-164.5,20.4-198.7,149.9c-6.7,25.3-6.8,56.1-7.1,91.8l0,3.7c-1,155.8,329.2,445.4,456.5,543.9c10.7,8.3,12.7,23.7,4.4,34.4C515.1,937.8,507.8,941.1,500.5,941.1z"/></g>
</svg>