<?xml version="1.0" encoding="utf-8"?>
<!-- Svg Vector Icons : http://www.sfont.cn -->
<!DOCTYPE svg PUBLIC "-//W3C//DTD SVG 1.1//EN" "http://www.w3.org/Graphics/SVG/1.1/DTD/svg11.dtd">
<svg version="1.1" xmlns="http://www.w3.org/2000/svg" xmlns:xlink="http://www.w3.org/1999/xlink" x="0px" y="0px" viewBox="0 0 1000 1000" enable-background="new 0 0 1000 1000" xml:space="preserve">
<metadata> Svg Vector Icons : http://www.sfont.cn </metadata>
<g><g transform="translate(0.000000,511.000000) scale(0.100000,-0.100000)"><path d="M3391.4,4670.5c-134.8-162.3-196-327.7-196-536.1c0-226.7,55.1-382.9,232.8-652.5c260.4-392.1,281.8-618.8,85.8-873c-113.3-150.1-125.6-196-67.4-254.2c61.3-61.3,137.8-39.8,226.7,64.3c134.8,159.3,196,324.7,196,533c0,232.8-55.1,379.8-251.2,680c-245.1,373.7-260.4,591.2-67.4,848.5c113.3,147,125.6,193,67.4,251.2C3556.8,4793,3480.2,4771.6,3391.4,4670.5z"/><path d="M4861.7,4670.5c-134.8-162.3-196-327.7-196-536.1c0-232.8,55.1-379.8,251.2-680c245.1-373.7,260.4-591.2,67.4-848.5c-113.3-147-125.6-193-67.4-251.2c61.3-61.3,137.8-39.8,226.7,64.3c134.8,159.3,196.1,324.7,196.1,533c0,232.8-55.1,379.8-251.2,680c-245.1,373.7-260.4,591.2-67.4,848.5c113.3,147,125.6,193,67.4,251.2C5027.1,4793,4950.5,4771.6,4861.7,4670.5z"/><path d="M2711.3,3506.4c-58.2-58.2-45.9-104.1,67.4-254.2c196-257.3,174.6-484-91.9-879.1c-171.5-260.4-226.7-413.5-226.7-649.4c3.1-361.5,272.6-744.4,422.7-594.3c58.2,58.2,45.9,104.1-67.4,251.2c-193,254.3-177.7,474.8,67.4,848.5c196.1,303.3,251.2,450.3,251.2,680C3131,3273.7,2861.4,3656.6,2711.3,3506.4z"/><path d="M4181.7,3506.4c-58.2-58.2-45.9-104.1,67.4-254.2c196-257.3,174.6-484-91.9-879.1c-171.5-260.4-226.7-413.5-226.7-649.4c3.1-361.5,272.6-744.4,422.7-594.3c58.2,58.2,45.9,104.1-67.4,251.2c-193,257.3-177.7,474.8,67.4,848.5c196.1,300.2,251.2,447.2,251.2,680C4601.3,3273.7,4331.8,3656.6,4181.7,3506.4z"/><path d="M294.5,541.3C101.5,424.9,92.3,375.9,110.7-481.8c12.3-670.8,21.4-802.5,82.7-1029.2c254.2-952.6,876.1-1733.7,1733.8-2177.9l229.7-119.5h-876.1c-968,0-1004.7-6.1-1118.1-193c-70.4-113.3-85.8-444.2-24.5-505.4c52.1-52.1,7471.1-52.1,7523.2,0c61.3,61.3,45.9,392.1-24.5,505.4c-113.3,186.9-150.1,193-1118.1,193h-876.1l229.7,119.5c324.7,168.5,585.1,361.4,854.6,634.1l232.8,232.8l251.2,27.5c1550,174.6,2585.3,995.5,2683.4,2125.9c21.5,260.4-18.4,404.3-153.2,557.5c-186.9,211.3-238.9,223.6-1191.6,223.6h-851.6v101.1c0,52.1-27.6,140.9-61.3,196.1c-125.6,205.2,122.5,193-3743.2,193C475.2,602.5,389.4,599.5,294.5,541.3z M7422.5,311.5c27.6-33.7,33.7-229.7,24.5-787.3c-15.3-673.9-21.4-771.9-91.9-1038.4c-85.8-315.5-217.5-624.9-379.8-873c-144-229.7-183.8-275.7-456.4-548.3c-392.1-392.1-842.4-643.3-1412.1-787.2c-254.2-64.3-336.9-70.4-1206.9-70.4s-952.7,6.1-1206.9,70.4c-575.9,144-1020,395.2-1430.5,802.6c-416.6,410.5-664.7,842.4-817.9,1409.1c-70.5,263.4-76.6,361.5-91.9,1035.4c-9.2,557.5-3.1,753.6,24.5,787.3C435.4,382,7364.3,382,7422.5,311.5z M9474.9-178.6c180.7-95,226.7-330.8,137.8-713.7c-189.9-805.6-958.8-1396.8-2095.2-1611.2c-386-73.5-386-73.5-284.9,88.8c55.1,94.9,104.2,137.8,147,137.8c159.3,0,698.4,168.5,986.3,309.4c263.5,128.7,358.4,196.1,554.5,389c153.2,150.1,269.6,300.2,321.6,407.4c153.2,315.5,217.5,673.9,134.8,756.6c-27.6,27.6-260.4,36.8-857.7,36.8h-820.9v122.5v122.5h842.4C9235.9-132.6,9401.3-141.8,9474.9-178.6z M9150.2-720.8c-9.2-55.1-64.3-199.1-122.5-321.6c-144-300.2-386-517.7-793.4-713.7c-287.9-137.8-729-278.7-765.8-242c-9.2,9.2,18.4,119.5,61.3,245c91.9,263.4,168.5,701.5,168.5,955.7v174.6h735.2h735.2L9150.2-720.8z M7416.4-4090.3c21.5-21.4,36.8-76.6,36.8-122.5v-85.8H3899.9H346.6v85.8c0,46,15.3,101.1,36.8,122.5C435.4-4038.2,7364.3-4038.2,7416.4-4090.3z"/></g></g>
</svg>