<?xml version="1.0" encoding="utf-8"?>
<!-- Svg Vector Icons : http://www.sfont.cn -->
<!DOCTYPE svg PUBLIC "-//W3C//DTD SVG 1.1//EN" "http://www.w3.org/Graphics/SVG/1.1/DTD/svg11.dtd">
<svg version="1.1" xmlns="http://www.w3.org/2000/svg" xmlns:xlink="http://www.w3.org/1999/xlink" x="0px" y="0px" viewBox="0 0 1000 1000" enable-background="new 0 0 1000 1000" xml:space="preserve">
<metadata> Svg Vector Icons : http://www.sfont.cn </metadata>
<g><path d="M500,133.4c-158,0-286.5,130.6-286.5,291.1c0,160.5,128.5,291.1,286.5,291.1c158,0,286.5-130.6,286.5-291.1C786.5,264,658,133.4,500,133.4L500,133.4L500,133.4z M500,665.6c-130.9,0-237.4-108.2-237.4-241.2c0-133,106.5-241.2,237.4-241.2c130.9,0,237.4,108.2,237.4,241.2C737.4,557.4,630.9,665.6,500,665.6L500,665.6L500,665.6z M777.2,674l-15.2-8.1l-12.7,11.6c-61.2,55.9-152.1,87.9-249.3,87.9c-97.3,0-188.1-32-249.3-87.9l-12.8-11.6l-15.1,8.1C97.5,741.4,44.7,822.5,34.6,963.2c-1,13.7,9.2,25.7,22.7,26.7c0.6,0.1,1.2,0.1,1.8,0.1c12.8,0,23.5-10,24.5-23.1c8.6-118.5,47.7-183.2,147.7-240.7c69.5,56.8,166.3,89.1,268.8,89.1c102.5,0,199.3-32.3,268.8-89.1c100,57.5,139.1,122.2,147.7,240.6c1,13.7,12.7,24.2,26.3,23.1c13.5-1,23.7-13,22.7-26.7C955.2,822.5,902.5,741.4,777.2,674L777.2,674L777.2,674z M172.6,540.9V321.2C208.4,168,341.6,59.9,500.7,59.9C658,59.9,790,165.7,827.4,316.3v222.1v0.1c65.5,0,115.3-52.5,115.3-117.3c0-46.4-26.4-86.3-65-105.4C838.9,136.9,685,10,500.7,10c-184.2,0-338.1,126.7-377,305.4c-39,18.8-65.6,59-65.6,105.8C58,485.9,108.3,540.9,172.6,540.9L172.6,540.9L172.6,540.9z"/></g>
</svg>