<?xml version="1.0" encoding="utf-8"?>
<!-- Svg Vector Icons : http://www.sfont.cn -->
<!DOCTYPE svg PUBLIC "-//W3C//DTD SVG 1.1//EN" "http://www.w3.org/Graphics/SVG/1.1/DTD/svg11.dtd">
<svg version="1.1" xmlns="http://www.w3.org/2000/svg" xmlns:xlink="http://www.w3.org/1999/xlink" x="0px" y="0px" viewBox="0 0 1000 1000" enable-background="new 0 0 1000 1000" xml:space="preserve">
<metadata> Svg Vector Icons : http://www.sfont.cn </metadata>
<g><g transform="translate(0.000000,511.000000) scale(0.100000,-0.100000)"><path d="M5265.1,5002.5c-338.6-18.1-765.2-99.3-1085.8-209.9c-586.9-205.4-1270.9-623-1390.5-853.3c-40.6-81.3-9-176.1,76.8-221.2c126.4-67.7,451.5-13.5,672.7,112.9c63.2,33.9,185.1,103.8,273.1,153.5c1063.2,595.9,2252.8,535,3316.1-167.1c1085.8-717.8,1643.4-1921,1264.1-2722.4c-36.1-76.8-83.5-142.2-126.4-167.1c-47.4-27.1-115.1-121.9-210-288.9c-85.8-151.3-153.5-246-173.8-243.8c-15.8,2.3-99.3,29.3-185.1,60.9c-83.5,31.6-243.8,76.7-354.4,99.3L7141,596.1l-88,133.2c-108.3,167-363.4,410.8-539.5,514.7c-173.8,101.6-415.3,196.4-575.6,228l-130.9,24.8v115.1c0,99.3,9,126.4,74.5,196.4c126.4,130.9,162.5,230.3,162.5,433.4c0,209.9-36.1,302.5-171.5,437.9c-119.6,119.6-230.3,167-408.6,178.3c-182.8,11.3-279.9-18.1-422.1-130.9c-230.2-182.9-302.5-492.1-173.8-751.7c33.9-70,94.8-155.8,137.7-194.1c70-61,79-81.3,79-176.1v-108.3l-176.1-40.6c-424.4-94.8-871.3-406.3-1085.8-754c-67.7-110.6-70-112.9-232.5-142.2c-462.8-81.3-927.8-327.3-1259.6-663.7c-67.7-70-130.9-126.4-142.2-126.4c-31.6,0-634.3,433.4-677.2,487.6c-49.7,63.2-255.1,126.4-406.3,126.4c-61-2.3-171.6-22.6-248.3-47.4c-255.1-85.8-377-259.6-395-571.1c-9-144.5-2.3-189.6,38.4-270.9c24.8-56.4,47.4-117.4,47.4-140s31.6-51.9,76.7-70c45.2-20.3,252.8-214.5,523.7-496.6l449.2-467.3l15.8-363.4c20.3-530.5,126.4-884.9,374.7-1268.7c307-476.3,778.8-846.5,1284.5-1006.8c155.8-49.7,162.5-54.2,149-108.4c-36.1-135.4,9-241.5,135.4-318.3c70-42.9,128.7-45.2,1900.7-45.2c1774.3,0,1830.7,2.3,1900.7,45.2c101.6,61,151.2,164.8,135.4,282.2l-13.6,94.8l124.2,38.4c629.8,198.6,1203.2,706.5,1476.3,1307c234.8,516.9,288.9,1255.1,135.4,1833c-51.9,194.1-187.4,498.9-295.7,670.4L8852.1-413L9044-33.7C9369,605.1,9488.7,955,9531.6,1411c115.1,1225.7-724.6,2510.2-2065.5,3155.8C6764,4905.4,6062,5045.4,5265.1,5002.5z M5874.6,4801.6c553.1-49.7,1029.4-187.4,1532.8-442.5c180.6-90.3,426.6-232.5,544-316c273.1-196.4,643.4-550.8,826.2-796.9c178.3-237,397.3-668.2,471.8-930c151.3-541.8,117.4-1106.1-101.6-1632.1l-72.2-171.6l-94.8,54.2c-49.6,31.6-180.6,103.8-288.9,160.3l-194.1,106.1l63.2,140c103.8,223.5,142.2,406.3,142.2,670.4c0,130.9-15.8,309.3-36.1,395c-191.9,864.6-869.1,1684-1776.6,2153.5c-1112.9,573.4-2302.5,528.2-3347.7-124.2c-176.1-108.3-338.6-167-465-167h-81.3l56.4,47.4c149,117.4,507.9,345.4,711.1,447c526,264.1,1128.7,413.1,1726.9,428.9C5558.6,4824.1,5732.4,4815.1,5874.6,4801.6z M5648.9,2607.4c142.2-74.5,209.9-207.7,198.6-390.5c-6.8-108.4-22.6-155.8-70-221.2l-63.2-81.3h-277.7c-257.4,0-279.9,4.5-322.8,51.9c-76.7,83.5-97.1,142.2-97.1,279.9c0,92.5,15.8,158,51.9,221.2C5170.3,2648,5445.7,2715.8,5648.9,2607.4z M5599.2,1605.1l6.8-97.1h-158h-160.3v101.6v103.8l153.5-6.8l151.3-6.8L5599.2,1605.1z M5998.8,1250.7c309.3-85.8,661.4-318.3,819.4-539.5l74.5-106.1H5443.5c-1155.8,0-1444.7,6.8-1426.7,29.3C4150,806,4213.2,873.7,4328.3,959.5c230.3,173.8,494.4,286.7,767.5,329.6C5251.6,1313.9,5865.6,1286.9,5998.8,1250.7z M8669.2,505.8c176.1-97.1,320.6-182.8,320.6-191.9c0-9-61-135.4-137.7-279.9l-137.7-264.1L8542.8-69.8c-94.8,90.3-237,203.2-313.8,255.1l-137.7,92.5l115.1,207.7c63.2,112.9,121.9,203.2,128.7,200.9C8341.9,681.9,8490.9,600.6,8669.2,505.8z M7506.7,327.5c629.8-196.4,1094.8-586.9,1372.5-1155.8c185.1-381.5,210-503.4,212.2-1083.5c0-584.7-27.1-726.9-214.4-1106.1c-264.1-532.7-706.6-921-1282.2-1119.6l-219-76.8l-1857.8-6.8c-2126.4-6.8-2045.2-13.5-2476.3,196.4c-627.5,307-1051.9,851-1200.9,1537.3c-31.6,149-40.6,282.2-38.4,598.2c2.3,361.2,9,431.2,63.2,632.1c103.8,397.3,266.4,688.5,548.6,984.2c334.1,349.9,763,575.6,1248.3,659.1c31.6,6.8,864.6,9,1851,6.8l1794.6-2.3L7506.7,327.5z M1195.1,180.7c15.8-11.3-63.2-115.1-232.5-298C820.4-273,694-401.7,682.7-406.2c-27.1-11.3-51.9,137.7-33.9,200.9c20.3,63.2,246.1,304.7,338.6,361.2C1057.4,198.8,1147.7,210.1,1195.1,180.7z M1739.1-178.2c169.3-119.6,311.5-219,316-221.2c2.3-2.3-45.2-88-108.3-189.6c-126.4-214.5-230.3-469.5-273.2-672.7c-15.8-79-33.9-142.2-42.9-142.2c-6.8,0-191.9,187.4-410.8,413.1L822.6-575.5l282.2,307C1260.6-96.9,1396,40.8,1409.6,40.8C1420.8,40.8,1569.8-56.3,1739.1-178.2z M7305.8-4496.5c-2.3-31.6-4.5-63.2-6.8-74.5c0-9-832.9-13.6-1846.5-11.3c-1760.7,6.8-1846.5,9-1853.3,47.4c-20.3,108.3-103.8,103.8,1862.3,99.3l1846.5-4.5L7305.8-4496.5z"/><path d="M8278.7,415.5c-31.6-45.2-31.6-63.2-6.8-101.6c40.6-67.7,103.8-81.3,155.8-33.9c47.4,42.9,56.4,121.9,15.8,162.5C8398.3,487.7,8317.1,474.2,8278.7,415.5z M8420.9,420c67.7-67.7-9-173.8-92.5-128.7c-65.5,38.4-33.9,155.8,40.6,155.8C8382.5,447.1,8405.1,435.8,8420.9,420z"/><path d="M8599.3,271c-49.7-54.2-47.4-101.6,2.3-146.7c54.2-49.7,101.6-47.4,146.7,2.2c49.7,54.2,47.4,101.6-2.3,146.7C8691.8,322.9,8644.4,320.7,8599.3,271z M8727.9,253c20.3-18.1,36.1-40.6,36.1-47.4c0-22.6-72.2-97.1-92.5-97.1c-22.6,0-88,65.5-88,90.3c0,11.3,15.8,36.1,36.1,54.2c18.1,20.3,42.9,36.1,54.2,36.1S8709.9,273.3,8727.9,253z"/></g></g>
</svg>