<?xml version="1.0" encoding="utf-8"?>
<!-- Svg Vector Icons : http://www.sfont.cn -->
<!DOCTYPE svg PUBLIC "-//W3C//DTD SVG 1.1//EN" "http://www.w3.org/Graphics/SVG/1.1/DTD/svg11.dtd">
<svg version="1.1" xmlns="http://www.w3.org/2000/svg" xmlns:xlink="http://www.w3.org/1999/xlink" x="0px" y="0px" viewBox="0 0 1000 1000" enable-background="new 0 0 1000 1000" xml:space="preserve">
<metadata> Svg Vector Icons : http://www.sfont.cn </metadata>
<g><path d="M57.7,423.5c-13.4,0-24.1-10.2-24.1-22.8c0-12.3,10.7-22.2,24.1-22.2H429L322.2,276.2c-8.9-8.8-8.9-23.3,0-31.5c9.2-9.4,24.6-9.4,33.5,0l147.1,139.8c2.5,3.2,4.5,6.4,5.6,9.9l0.6,0.6v1.3l0.6,3.7l0,0l0,0.9v1.3l0,0c0,1.1,0,2.1-0.6,3.8v1.3l-0.6,0.2c-1.1,3.2-3.1,6.7-5.6,9.6h-0.5L355.7,557.3c-8.9,9.1-24.3,9.1-33.5,0c-8.9-8.6-8.9-23,0-31.8l106.8-102H57.7L57.7,423.5z M907.6,752.2L907.6,752.2L662.1,887.7V237.2L946.7,79.8c19-10.2,25.2-33.2,14.3-51.1c-6.9-11.8-19.5-18.4-32.6-18.7H928h-0.2h-0.9h-0.3H429.5H429c-13.4,0-24.1,9.9-24.1,22.7v173.4c0,11.8,10.7,22.5,24.1,22.5c12.9,0,23.2-10.7,23.2-22.5V55h382.5L606.8,181.6c-13.7,5.9-23.5,18.7-23.5,34v531.3H452.2V605.6c0-12.3-10.4-22.7-23.2-22.7c-13.4,0-24.1,10.5-24.1,22.7v163.3v0.6c0,12.3,10.7,23,24.1,23h154.3v160c0,6.4,1.9,13.4,5.6,18.7c10.7,17.7,34.6,24.1,53.7,14L946.8,817c19-10.1,25.2-33.7,14.3-51.4C950.2,747.7,926.7,741.5,907.6,752.2L907.6,752.2z"/></g>
</svg>