<?xml version="1.0" encoding="utf-8"?>
<!-- Svg Vector Icons : http://www.sfont.cn -->
<!DOCTYPE svg PUBLIC "-//W3C//DTD SVG 1.1//EN" "http://www.w3.org/Graphics/SVG/1.1/DTD/svg11.dtd">
<svg version="1.1" xmlns="http://www.w3.org/2000/svg" xmlns:xlink="http://www.w3.org/1999/xlink" x="0px" y="0px" viewBox="0 0 1000 1000" enable-background="new 0 0 1000 1000" xml:space="preserve">
<metadata> Svg Vector Icons : http://www.sfont.cn </metadata>
<g><path d="M608.7,511.4c19.5-19.5,29.2-39.9,15.1-54c-13.2-13.3-34.5-3.8-53.9,15.6c-20.4,19.8-27.7,41.3-14.7,54.4c12.7,12.7,31.8,5.9,53.6-16l0,0L608.7,511.4z M981.3,562.4C961.6,542.6,450.7,30.9,450.7,30.9l-221.5,6.5l-69.4,69.5c20.4,24.3,39.5,48.9,54.2,70.8c12.4-6.6,26.5-10.3,41.4-10.3c48.9,0,88.6,39.7,88.6,88.7c0,49-39.7,88.7-88.6,88.7c-48.9,0-88.6-39.7-88.6-88.7c0-10.7,2-20.8,5.5-30.4c-21.8-16.4-46.6-38.2-70.5-60.7L48,218.8v228.6l529.5,530.3c0,0,15.8,21.8,37.5,0c21.7-21.8,366.2-366.9,366.2-366.9s19.8-28.6,0-48.4l0,0L981.3,562.4z M535.7,440.5c34.2-34.3,81.1-39.3,114.1-6.2c32.7,32.8,27.2,75.6-5.6,108.4c-40.1,40.1-86.7,36.1-114.5,8.3C500.6,521.7,499.3,476.8,535.7,440.5L535.7,440.5L535.7,440.5z M369.3,418.6l29.8-29.8l77.3,77.4l-29.8,29.8L369.3,418.6L369.3,418.6z M702.5,760.7c-39.8,39.9-86.4,35.7-114.1,8c-28.9-28.9-30.1-73.8,5.9-109.9c34.2-34.2,81.1-39.3,113.9-6.5C740.9,685.1,735.3,727.8,702.5,760.7L702.5,760.7L702.5,760.7z M476.1,657.3l-24.1-24.2l308.2-87.7l23.8,23.9L476.1,657.3L476.1,657.3z M628.8,691c-20.4,19.8-27.7,41.3-15.1,54.1c12.7,12.7,31.9,6,53.3-15.6c19.5-19.5,29.2-39.9,15.4-53.8C669.2,662.3,647.9,671.7,628.8,691L628.8,691L628.8,691z M225.2,239.5c0.6,0,1.7,0,2.1-0.5c12.5-12.5-64.9-115.3-169.4-224.8c-2.9-0.5-8.8-1.5-15.6-1.5c-8.9,0-20.8,1.7-27.2,9.7C9.7,29.2,8.6,40,11.8,54.7C78.8,126.8,195,239.5,225.2,239.5L225.2,239.5L225.2,239.5z"/></g>
</svg>