<?xml version="1.0" encoding="utf-8"?>
<!-- Svg Vector Icons : http://www.sfont.cn -->
<!DOCTYPE svg PUBLIC "-//W3C//DTD SVG 1.1//EN" "http://www.w3.org/Graphics/SVG/1.1/DTD/svg11.dtd">
<svg version="1.1" xmlns="http://www.w3.org/2000/svg" xmlns:xlink="http://www.w3.org/1999/xlink" x="0px" y="0px" viewBox="0 0 1000 1000" enable-background="new 0 0 1000 1000" xml:space="preserve">
<metadata> Svg Vector Icons : http://www.sfont.cn </metadata>
<g><path d="M124.2,385.8C61.2,385.8,10,436.9,10,500c0,63.1,51.2,114.2,114.2,114.2c63.1,0,114.2-51.1,114.2-114.2C238.5,436.9,187.3,385.8,124.2,385.8L124.2,385.8z M488.6,385.8c-63.1,0-114.2,51.1-114.2,114.2c0,63.1,51.2,114.2,114.2,114.2c63.1,0,114.2-51.1,114.2-114.2C602.9,436.9,551.7,385.8,488.6,385.8L488.6,385.8z M875.8,385.8c-63.1,0-114.2,51.1-114.2,114.2c0,63.1,51.2,114.2,114.2,114.2c63.1,0,114.2-51.1,114.2-114.2C990,436.9,938.9,385.8,875.8,385.8L875.8,385.8z"/></g>
</svg>