<?xml version="1.0" encoding="utf-8"?>
<!-- Svg Vector Icons : http://www.sfont.cn -->
<!DOCTYPE svg PUBLIC "-//W3C//DTD SVG 1.1//EN" "http://www.w3.org/Graphics/SVG/1.1/DTD/svg11.dtd">
<svg version="1.1" xmlns="http://www.w3.org/2000/svg" xmlns:xlink="http://www.w3.org/1999/xlink" x="0px" y="0px" viewBox="0 0 1000 1000" enable-background="new 0 0 1000 1000" xml:space="preserve">
<metadata> Svg Vector Icons : http://www.sfont.cn </metadata>
<g><path d="M922.5,812.5h-33L863,748.7V380.2l17.8-42.9H985v-65.5L500,29.3L15,271.7v65.5h104.1l17.8,42.9v368.5l-26.5,63.8h-33L10,871.4v99.3h980v-99.3L922.5,812.5z M224.2,740.8H165V388.1h59.2V740.8z M442.4,748.7l-26.5,63.8H278.7l-26.5-63.8V380.2l17.8-42.9h154.5l17.8,42.9V748.7z M529.6,740.8h-59.2V388.1h59.2V740.8z M544.6,178l-33.8,102.6h-25.4l-31.5-102.7h-0.8c1.1,20.9,1.7,34.9,1.7,41.8v60.9H430V149.6h37.8l31,100.1h0.5l32.9-100.1H570v130.9h-25.9v-62c0-2.9,0.1-6.3,0.1-10.1c0.1-3.8,0.5-14,1.2-30.5H544.6z M747.8,748.7l-26.5,63.8H584.1l-26.5-63.8V380.2l17.8-42.9H730l17.8,42.9V748.7z M835,740.8h-59.2V388.1H835V740.8z"/><g></g><g></g><g></g><g></g><g></g><g></g><g></g><g></g><g></g><g></g><g></g><g></g><g></g><g></g><g></g></g>
</svg>