<?xml version="1.0" encoding="utf-8"?>
<!-- Svg Vector Icons : http://www.sfont.cn -->
<!DOCTYPE svg PUBLIC "-//W3C//DTD SVG 1.1//EN" "http://www.w3.org/Graphics/SVG/1.1/DTD/svg11.dtd">
<svg version="1.1" xmlns="http://www.w3.org/2000/svg" xmlns:xlink="http://www.w3.org/1999/xlink" x="0px" y="0px" viewBox="0 0 1000 1000" enable-background="new 0 0 1000 1000" xml:space="preserve">
<metadata> Svg Vector Icons : http://www.sfont.cn </metadata>
<g><path d="M780.4,370.1c-11.5,0-20.8-9.3-20.8-20.8V162.9c0-45.7-35.5-82.9-79.1-82.9H257.5c-11.5,0-20.8-9.3-20.8-20.8c0-11.5,9.3-20.8,20.8-20.8h422.9c66.6,0,120.7,55.8,120.7,124.5v186.4C801.2,360.8,791.9,370.1,780.4,370.1z"/><path d="M680.5,961.6H130.7C64.2,961.6,10,905.7,10,837V279.3c0-11.5,9.3-20.8,20.8-20.8c11.5,0,20.8,9.3,20.8,20.8V837c0,45.8,35.5,83,79.2,83h549.7c43.6,0,79.1-37.2,79.1-83v-85.2c0-11.5,9.3-20.8,20.8-20.8c11.5,0,20.8,9.3,20.8,20.8V837C801.2,905.7,747,961.6,680.5,961.6z"/><path d="M436.4,528.3H177.2c-11.5,0-20.8-9.3-20.8-20.8s9.3-20.8,20.8-20.8h259.2c11.5,0,20.8,9.3,20.8,20.8S447.9,528.3,436.4,528.3z"/><path d="M436.4,684.8H177.2c-11.5,0-20.8-9.3-20.8-20.8s9.3-20.8,20.8-20.8h259.2c11.5,0,20.8,9.3,20.8,20.8S447.9,684.8,436.4,684.8z"/><path d="M146.4,299.9H32c-11.5,0-20.8-9.3-20.8-20.8c0-11.5,9.3-20.8,20.8-20.8h114.4c49.9,0,90.4-37.6,90.4-83.9V59.2c0-11.5,9.3-20.8,20.8-20.8c11.5,0,20.8,9.3,20.8,20.8v115.2C278.3,243.6,219.1,299.9,146.4,299.9z"/><path d="M30.8,300.1c-5.4,0-10.8-2.1-14.9-6.3c-8-8.2-7.8-21.4,0.4-29.4L243.1,44.3c8.3-8,21.4-7.7,29.4,0.4c8,8.2,7.8,21.4-0.4,29.4L45.3,294.2C41.2,298.1,36,300.1,30.8,300.1z"/><path d="M745.4,655.2c-4.5,0-8.9-1.4-12.7-4.3c-9.1-7-10.7-20.1-3.7-29.2l130.4-168.8c7-9.1,20.1-10.7,29.2-3.7c9.1,7,10.7,20.1,3.7,29.2L761.9,647.1C757.8,652.4,751.6,655.2,745.4,655.2z"/><path d="M745.4,655.2c-5.5,0-11-2.2-15-6.5L654.6,569c-7.9-8.3-7.6-21.5,0.7-29.4c8.4-7.9,21.5-7.6,29.4,0.7l75.8,79.7c7.9,8.3,7.6,21.5-0.7,29.4C755.7,653.3,750.6,655.2,745.4,655.2z"/><path d="M774.2,767.2c-119,0-215.8-96.8-215.8-215.8c0-119,96.8-215.7,215.8-215.7c119,0,215.8,96.8,215.8,215.7C990,670.4,893.2,767.2,774.2,767.2z M774.2,377.3c-96.1,0-174.2,78.1-174.2,174.2c0,96.1,78.1,174.2,174.2,174.2c96.1,0,174.2-78.1,174.2-174.2C948.4,455.4,870.3,377.3,774.2,377.3z"/></g>
</svg>