<?xml version="1.0" encoding="utf-8"?>
<!-- Svg Vector Icons : http://www.sfont.cn -->
<!DOCTYPE svg PUBLIC "-//W3C//DTD SVG 1.1//EN" "http://www.w3.org/Graphics/SVG/1.1/DTD/svg11.dtd">
<svg version="1.1" xmlns="http://www.w3.org/2000/svg" xmlns:xlink="http://www.w3.org/1999/xlink" x="0px" y="0px" viewBox="0 0 1000 1000" enable-background="new 0 0 1000 1000" xml:space="preserve">
<metadata> Svg Vector Icons : http://www.sfont.cn </metadata>
<g><path d="M750.6,534.5c-1.6-23.3-19.9-40.9-42.5-40.9H291.9c-22.4,0-41.3,19.2-41.3,41.9c0,22.7,18.9,41.8,41.3,41.8h417.4c22.4,0,41.3-19.2,41.3-41.8L750.6,534.5L750.6,534.5L750.6,534.5z M709.3,337.9H291.9c-22.4,0-41.3,19.2-41.3,41.8c0,22.7,18.9,41.9,41.3,41.9h417.4c22.4,0,41.3-19.2,41.3-41.9C750.6,357,731.7,337.9,709.3,337.9L709.3,337.9L709.3,337.9z M708.1,662.5H291.9c-22.4,0-41.3,19.2-41.3,41.9c0,22.7,18.9,41.8,41.3,41.8h417.4c22.4,0,41.3-19.2,41.3-41.8l0-0.9C748.9,680,730.7,662.5,708.1,662.5L708.1,662.5L708.1,662.5z M890.8,171.5c-17.6-19.1-46.1-36.8-84.5-36.8h-55.6c-22.1,0-46.1,14.6-46.1,38.3c0,22.3,22.8,22.2,46.1,22.2h55.6c25.9,0,42.6,17,42.6,43.2v648c0,26.2-16.7,43.2-42.6,43.2H207.9c-26.8,0-56.8-18.5-56.8-43.2v-648c0-26.2,16.7-43.2,42.6-43.2h69.8c20.5,0,34.2,4.3,34.2-22.2c0-24-12.8-38.3-34.2-38.3h-69.8c-77.7,0-102,25.4-102,104.8v640.8c0,80,29,109.6,107.9,109.6h600.7c83.8,0,107.9-24.7,107.9-109.6V239.6C908.3,208.8,906.7,188.8,890.8,171.5L890.8,171.5L890.8,171.5z"/><path d="M436,381.2"/><path d="M605.3,104.3h-2.1c1.4-5.1,2.1-10.3,2.1-15.7c0-43.4-47-78.6-104.9-78.6c-57.9,0-104.9,35.2-104.9,78.6c0,5.4,0.8,10.6,2.1,15.7h-2.1c-19.3,0-35,14.1-35,31.4v92.3c0,17.3,15.6,31.4,35,31.4h209.9c19.3,0,35-14.1,35-31.4v-92.3C640.3,118.4,624.5,104.3,605.3,104.3z M570.3,135.7H430.4V72.9h139.9V135.7z"/></g>
</svg>