<?xml version="1.0" encoding="utf-8"?>
<!-- Svg Vector Icons : http://www.sfont.cn -->
<!DOCTYPE svg PUBLIC "-//W3C//DTD SVG 1.1//EN" "http://www.w3.org/Graphics/SVG/1.1/DTD/svg11.dtd">
<svg version="1.1" xmlns="http://www.w3.org/2000/svg" xmlns:xlink="http://www.w3.org/1999/xlink" x="0px" y="0px" viewBox="0 0 1000 1000" enable-background="new 0 0 1000 1000" xml:space="preserve">
<metadata> Svg Vector Icons : http://www.sfont.cn </metadata>
<g><g><path d="M990,490.9c0-24.6-5.8-48.4-10.9-69.3c-4.8-19.6-9.2-37.5-8.1-52.8c3.2-41.7,5.9-77.7,5.9-108.8c0-47.6-5.7-99.6-47.8-124.9c-43.5-26.1-107.5-16.3-213.6,0c-28.5,4.4-62-3.7-97.6-12.2c-36.5-8.8-74.1-17.8-114.4-16.4c-40.3-1.4-78,7.7-114.4,16.4c-35.5,8.5-69.1,16.6-97.6,12.2c-106.1-16.2-170.1-26-213.6,0C35.7,160.4,30,212.4,30,260c0,31.1,2.7,67.1,5.9,108.8c1.1,13.8-4.7,31.3-10.7,50.2c-7,21.8-14.9,46.5-14.9,72.7l0.1,6.1L10,518.2c0,26.2,7.9,50.9,14.9,72.7c6,18.8,11.7,36,10.7,50.2c-3.2,41.7-5.9,77.7-5.9,108.7c0,0,0,0,0,0c0,47.6,5.7,99.6,47.9,124.9c43.5,26.1,111.2,15.7,213.6,0c30.2-4.6,65,1.4,101.9,7.8c35.2,6.1,71.6,12.4,110.1,11c38.4,1.3,74.9-4.9,110.1-11c36.9-6.4,71.7-12.4,101.9-7.8c102.4,15.7,170.1,26.1,213.6,0c42.2-25.3,47.9-77.3,47.9-124.9c0-31.1-2.8-67.1-5.9-108.8c-1.2-15.3,3.3-33.3,8.1-52.8c5.1-20.9,10.9-44.7,10.9-69.3l-0.1-6.8L990,490.9z M928,519c0,17.2-4.4,35.5-9.1,54.7c-5.7,23.3-11.5,48-9.7,72.1c3.1,40.4,5.8,75.3,5.8,104.1c0,41.8-5.7,64.7-17.9,72.1c-24.4,14.7-89.8,4.6-172.6-8c-40.1-6.1-81.6,1-121.7,8c-32.4,5.6-66,11.4-98.4,10.1l-1.2,0l-1.2,0c-32.4,1.3-66-4.5-98.4-10.1c-40.1-6.9-81.6-14.1-121.7-8c-82.8,12.7-148.1,22.7-172.6,8c-12.2-7.4-18-30.3-18-72.1c0,0,0,0,0,0c0-28.7,2.7-63.7,5.7-104.1c1.9-25.1-5.9-50-13.4-73.6c-6.1-19.2-11.9-37.4-11.9-54l0.5-20.5l-0.2-6.1c0-16.6,5.8-34.7,12-54c7.5-23.6,15.3-48.6,13.4-73.6c-3.1-40.4-5.7-75.3-5.7-104.1c0-41.8,5.7-64.7,17.9-72.1c24.4-14.6,89.8-4.6,172.6,8c40.4,6.2,81.5-3.7,121.3-13.2c32.7-7.9,66.6-16,98.9-14.7l1.2,0.1l1.2-0.1c32.2-1.3,66.1,6.9,98.8,14.7c39.8,9.5,80.9,19.4,121.3,13.2c82.8-12.7,148.2-22.7,172.6-8c12.2,7.4,17.9,30.2,17.9,72.1c0,28.7-2.6,63.7-5.7,104.1c-1.8,24,4,48.7,9.7,72.1c4.7,19.3,9.1,37.5,9.1,54.7l-0.5,21.3L928,519z M118.3,781.3h759.5V231H118.3V781.3z M662.2,348.1c22.7,0,41.1,18.4,41.1,41.1c0,22.7-18.4,41.1-41.1,41.1c-22.7,0-41.1-18.4-41.1-41.1C621.2,366.5,639.5,348.1,662.2,348.1z M213.5,668.7c0,0,160.9-333.8,297.6-62.3c0,0,36.2,122.7,90.5,46.3c54.3-76.4,112.6-66.4,150.8,0c19.6,34,31.7,46.3,39,50.3h9.3c0,0-2.4,3.8-9.3,0H199.4L213.5,668.7z"/></g><g></g><g></g><g></g><g></g><g></g><g></g><g></g><g></g><g></g><g></g><g></g><g></g><g></g><g></g><g></g></g>
</svg>