<?xml version="1.0" encoding="utf-8"?>
<!-- Svg Vector Icons : http://www.sfont.cn -->
<!DOCTYPE svg PUBLIC "-//W3C//DTD SVG 1.1//EN" "http://www.w3.org/Graphics/SVG/1.1/DTD/svg11.dtd">
<svg version="1.1" xmlns="http://www.w3.org/2000/svg" xmlns:xlink="http://www.w3.org/1999/xlink" x="0px" y="0px" viewBox="0 0 1000 1000" enable-background="new 0 0 1000 1000" xml:space="preserve">
<metadata> Svg Vector Icons : http://www.sfont.cn </metadata>
<g><path d="M899.3,531.7H509.8v40.4h389.4V531.7z M989.9,311.8v-43.7c0-47.8-38.7-86.8-86.7-86.9h-806c-48,0.1-87.1,38.8-87.2,86.9v61.1h0.1v68.1H10v334.5c0.1,48,39.2,86.9,87.2,86.9h806c48,0,86.7-39.1,86.7-86.9V414.9h0.1L989.9,311.8L989.9,311.8z M50.4,329.2h899.1v68.1H50.4V329.2z M949.5,731.8c0,25.6-20.8,46.5-46.3,46.5h-806c-25.6-0.1-46.7-21.1-46.8-46.5V437.6l899.1,0.1V731.8z M949.5,288.8H50.4v-20.7c0.1-25.4,21.2-46.4,46.8-46.5h806c25.5,0.1,46.3,20.9,46.3,46.5L949.5,288.8L949.5,288.8z"/></g>
</svg>