<?xml version="1.0" encoding="utf-8"?>
<!-- Svg Vector Icons : http://www.sfont.cn -->
<!DOCTYPE svg PUBLIC "-//W3C//DTD SVG 1.1//EN" "http://www.w3.org/Graphics/SVG/1.1/DTD/svg11.dtd">
<svg version="1.1" xmlns="http://www.w3.org/2000/svg" xmlns:xlink="http://www.w3.org/1999/xlink" x="0px" y="0px" viewBox="0 0 1000 1000" enable-background="new 0 0 1000 1000" xml:space="preserve">
<metadata> Svg Vector Icons : http://www.sfont.cn </metadata>
<g><g transform="translate(0.000000,511.000000) scale(0.100000,-0.100000)"><path d="M643.1,4976.8c-251.7-77.3-432.7-262.7-507.8-516.6c-30.9-106-35.3-547.5-35.3-4351.6c0-4166.2,0-4234.6,44.2-4373.7c72.9-236.2,260.5-417.3,507.8-490.1c106-30.9,552-35.3,4349.4-35.3c3797.5,0,4243.4,4.4,4349.4,35.3c223,66.2,377.5,200.9,479.1,417.3l61.8,132.5l6.6,4272.1c4.4,3828.4,2.2,4283.2-30.9,4389.1c-70.7,249.5-253.9,439.4-490.1,512.2c-139.1,44.2-205.3,44.2-4384.7,42C1292.2,5009.9,738.1,5005.5,643.1,4976.8z M5465,3442.3c691-174.4,1238.6-750.7,1379.9-1452.7c50.8-247.3,35.3-649.1-33.1-885.3C6549,194.6,5641.6-388.2,4714.3-242.5C4058.6-138.8,3500,305,3257.2,912.2c-178.8,450.4-178.8,984.7,4.4,1421.8C3619.3,3197.3,4559.8,3669.7,5465,3442.3z M6734.5-1066c856.6-172.2,1470.4-576.2,1808.2-1190c192.1-346.6,240.6-624.8,229.6-1320.3l-6.6-452.6H5001.4H1237v585.1c2.2,660.1,15.5,750.7,165.6,1075.2c103.8,225.2,187.7,346.6,368.7,538.7c408.4,432.7,1020,715.3,1706.6,790.4c103.8,11,839,17.7,1633.8,13.2C6332.7-1030.7,6584.4-1037.3,6734.5-1066z"/></g></g>
</svg>