<?xml version="1.0" encoding="utf-8"?>
<!-- Svg Vector Icons : http://www.sfont.cn -->
<!DOCTYPE svg PUBLIC "-//W3C//DTD SVG 1.1//EN" "http://www.w3.org/Graphics/SVG/1.1/DTD/svg11.dtd">
<svg version="1.1" xmlns="http://www.w3.org/2000/svg" xmlns:xlink="http://www.w3.org/1999/xlink" x="0px" y="0px" viewBox="0 0 1000 1000" enable-background="new 0 0 1000 1000" xml:space="preserve">
<metadata> Svg Vector Icons : http://www.sfont.cn </metadata>
<g><path d="M890.4,385.4L484.7,787.6c-36.7,36.2-125.6,36.2-162.3,0L109.6,591.8c-36.7-36.2-36.7-94.8,0-130.9L511.8,63.6c7.7-7.5,17.6-14.7,28.8-20.9C569.6,21.5,614.4,10,647,10h162.3c51.9,0,108.2,56.1,108.2,107.3v160.9c0,6.1-0.8,12-2.2,17.6C922.8,327,914.5,361.7,890.4,385.4z M836.3,197.7c24.5-24.1,24.5-83.1,0-107.3c-24.5-24.1-83.7-24.1-108.2,0c-24.5,24.1-24.5,83.1,0,107.3C752.6,221.8,811.8,221.8,836.3,197.7L836.3,197.7z M301.3,271.7c-2.7,29.6-5.3,58.8-8.1,89l71.4,0.3c0.3,2.3,0.7,3.8,0.7,5.3c-0.1,29.7-0.3,59.5-0.3,89.2c0,4.4-1.7,6.1-5.7,7.4c-20.5,6.8-40.9,13.7-61.2,20.8c-2.1,0.7-5.2,2.7-5.2,4.2c-0.5,15.6-0.4,31.2-0.5,47.7c24.5-8.3,47.8-16.1,72.3-24.4l-0.4,91.3l63.5,0.3l0-8.5c0.1-28,0.2-55.9,0.4-83.8c0.1-6.8-1.7-15.2,1.5-20c3-4.4,11.6-5.1,17.8-7.4c1.2-0.4,2.6-0.6,3.5-1.4c1.1-0.8,2.5-2.2,2.5-3.3c0.2-15.6,0.3-31.2,0.3-47.5c-9,3-16.8,5.6-24.7,8.2l0.4-78.1l20.3,0.1l0.2-43.6l-21.3-0.1l0.3-68.5l-63.3-0.3l-0.3,68.1l-11.8-0.1c1.4-15.2,2.8-29.7,4.2-44.7L301.3,271.7L301.3,271.7z M462.7,397.6c76.2,0.4,152.1,0.7,228.4,1.1l0.2-39.5l-77.7-0.4l0.2-41.4l66.2,0.3l0.2-39.8l-66.9-0.3l0.1-27.7l-71.5-0.3l-0.1,28.1l-66.4-0.3l-0.2,39.9l66.1,0.3l-0.2,41.4l-78-0.4L462.7,397.6L462.7,397.6z M462.9,476.6c45,0.2,89.5,0.4,134,0.6l-0.4,91.9l-31.7-0.2c4.4,10,8.6,19.1,12.4,28.5c1.9,4.8,4.7,6.2,9.8,6.1c23.9-0.2,47.8,0.1,71.7,0.2c2.4,0,4.8-0.3,8.1-0.5l0.6-126.2l22.9,0.1l0.2-43.7l-23.3-0.1l0.1-27.9l-69.4-0.3l-0.1,28l-134.5-0.7L462.9,476.6L462.9,476.6z M475.6,494c7.7,22.3,15.1,43.8,22.8,65.2c0.4,1.2,2.6,2.6,4,2.6c18,0.3,36,0.3,54.3,0.4c2.5-8.1,4.8-15.7,7.7-24.9c-11.1,3.4-12.6-3.8-14.9-10.4c-3.3-9.3-6.7-18.6-10.5-27.7c-0.8-2-3.5-4.7-5.3-4.7C514.7,494,495.6,494.1,475.6,494L475.6,494z"/><path d="M326,871.9c43.2,45.3,106.8,56.9,164-1.9l329.3-326.2L614.4,931.3c-22.7,43.3-85,73.5-129,51.2l-258-127.9c-39.7-20.2-60.7-43.1-35.6-106.1L326,871.9z"/></g>
</svg>