<?xml version="1.0" encoding="utf-8"?>
<!-- Svg Vector Icons : http://www.sfont.cn -->
<!DOCTYPE svg PUBLIC "-//W3C//DTD SVG 1.1//EN" "http://www.w3.org/Graphics/SVG/1.1/DTD/svg11.dtd">
<svg version="1.1" xmlns="http://www.w3.org/2000/svg" xmlns:xlink="http://www.w3.org/1999/xlink" x="0px" y="0px" viewBox="0 0 1000 1000" enable-background="new 0 0 1000 1000" xml:space="preserve">
<metadata> Svg Vector Icons : http://www.sfont.cn </metadata>
<g><path d="M381.3,381V9.6H10V381h67.5v67.5H145V381L381.3,381z M77.5,313.4V77.1h236.3v236.3H77.5z"/><path d="M145,144.6h101.3v101.3H145V144.6L145,144.6z"/><path d="M583.9,9.6V381h371.3V9.6H583.9z M887.7,313.4H651.4V77.1h236.3V313.4z"/><path d="M718.9,144.6h101.3v101.3H718.9V144.6z"/><path d="M10,448.5h67.5V516H10V448.5L10,448.5z"/><path d="M145,448.5h67.5V516H145V448.5L145,448.5z"/><path d="M212.6,583.5H10v371.3h371.3V583.5H280.1V516h-67.5V583.5z M313.8,651v236.3H77.5V651H313.8z"/><path d="M145,718.5h101.3v101.3H145V718.5L145,718.5z"/><path d="M448.9,43.4h67.5v101.3h-67.5V43.4z"/><path d="M448.9,212.2h67.5v67.5h-67.5V212.2z"/><path d="M448.9,347.2h67.5v101.3h-67.5V347.2z"/><path d="M280.1,448.5h168.8V516H280.1V448.5L280.1,448.5z"/><path d="M831.9,959c-3.4,0-6.8-0.2-10.1-0.8l-208.5-31c-10.9-1.6-19.7-6.9-25.4-15.7c-5-7.5-7.3-16.9-6.4-26.6c1.4-14.9,13.3-28,28-31.2c2.2-0.4,4.6-0.8,6.8-0.8c1.6,0,3,0,4.6,0.2l68.1,10.1c9.9,1.4,19.3,2.6,26.8,3.6L554.3,659.6c-5.8-7.3-8.3-16.3-7.5-25.4c1-8.9,5.4-17.1,12.3-22.4c3.6-3,7.7-4.8,12.1-5.8c2.2-0.4,4.2-0.8,6.4-0.8c10.3,0,20.5,5.4,27.8,14.7l92.9,119.3c1.6,1.8,3.8,3,6,3c0.6,0,1,0,1.6-0.2c1-0.2,2-0.6,2.8-1.2c1.6-1.2,2.6-3,2.6-5c0.2-2-0.2-4-1.6-5.6L678,689.7c-5.8-7.3-8.5-16.1-7.9-24.8c0.6-8.9,4.8-16.9,11.7-22.4c0.4-0.4,6-4.6,13.9-6.4c2.2-0.4,4.6-0.8,6.6-0.8c9.9,0,19.3,5,26.8,14.5l38.9,50c1.6,1.8,3.8,3,6,3c0.6,0,1,0,1.6-0.2c1-0.2,2-0.6,2.8-1.2c3.2-2.6,3.6-7.1,1.2-10.3l-24-31c-11.9-15.5-10.3-36.1,3.8-47.1c0.2-0.2,0.2-0.2,0.4-0.2c0.6-0.4,5.8-3.8,13.3-5.6c2.6-0.6,5-0.8,7.5-0.8c10.3,0,19.5,4.8,26.4,13.7l28.2,35.7c1.6,1.8,3.8,3,6,3c0.6,0,1,0,1.6-0.2c1-0.2,2-0.6,2.8-1.2c1.8-1.4,2.4-3.4,2.6-4.6c0.2-1.8-0.4-3.8-1.6-5.6L832.1,629c-5.8-7.3-8.5-16.3-7.9-25c0.6-8.9,4.8-16.9,11.7-22.4c1-0.8,6.4-5,13.9-6.6c2.2-0.4,4.2-0.8,6.4-0.8c9.9,0,19.3,5.2,26.8,14.9l76.1,97.7c13.1,16.7,23,34.2,30.2,51.6c0.6-7,0.8-13.9,0.8-20.9c0-150.7-122.1-272.9-272.9-272.9c-150.7,0-272.9,122.1-272.9,272.9c0,150.7,122.1,272.8,272.9,272.8c46.9,0,90.8-11.7,129.3-32.6C841.7,958.4,836.9,959,831.9,959z"/></g>
</svg>