<?xml version="1.0" encoding="utf-8"?>
<!-- Svg Vector Icons : http://www.sfont.cn -->
<!DOCTYPE svg PUBLIC "-//W3C//DTD SVG 1.1//EN" "http://www.w3.org/Graphics/SVG/1.1/DTD/svg11.dtd">
<svg version="1.1" xmlns="http://www.w3.org/2000/svg" xmlns:xlink="http://www.w3.org/1999/xlink" x="0px" y="0px" viewBox="0 0 1000 1000" enable-background="new 0 0 1000 1000" xml:space="preserve">
<metadata> Svg Vector Icons : http://www.sfont.cn </metadata>
<g><path d="M884.4,561.2c61.3,0,91.9-183.7,0-183.7H700.7C884.4,71.3,751.4,10,700.7,10c0,155.6-228.8,329-459.4,398.1v490h-61.2v-490h61.2v-30.6H118.8c-33.7,0-61.2,41.4-61.2,91.9v367.5c0,50.5,27.6,91.9,61.2,91.9h122.5v-30.6c261,27.1,170,91.9,428.7,91.9c61.3,0,122.5-30.6,122.5-91.9c61.3,0,91.9-153.1,61.3-153.1C915.1,745,954.3,561.2,884.4,561.2L884.4,561.2z"/></g>
</svg>