<?xml version="1.0" encoding="utf-8"?>
<!-- Svg Vector Icons : http://www.sfont.cn -->
<!DOCTYPE svg PUBLIC "-//W3C//DTD SVG 1.1//EN" "http://www.w3.org/Graphics/SVG/1.1/DTD/svg11.dtd">
<svg version="1.1" xmlns="http://www.w3.org/2000/svg" xmlns:xlink="http://www.w3.org/1999/xlink" x="0px" y="0px" viewBox="0 0 1000 1000" enable-background="new 0 0 1000 1000" xml:space="preserve">
<metadata> Svg Vector Icons : http://www.sfont.cn </metadata>
<g><path d="M780.8,362.8v517.5c0,18.3-16.5,34.5-35.1,34.5H254.3c-18.6,0-35.1-16.2-35.1-34.5V361.7c0-20.5-16.5-34.6-35.1-34.6c-18.7,0-35.1,14-35.1,34.6v518.6c0,57.2,47.2,103.7,105.3,103.7h491.4c58.1,0,105.3-46.4,105.3-103.7V362.8C851,317.4,780.8,317.4,780.8,362.8z M429.8,742V361.7c0-44.3-70.2-44.3-70.2,0V742C359.6,786.3,429.8,786.3,429.8,742z M640.4,742V361.7c0-44.3-70.1-44.3-70.1,0V742C570.2,786.3,640.4,786.3,640.4,742z M956.3,188.9H780.8v-69.2C780.8,62.5,733.6,16,676.6,16h-352c-58.1,0-105.3,46.4-105.3,103.7v69.2H43.7c-45,0-45,69.1,0,69.1h912.5C1001.2,258,1001.2,188.9,956.3,188.9z M710.6,188.9H289.4v-69.2c0-18.4,16.5-34.6,35.1-34.6h352.1c18.7,0,34,14,34,34.6V188.9z"/></g>
</svg>