<?xml version="1.0" encoding="utf-8"?>
<!-- Svg Vector Icons : http://www.sfont.cn -->
<!DOCTYPE svg PUBLIC "-//W3C//DTD SVG 1.1//EN" "http://www.w3.org/Graphics/SVG/1.1/DTD/svg11.dtd">
<svg version="1.1" xmlns="http://www.w3.org/2000/svg" xmlns:xlink="http://www.w3.org/1999/xlink" x="0px" y="0px" viewBox="0 0 1000 1000" enable-background="new 0 0 1000 1000" xml:space="preserve">
<metadata> Svg Vector Icons : http://www.sfont.cn </metadata>
<g><path d="M595.7,505.3l8.4-0.2v-1.3c11-3.6,19.1-13.9,19.1-26.2c0-15.2-12.3-27.5-27.4-27.5H489.2v-23.3l111.4-109.3l5.3-5.5l-0.5-0.6c2.3-3.8,3.7-8,4-12.6c0.5-7.3-2-14.4-6.9-20c-9.6-10.8-27.4-12.4-39.1-2l-101.3,99.9L354.9,271.6c-10.9-9.7-29.2-8.6-38.8,2.3c-8.3,9.3-9,22.7-2.8,32.8l-0.6,0.8L434,426v24.2H327.5l-8.4,0.1v1.3c-11,3.6-19.1,13.9-19.1,26.2c0,12.2,8,22.6,19.1,26.2v1.4H434v42.3l-114.9,0.1v1.3c-11.1,3.5-19.1,13.9-19.1,26.2s8,22.6,19.1,26.2v1.4H434v105.1l0.1,8.4h1.3c3.6,11,13.9,19.1,26.2,19.1s22.6-8,26.2-19.1h1.4V602.8h106.6l8.4-0.2v-1.3c11-3.6,19.1-13.9,19.1-26.2c0-15.2-12.3-27.5-27.4-27.5H489.2v-42.3H595.7z"/><path d="M981.5,459.7c-11.5-11.7-30.1-11.7-41.7-0.4l-27.4,26.9c-7.3-243-206.1-437.8-450.9-437.8C212.2,48.4,10,250.6,10,500c0,249.4,202.2,451.6,451.6,451.6c138.5,0,261.8-62.9,344.6-161.1c3.4-2.6,6.2-5.7,8.3-9.4c0.4-0.5,0.9-1,1.3-1.5l-0.2-0.1c2-4,3.3-8.4,3.3-13.2c0-17-13.8-30.8-30.8-30.8c-10.9,0-20.1,6-25.6,14.6c-71.8,86.3-180,141.4-300.8,141.4C245.8,891.4,70.2,715.8,70.2,500c0-215.8,175.6-391.4,391.4-391.4c215.8,0,391.4,175.6,391.4,391.4c0,1.4-0.1,2.8-0.2,4.2l-44.5-44.7c-11.5-11.5-30.2-11.6-41.7-0.1c-11.5,11.5-11.6,30.2-0.1,41.7l81.5,81.7c5.8,5.8,13.4,8.7,20.9,8.7c0.2,0,0.4-0.1,0.5-0.1c2.3,0.6,4.5,1.4,6.9,1.4c7.5,0,14.9-2.8,20.7-8.5l84.3-82.9C992.8,490,993,471.3,981.5,459.7z"/></g>
</svg>