<?xml version="1.0" encoding="utf-8"?>
<!-- Svg Vector Icons : http://www.sfont.cn -->
<!DOCTYPE svg PUBLIC "-//W3C//DTD SVG 1.1//EN" "http://www.w3.org/Graphics/SVG/1.1/DTD/svg11.dtd">
<svg version="1.1" xmlns="http://www.w3.org/2000/svg" xmlns:xlink="http://www.w3.org/1999/xlink" x="0px" y="0px" viewBox="0 0 1000 1000" enable-background="new 0 0 1000 1000" xml:space="preserve">
<metadata> Svg Vector Icons : http://www.sfont.cn </metadata>
<g><path d="M167.1,154.2c84.5-88.5,156.7-145,369.1-145c151.3,0,320.1,47.4,378.1,189.1c-38.9-64.6-91.6-54.4-113.4,0c0,0-78.3,46.5-297.7,46.5C283.9,244.7,167.1,154.2,167.1,154.2z"/><path d="M703.2,439.3c0,33.9-27.5,61.5-61.5,61.5c-33.9,0-61.4-27.5-61.4-61.5c0-33.9,27.5-20.5,61.4-20.5C675.7,418.8,703.2,405.4,703.2,439.3z"/><path d="M416.5,439.3c0,33.9-27.5,61.5-61.5,61.5c-33.9,0-61.5-27.5-61.5-61.5c0-33.9,27.5-20.5,61.5-20.5C388.9,418.8,416.5,405.4,416.5,439.3z"/><path d="M865.9,139.4c0,0-142.6,55.7-367.5,55.7c-180.1,0-333.3-42.8-333.3-42.8L93.1,399.6c0,0,166.3,66.6,405.3,66.6c191.9,0,419.6-56.5,419.6-56.5L865.9,139.4z M496.7,398.4c-130.1,0-262-22.2-324-36.9l38.9-141.3c55.1,12.5,157.3,36.5,290.2,36.5c154.2,0,267.6-17.7,320.2-30.4l28,132.8C787.8,372.1,628.7,398.4,496.7,398.4z"/><path d="M895.4,122.6c52.2,0,94.6,42.3,94.6,94.6c0,52.2-42.3,94.5-94.6,94.5c-52.2,0-94.5-42.3-94.5-94.5C800.9,164.9,843.2,122.6,895.4,122.6z"/><path d="M982.6,579.6c-5.9-16.5-15.4-33-38.7-51.8c7.4-13.8,11.4-29.5,11.4-45.9c0-44.9-25-83.5-79.7-92c-4.4-11.1,0.3-19.8-0.2-20.8c-10-20.2-70.3-0.1-60.5,20.2c0,0.1,18,21.3,27,37.1c30.3-5.6,59.5-0.8,73.1,37.1c13.5,37.8-28.1,77.8-28.1,77.8s56.8-1.4,53.5,64.2c-2.2,44.2-63.1,64.5-63.1,64.5s73.3,52.5,41.8,109.5c-36.6,66.3-122,35.5-122,35.5s13.5,73-35.6,99.1c-61.3,32.6-92.4-0.5-101.3-17.2c-7.9,43.2-134.1,71.6-161.2,12.8c-37.8,69.7-155.3,34.4-158.7-15c-10.5,9.2-43.7,52-105,19.5c-49-26-35.6-99.1-35.6-99.1s-85.3,30.7-122-35.5c-31.5-57,41.8-109.5,41.8-109.5s-60.9-20.3-63.1-64.5c-3.3-65.7,53.5-64.2,53.5-64.2s-41.6-39.9-28.1-77.8c13.5-37.8,46.4-48.2,76.7-42.5c9.1-15.8,23.3-31.5,23.3-31.7c9.9-20.3-50.3-40.3-60.4-20.2c-0.5,1.1,4.2,9.7-0.2,20.9c-54.6,8.5-79.7,47.1-79.7,92c0,16.4,4.1,32.1,11.5,45.9c-23.3,18.8-32.8,35.3-38.7,51.8c-11.5,32,2.1,74.8,25,98.7C5.1,712.4,9.8,786.4,32.4,820c38.3,57.1,89.9,51.5,115.7,54.4c-1.8,23.9,10.4,67,38.5,84.1c55.9,34.1,115.2,25.6,147.2,1.3c38.3,34.3,102.2,45.2,163.1,5.8c55,41.3,141.6,29.5,167.1-16.7c24.9,32.1,81.9,47.2,145.9,9.6c28.4-16.6,40.3-60.2,38.5-84.1c25.8-2.9,77.4,2.7,115.7-54.4c22.5-33.5,27.3-107.5-6.8-141.7C980.5,654.4,994.1,611.6,982.6,579.6z"/><path d="M579.7,544.5c-11,54.4-46.2,69.7-81.3,69.7c-35,0-70.2-15.3-81.3-69.7c-36.1,32.8-102.3,109.5-254-28.4c20.3,41.2,59.9,177.3,242.2,108.1c17.1,21.8,46.4,40.3,93.1,40.3c46.7,0,76-18.6,93.1-40.3c182.2,69.2,221.9-66.9,242.2-108.1C682,654.1,615.8,577.4,579.7,544.5z"/><path d="M498.4,724.1c-109.7,0-135.2-51.9-136.2-52.9c0,0,41,113.9,136.2,113.9c95.2,0,136.2-113.9,136.2-113.9C633.6,672.2,608.1,724.1,498.4,724.1z"/></g>
</svg>