<?xml version="1.0" encoding="utf-8"?>
<!-- Svg Vector Icons : http://www.sfont.cn -->
<!DOCTYPE svg PUBLIC "-//W3C//DTD SVG 1.1//EN" "http://www.w3.org/Graphics/SVG/1.1/DTD/svg11.dtd">
<svg version="1.1" xmlns="http://www.w3.org/2000/svg" xmlns:xlink="http://www.w3.org/1999/xlink" x="0px" y="0px" viewBox="0 0 1000 1000" enable-background="new 0 0 1000 1000" xml:space="preserve">
<metadata> Svg Vector Icons : http://www.sfont.cn </metadata>
<g><g><path d="M304.7,465.9c4.9-4.1,8-9.6,9.8-15.9c8.1-4.2,17.4-16.5,18.9-31.5c1.8-18.6-9.6-33.7-18.1-34.5c-6.2-0.5-9.2,8.5-8.6,21.3c-2.6-4.7-5.5-9.2-9.2-13.5c-21.8-25.7-46.2-33.1-71.9-19.5c-20.6,11.1-25.8,35.2-3.8,61C243.5,459.1,286.8,481,304.7,465.9z M520.9,294c10,0,18.2,8.2,18.2,18.2c0,10-8.2,18.2-18.2,18.2c-10.1,0-18.2-8.2-18.2-18.2C502.6,302.2,510.8,294,520.9,294z M630.3,294c10,0,18.1,8.2,18.1,18.2c0,10-8.1,18.2-18.1,18.2c-10.1,0-18.3-8.2-18.3-18.2C612,302.2,620.2,294,630.3,294z M440.8,359.1c-11.1,11.4-18,27-18,44.3c0,35.1,28.5,63.7,63.6,63.7c2.6,0,5.1-0.5,7.6-0.8c0,0.2,0,0.4,0,0.7c0,37.6,36.5,87.6,81.6,87.6c45,0,81.5-50,81.5-87.6c0-0.3,0-0.5-0.1-0.7c2.5,0.3,5,0.8,7.5,0.8c35.2,0,63.6-28.5,63.6-63.7c0-17.2-6.9-32.8-18-44.3c12-8.2,19.8-22,19.8-37.6c0-14.7-7.2-27.3-17.8-35.7c1.8-0.3,4.5-1.6,4.5-6.9c0-1.1,0.3-2.8,0.6-5c1.7-14.6,5.6-48.8-18.9-76.4c-3.6-4-7.7-7.6-12.2-11c-21.4-52.9-1.2-95.9,0.8-120c6.5,8.3,16.4,13.7,27.8,13.7c19.4,0,35.2-15.7,35.2-35.1c0-19.4-15.8-35.2-35.1-35.2c-19.4,0-35.2,15.7-35.2,35.2c0,1.2,0.2,2.4,0.3,3.6c-4-2.3-9.7-3.6-18.3-3.6c-59.1,0-162.1,53-191.8,138.1c-6.4,4.3-12.2,8.9-17,14.3c-24.6,27.6-20.6,61.7-18.9,76.4c0.3,2.2,0.5,3.9,0.5,5c0,1.5,0.1,2.6,0.5,3.6c0.7,1.8,2.3,2.9,4.1,3.2c-10.8,8.3-18.1,21-18.1,35.8C420.9,337.2,428.8,350.9,440.8,359.1z M575.6,444.8c-30.3,0-54.7-32.4-54.7-42.5c0-10.1,24.4-12.1,54.7-12.1c30.2,0,54.6,2.1,54.6,12.1C630.3,412.4,605.8,444.8,575.6,444.8z M682.3,370.8c-20.7,3.4-69.6-10.9-83.7-18.8c-4.2,6.5-12.9,9.3-23,9.3c-10.2,0-19-2.7-23.1-9.3c-14.1,7.9-63,22.1-83.8,18.7c-27.7-4.5-14.1-30.6-25.8-85.6c1.2-0.6,2.6-1.4,4.4-2.7c10.6-7.3,42.9-29.5,128.2-29.5c85.3,0,117.6,22.2,128.2,29.5c1.7,1.2,3.1,2.1,4.4,2.7C696.5,340.1,710.1,366.2,682.3,370.8z M653.5,144.4l8.7,4.9l-9.3,3.9L651,163l-6.7-7.5l-9.8,1.1l5.1-8.6l-4.1-9.1l9.7,2.2l7.3-6.8L653.5,144.4z M634,69.4l5.1,1.1l3.8-3.5l0.4,5.2l4.6,2.5l-4.8,2l-1,5l-3.3-3.9l-5.2,0.6l2.6-4.4L634,69.4z M630.9,98.9l7.4,1.7l5.6-5.1l0.6,7.5l6.6,3.7l-7,2.9l-1.5,7.4l-5-5.7l-7.4,0.9l3.8-6.4L630.9,98.9z M593.5,76.8l5,1.2l3.8-3.5l0.5,5.1l4.4,2.5l-4.7,2l-1,5l-3.3-3.8l-5.2,0.6l2.6-4.4L593.5,76.8z M564.5,109.4l20.3,4.7l15.5-14.1l1.7,20.8l18.2,10.3l-19.2,8.2l-4.2,20.4L583.1,144l-20.7,2.4l10.7-17.9L564.5,109.4z M529.4,124.3l7.3,1.7l5.5-5.1l0.7,7.5l6.5,3.7l-6.9,3l-1.5,7.3l-4.9-5.6l-7.5,0.8l3.9-6.5L529.4,124.3z M509.7,147.5l5,1.1l3.7-3.5l0.5,5.2l4.4,2.5l-4.7,2l-1,5l-3.4-3.9l-5.1,0.6l2.6-4.4L509.7,147.5z M459.6,203.7c21-23.5,60-35.5,116-35.5c56,0,95,12,116,35.5c21.8,24.5,18.2,55.9,16.6,69.2c-0.1,0.5-0.1,1-0.2,1.4c-13.1-9-46.4-30.5-132.4-30.5c-86.1,0-119.5,21.5-132.5,30.5c0-0.4-0.1-0.9-0.1-1.4C441.4,259.5,437.7,228.2,459.6,203.7z M575.3,326.8c-9.1,0-16.9,5.5-20.2,13.4c5-5.7,12-9.5,20-9.5c8.4,0,15.6,4.1,20.5,10.1C592.5,332.6,584.7,326.8,575.3,326.8z M343.4,723.4c0.1-0.1,0.2-0.4,0.4-0.4c7.1-2.8,118.9,28.5,215.4,34.7c17.1-4,31.4-8,41-11.1c-12.2-28.8-18.4-58.5-18.4-88.3c0-35,8.4-67.8,22.4-97.5c-9.2,3.6-18.8,6-28.8,6c-21.6,0-41.2-9.7-57-23.9l0,0c-17.5-15.8-30-37.2-34.6-58.5c-0.4-1.7-1-3.5-1.3-5.2c-4.2-0.2-8.1-1.3-12-2.2c-7.1-1.5-13.7-4.1-19.9-7.4c-0.9-0.5-1.9-0.8-2.9-1.3c-7.1-4.2-13.5-9.5-18.9-15.8l-62.6-36.1c0-11.2-4-21.3-14.8-27.6c-2.4-1.4-4.8-1.1-7.2-1.7c17.3,10.4,9.5,38.5-2.6,59.5c-12.1,21.1-32.6,41.9-50.3,32c1.8,1.8,2.7,4.1,5.2,5.5c12.8,7.4,25.3,3.7,36.2-4.5l84.5,35.6c-31,50.8-76.7,132.2-89.5,189.9C332.1,710.7,337.2,716.9,343.4,723.4z M406.1,592.7c11.9,0,21.6,9.6,21.6,21.6c0,11.9-9.6,21.6-21.6,21.6c-12,0-21.6-9.6-21.6-21.6C384.5,602.3,394.2,592.7,406.1,592.7z M378.2,667c11.9,0,21.6,9.6,21.6,21.7c0,12-9.7,21.5-21.6,21.5c-11.9,0-21.6-9.6-21.6-21.6S366.3,667,378.2,667z M668.5,479.8c-0.1,0-0.2-0.4-0.3-0.4c0,0.3-0.1,0.6-0.2,0.9C668.1,480.1,668.3,479.9,668.5,479.8z M867.7,417.2c5.2,1.2,27.3-15.3,29.1-20.9c-8.7,7.3-16.7,12.6-27.1,12.1C870.9,413.7,862.4,415.9,867.7,417.2z M929.9,388.7l-3.1-0.3c-6-0.6-11.6,1.3-12.6,4.3c-1.1,2.9,2.4,7.8,7.5,10.9l2.7,1.5c5.2,3.1,11,1,12.8-4.7l0.1-0.2C939.3,394.4,935.9,389.2,929.9,388.7z M892.4,377l-2.7-1.6c-5.2-3.1-10.9-0.9-12.8,4.8l-0.1,0.2c-1.8,5.7,1.5,10.9,7.5,11.4l3.1,0.3c6,0.6,11.6-1.3,12.6-4.2C901,385,897.6,380.1,892.4,377z M923.1,435.4c4.8,2.1-0.6-4.8,3.5-8.3c-8.5-5.8-12-14.8-14.6-25.9C910.2,406.8,918.1,433.3,923.1,435.4z M960.6,380.3c-1.6-3.3-4.8-5.3-8.8-5.7l-4-0.3l3.4-10.1l-20.5-6.7l-7.1,21.6c-3.4,1.4-6.8,2.9-9.3,4.6c-0.9-0.7-1.7-1-2.7-1.4l-3.3-1c-1-0.3-1.9-0.5-2.9-0.5c-1-2.9-2.8-6.1-4.7-9.3l7.2-21.5l-93.3-30.6L801.7,358l55,18.1c-2.1,8.2,0.5,16.1,6.5,20.8c-2.5-0.1-5-0.2-7.6-0.3l-6.4-0.2l0.7,2.7l-55.6-18.3l-20.9,63.5c-101.9,18.3-179.3,106.9-179.3,214.2c0,34.5,8.7,66.9,23,95.9c0,0-185,65.5-259.8,0c-74.8-65.5-51.8-94.5-107-94.5c-59.8,0-108.3,48.5-108.3,108.4c0,59.9,48.5,108.3,108.3,108.3h55.1l-38.9,67.3h-144c-21.2,0-38.4-17.2-38.4-38.3s17.2-38.2,38.4-38.2c12.7,0,23-10.4,23-23.2c0-12.7-10.3-23-23-23c-46.5,0-84.4,38-84.4,84.4S76,990,122.6,990h746.4c12.8,0,23-10.2,23-22.9c0-13-10.3-23.2-23-23.2H735.6l-39-67.3h8.8c120.4,0,119-97.8,119-218c0-1.5-0.5-3.1-0.6-4.6c0.3,0,0.4,0,0.6,0c58.9,0,106.7-47.8,106.7-106.7c0-23.1-7.5-44.4-19.9-61.9l11-33.4c2.4,3.1,4.9,5.3,7.2,6.3l1,0.3c3.1,1.1,5.4,0.2,6.8-0.6c3.8-2.5,4.3-7.3,5-13c0.5-4,1.1-9.6,3.1-11.3l5-4.2L945,426c-2.3-1.5-4.4-2.9-6.4-4.3c2.9,0,5.8-0.8,8.4-2.1c4.5-2.4,8-6.7,9.8-12.4l1-2.8C960.5,395.9,963.7,386.6,960.6,380.3z M317.9,943.9l38.9-67.4h288.9l38.9,67.4H317.9z M874,453l12-36.3c4.5-3.5,8.9-7.4,12.4-11.4c0.5,0.3,1.2,0.7,1.8,0.9l3.3,1.1c0.7,0.2,1.4,0.3,2,0.4c0.4,5.3,1.5,11,3.2,16.5l-14.1,43C888.3,461.6,881.4,456.9,874,453z M952.2,405.5v0.4c-3.3,9.9-13.4,13.7-22.5,8.4l-4.7-2.8c-3.9-2.3-7.2-5.2-9.6-8.3c5.7,12.1,14.5,18.5,26.8,26.6c-7.3,6.3-2.3,26.3-10.2,23.9c-0.2,0-0.3,0-0.5,0c-7.8-3.3-22.6-31.6-21.3-53c-1.6,1.7-3.4,2.6-5.2,2l-3.1-1.1c-1.7-0.5-2.9-2.4-3.1-4.7c-11.5,18-40.2,32-48.5,30c-9.3-2.2,7.7-15.9,5.4-25.6c14.7,0.7,25.8,0.8,37.3-5.6c-3.6,1-8.1,1.4-12.7,1l-5.4-0.6c-10.4-1-16.3-10.1-13.1-20.1l0.1-0.3c3.2-10,7.2-25.8,16.3-20.4l4.7,2.8c7.9,4.8,18.3,21.4,19.5,28.8c1.4-1.1,3-1.7,4.5-1.2l3.3,1c1.3,0.5,2.4,1.9,2.9,3.6c5.3-5.2,23.6-12.4,32.9-11.5l5.4,0.5C961.8,380.4,955.6,395.5,952.2,405.5z M98.1,602.4c14.1-9-1-32.7,11.8-43.6c17.8-15.1,38.3-14,46.9-27.6c1.2-1.9,2.1-3.3,2.5-4.1c0.3-0.2,0.6-0.3,0.9-0.6c8.3,2.4,29.1-26.5,50.9-34c10.9-3.8,19.6,15.2,24,25.4l17.3-22.8l-9.4,3.5c-1.8-24-20.7-27.5-33.2-22c-22.5,9.9-29.2,33.7-44.8,43.6c3-5.8,4.5-15.3,3.5-26c-1.4-17-8.5-30.2-15.7-29.6c-6.3,0.6-10.7,11.6-10.7,25.8c-1.3-1-2.4-2-3.8-2.9c-18.2-12.1-38.8-13.2-46-2.4c-7.2,10.9,1.7,29.5,19.9,41.5c9.3,6.2,19.1,9.5,27.5,9.8c-16.8,3.3-37,0-49.8,11.7c-13.2,12.1-0.2,35.2-7.1,38.4L98.1,602.4z M154.3,482.8c4.6-0.4,9.1,8,10,18.8c0.8,8.3-0.9,15.5-3.8,18.6c0-7.8-4.6-17-12.8-25C148.4,488.1,150.9,483.1,154.3,482.8z M155.1,521.1c-3.3-2-6-8-7.1-15.7C152.9,510.6,155.4,516.3,155.1,521.1z M124.4,524.5c-11.5-7.7-17.2-19.5-12.6-26.4c4.6-6.9,17.7-6.2,29.3,1.5c0.7,0.5,1.2,0.9,1.9,1.4c1.8,11.7,6.2,20.9,11.2,23.9c-0.1,0.3-0.2,0.7-0.4,1c-0.6,0.8-1.2,1.5-2,2.1c0,0,0,0.1,0,0.1C145.8,532.5,134.6,531.2,124.4,524.5z M232.2,539l43.3,65.4l-38.3,25.4L194,564.4L232.2,539z M178.5,574.5l43.3,65.4l-38.3,25.4l-43.3-65.4L178.5,574.5z M134.1,598.9l-20.3-30.7l38.3-25.3l20.3,30.7L134.1,598.9z M213.3,502.3l20.3,30.6l-38.3,25.4L175,527.7L213.3,502.3z M289.2,263.7l1.9-1.6c3.7-3,6-6.7,5.2-8.3c-0.9-1.6-5.2-1.5-9.7,0l-2.3,0.8c-4.5,1.6-6.7,5.5-4.9,8.6l0,0.1C281,266.5,285.6,266.6,289.2,263.7z M292.2,282c3.6-2.3,8.1-20.3,6.3-23.4c-1.4,7.5-3.4,13.6-9.5,19C292.3,278.9,288.6,284.3,292.2,282z M332.8,259.1c3.9-1.9-2.6-1.4-2-5.1c-7.8,2.5-14.1,1-21.2-1.7C311.4,255.5,329,261,332.8,259.1z M316.5,247.9l2.3-0.8c4.4-1.6,6.6-5.5,4.9-8.6l-0.1-0.1c-1.7-3.1-6.2-3.2-9.9-0.2l-1.9,1.5c-3.8,3-6,6.8-5.2,8.4C307.6,249.6,312,249.6,316.5,247.9z M238.1,277.1l23.1-13c0.8,2.1,1.9,4.1,3.1,6l0.9,1.7c2.7,4.7,8.4,6.5,14.6,4.9c-1.3,1.3-2.9,2.6-4.5,4l-3.8,3.3l3.2,1.2l-15.8,8.9l45.4,37.4l21.5-12.1L301.3,276c1.6-5,2.5-10.1,2.6-14.7c0.5-0.2,1-0.4,1.5-0.7l2.4-1.4c0.5-0.2,1-0.6,1.4-1c3.9,2.4,8.8,4.2,13.9,5.6l24.3,43.4l21.6-12.1l-8.3-58.2l-15.8,8.9l0.6-3.3l-4.8,1.5c-2,0.6-4,1.3-5.8,1.8c1.7-1.6,2.9-3.4,3.8-5.3c1.4-3.3,1.3-6.7-0.5-9.9l-0.8-1.4c-1-2-2.2-4-3.5-5.7l23.1-13l-4.5-31.7l-38.1-24.3l-40,22.6l32.7,58.3c-2,3.3-3.7,6.7-4.7,9.5c-0.7,0.2-1.5,0.5-2.2,0.9l-2.3,1.3c-0.7,0.4-1.3,0.9-1.9,1.4c-2.9-0.6-6.7-1-10.6-1L252.5,189l-40.1,22.5l1,45.1L238.1,277.1z M267.6,253.4l4.1-1.4c6.9-2.5,21.1-1.9,25.4,0.2c0.2-1.2,0.9-2.2,2-2.9l2.4-1.4c1-0.6,2.3-0.6,3.5-0.1c0.4-4.7,7.2-17.2,13-21.8l3.4-2.8c6.5-5.2,10.4,3.7,13.5,9.2l0.1,0.2c3.1,5.4-0.8,12.3-8.7,15.1l-4.1,1.4c-3.4,1.3-6.7,2-9.6,2.1c9.2,1.5,17.4-0.9,28.5-4.4c-1.2,6.5,12.5,11.2,5.7,14.6c-6.1,2.9-28.6,0.4-38.4-8.3c-0.1,1.5-0.7,2.8-2,3.6l-2.4,1.3c-1.2,0.8-2.7,0.6-4.1-0.1c2.2,12.9-7.2,33.4-12.9,37.1c-6.4,4.1-3.4-10.1-9.5-12.4c8.7-7.6,15-13.4,18.6-21.9c-1.7,2.3-3.9,4.9-6.8,7.1l-3.3,2.7c-6.5,5.1-14.4,5.1-17.4-0.4l-0.1-0.2C265.4,264.3,259.8,256.3,267.6,253.4z"/></g><g></g><g></g><g></g><g></g><g></g><g></g><g></g><g></g><g></g><g></g><g></g><g></g><g></g><g></g><g></g></g>
</svg>