<?xml version="1.0" encoding="utf-8"?>
<!-- Svg Vector Icons : http://www.sfont.cn -->
<!DOCTYPE svg PUBLIC "-//W3C//DTD SVG 1.1//EN" "http://www.w3.org/Graphics/SVG/1.1/DTD/svg11.dtd">
<svg version="1.1" xmlns="http://www.w3.org/2000/svg" xmlns:xlink="http://www.w3.org/1999/xlink" x="0px" y="0px" viewBox="0 0 1000 1000" enable-background="new 0 0 1000 1000" xml:space="preserve">
<metadata> Svg Vector Icons : http://www.sfont.cn </metadata>
<g><path d="M976.9,882.4L815,720.5c54.7-73.9,87.1-165.6,87.1-264.7C902.3,209.7,702.4,10,456,10C209.7,10,10,209.7,10,455.8c0,246.3,199.7,445.8,446,445.8c98.9,0,190.3-32.2,264.3-86.6l161.9,161.9c17.5,17.5,45.7,17.5,63,0l31.5-31.5C994.4,928.1,994.4,899.7,976.9,882.4z M456,834.7c-209.3,0-379.1-169.8-379.1-379.1C76.9,246.2,246.7,76.5,456,76.5c209.4,0,379.1,169.8,379.1,379.1C835.1,665.2,665.4,834.7,456,834.7z"/></g>
</svg>