<?xml version="1.0" encoding="utf-8"?>
<!-- Svg Vector Icons : http://www.sfont.cn -->
<!DOCTYPE svg PUBLIC "-//W3C//DTD SVG 1.1//EN" "http://www.w3.org/Graphics/SVG/1.1/DTD/svg11.dtd">
<svg version="1.1" xmlns="http://www.w3.org/2000/svg" xmlns:xlink="http://www.w3.org/1999/xlink" x="0px" y="0px" viewBox="0 0 1000 1000" enable-background="new 0 0 1000 1000" xml:space="preserve">
<metadata> Svg Vector Icons : http://www.sfont.cn </metadata>
<g><g transform="translate(0.000000,512.000000) scale(0.100000,-0.100000)"><path d="M3039.6,4977.9c-21-24.9-212.5-340.7-423-704.3l-382.8-660.3l-78.5-373.2c-44-204.8-84.2-384.7-88-398.1c-5.7-15.3-166.5,82.3-463.2,283.3c-493.8,335-545.5,356-610.6,256.5c-32.5-47.9-28.7-76.6,65.1-702.4c55.5-357.9,105.3-658.4,112.9-666.1c9.6-7.7,193.3-67,409.6-132.1l394.3-120.6l114.8,36.4l114.8,36.4l-436.4,411.5c-461.3,434.5-486.2,467-403.9,541.7c72.7,67,111,42.1,459.4-289c185.7-178,403.9-384.7,484.2-459.4l147.4-137.8l233.5,67l233.5,67l796.2,1.9l798.1,1.9L4054,2193l-463.2,157l-390.5,382.8c-558.9,545.5-568.5,583.8-170.4,602.9c327.3,15.3,650.8-1.9,673.7-38.3c34.5-53.6,21.1-112.9-32.5-147.4c-44-28.7-91.9-34.4-287.1-32.5c-130.1,1.9-235.4-3.8-235.4-9.6c0-5.8,126.3-137.8,283.3-292.9l281.4-283.3l715.8-248.8c593.3-206.7,733.1-248.8,805.8-245l90,5.7L5043.6,3284c-155,681.4-287.1,1244.1-292.8,1251.8c-17.2,15.3-1604,484.2-1642.2,484.2C3093.2,5020,3060.7,5000.9,3039.6,4977.9z"/><path d="M5991,4233.3c-421.1-294.7-775.2-545.5-786.7-555.1c-13.4-11.5,36.4-264.1,164.6-824.9l185.7-809.6l141.6-5.7l143.6-5.8l256.5,174.2l256.5,172.3l223.9,424.9l224,426.8l-68.9,503.4c-51.7,371.3-65.1,511-49.8,535.9c28.7,44,147.4,53.6,179.9,15.3c28.7-36.4,151.2-851.7,151.2-1016.3c1.9-111-5.8-128.2-258.4-589.5l-260.3-474.7l-128.2-86.1l-126.3-84.2h367.5h365.6l40.2,120.6c78.5,245,480.4,1579.1,480.4,1600.1c0,32.5-572.3,928.3-624,974.2c-26.8,23-63.2,42.1-80.4,42.1C6770,4771.2,6412.1,4530,5991,4233.3z"/><path d="M8000.7,4017.1c-323.5-392.4-275.6-289-545.5-1175.2l-243.1-798.2l689-5.7c379-1.9,692.9,0,696.7,3.8c3.8,3.8,0,459.4-7.7,1012.5c-19.1,1144.6-1.9,1050.8-195.2,1121.6C8197.9,4246.7,8186.4,4242.9,8000.7,4017.1z"/><path d="M899.7,1567.1c-82.3-36.4-126.3-93.8-135.9-178c-5.7-40.2-65.1-1158-132.1-2484.4c-68.9-1326.4-137.8-2658.6-153.1-2961c-28.7-505.3-28.7-555,0-608.6c63.2-122.5-260.3-114.8,4528.6-114.8c4844.4,0,4459.6-11.5,4524.7,124.4c28.7,63.2,17.2,218.2-239.2,3081.6c-222,2484.4-273.7,3026.1-300.5,3066.3c-70.8,107.2,80.4,101.4-3072,101.4h-2915l-497.6-145.5c-273.7-78.5-511-145.5-526.4-147.4c-15.3,0-231.6,59.3-478.5,135.9C955.2,1603.5,970.6,1599.6,899.7,1567.1z M6287.7,1147.9c0-1.9-7.7-32.5-17.2-67s-28.7-141.6-40.2-239.2c-40.2-333,40.2-715.8,216.3-1025.9c143.5-254.6,488.1-574.2,717.8-669.9c34.5-15.3,61.3-32.5,61.3-42.1c0-7.7-55.5-70.8-124.4-139.7c-447.9-455.5-1089.1-576.1-1646.1-308.2c-375.1,181.8-689,547.4-832.6,972.3c-88,256.5-88,264.1-3.8,315.8c122.5,74.7,166.5,160.8,166.5,321.6c0,122.5-5.7,147.4-57.4,220.1c-84.2,120.6-199.1,174.2-346.4,166.5c-88-5.7-137.8-21-195.2-57.4c-93.8-63.2-176.1-218.2-176.1-329.2c1.9-151.2,107.2-302.4,252.7-363.7c53.6-23,72.7-44,82.3-91.9c95.7-482.3,415.3-966.6,813.5-1234.5c438.3-294.8,1001-354.1,1504.4-160.8c256.5,99.5,532.1,304.3,717.8,534l65.1,80.4l134-28.7c170.4-36.4,482.3-36.4,664.2-1.9c145.5,28.7,335,93.8,470.8,162.7l80.4,40.2v-51.7c0-30.6,17.2-229.7,36.4-446c21-216.3,34.4-396.2,30.6-400c-3.8-3.8-34.5,13.4-65.1,34.5c-166.5,118.7-480.4,212.5-710.1,212.5c-183.7,0-396.2-51.7-589.5-145.5c-141.7-68.9-204.8-112.9-325.4-233.5c-260.3-260.3-367.5-503.4-382.8-859.4c-11.5-264.1,24.9-442.1,134-662.2c101.4-202.9,340.7-447.9,541.7-553.2c482.3-250.7,1085.2-185.7,1475.7,162.7c57.4,51.7,103.4,86.1,103.4,76.6c0-7.6,13.4-153.1,28.7-321.6c15.3-168.4,28.7-317.7,28.7-329.2c0-19.1-220.1-24.9-1033.6-24.9c-968.5,0-1035.5,1.9-1045,34.4c-97.6,312-237.3,557-446,775.2c-241.2,252.7-522.5,417.2-853.6,501.5c-637.4,162.7-1280.5-15.3-1741.8-478.5c-199.1-199.1-361.7-465.1-442.1-721.6l-34.4-111H3365h-139.7v775.2c0,426.8,3.8,775.2,7.7,775.2c3.8,0,53.6-21,109.1-47.9c645-294.8,1395.3,271.8,1282.4,970.4c-72.7,461.3-446,782.8-911.1,784.8c-166.5,0-243.1-19.1-453.6-109.1c-32.5-13.4-34.4,49.8-34.4,1165.6v1179h1531.2C5598.6,1153.7,6287.7,1151.8,6287.7,1147.9z M8678.3,432.1l65.1-721.6l-65.1-55.5c-90-74.7-308.2-179.9-457.5-218.2c-122.5-30.6-490-44-532.1-17.2c-11.5,5.7-1.9,57.4,24.9,130.1c23,67,53.6,168.4,65.1,227.8c21.1,97.6,28.7,109.1,78.5,120.6c84.2,15.3,222,162.7,248.8,262.2c44,160.8-24.9,340.7-166.5,438.3c-78.5,53.6-237.3,72.7-338.8,38.3c-296.7-97.6-356-511-97.6-689l84.2-57.4L7549-245.4c-21.1-74.7-49.8-166.5-65.1-201c-24.9-59.3-30.6-63.2-74.7-45.9c-109.1,40.2-302.4,181.8-411.5,296.7c-135.9,147.4-231.6,312-290.9,507.2c-63.2,201-63.2,507.2-1.9,704.4l44,137.8h932.1h934L8678.3,432.1z M1517.9,979.5c176.1-53.6,325.4-103.3,331.1-109.1c15.3-15.3-65.1-4457.8-80.4-4473.1c-67-65.1-851.7-633.5-857.5-620.1c-3.8,11.5,3.8,202.9,15.3,424.9c63.2,1173.3,250.7,4811.8,250.7,4840.6c0,19.1,3.8,34.5,9.6,34.5C1192.6,1077.1,1341.9,1033.1,1517.9,979.5z M2785-1583.4v-2660.5l-262.2,212.4c-145.5,118.7-321.6,262.2-392.4,319.6l-130.2,103.4v252.6c0,624,78.5,4210.8,90,4224.2c13.4,11.5,633.5,201,681.4,206.7C2779.3,1077.1,2785-121,2785-1583.4z M3925.8-1560.4c172.3-88.1,264.1-239.2,266-434.5c0-202.9-91.9-352.2-269.9-442.1c-103.4-49.8-313.9-49.8-417.3,0c-178,89.9-269.9,239.2-269.9,442.1c1.9,225.8,130.2,398.1,354.1,470.8C3665.5-1499.1,3843.5-1518.3,3925.8-1560.4z M8456.3-1971.9c545.5-269.9,666.1-970.4,241.2-1397.2c-193.3-193.3-490-290.9-744.6-246.9c-377.1,67-664.2,356-727.3,731.2c-59.3,354.1,126.3,721.6,451.7,893.9c160.8,86.1,235.4,101.4,451.7,93.8C8299.3-1903,8329.9-1908.7,8456.3-1971.9z M5702-3474.4c287.1-99.5,520.6-271.8,690.9-511.1c70.8-99.5,181.8-310.1,181.8-344.5c0-5.7-585.7-9.6-1301.5-9.6c-937.9,0-1301.5,5.7-1301.5,21c0,49.8,124.4,275.6,212.5,384.7c134,170.3,287.1,290.9,486.2,388.5c231.6,112.9,386.6,145.5,652.7,135.9C5497.2-3415.1,5568-3428.5,5702-3474.4z M2233.8-4073.5l315.8-256.5l-352.2-5.7c-193.3-1.9-507.2-1.9-696.7,0l-344.5,5.7l350.3,262.2c195.2,147.4,363.7,260.3,380.9,256.5C1904.6-3815.1,2059.6-3933.8,2233.8-4073.5z"/></g></g>
</svg>