<?xml version="1.0" encoding="utf-8"?>
<!-- Svg Vector Icons : http://www.sfont.cn -->
<!DOCTYPE svg PUBLIC "-//W3C//DTD SVG 1.1//EN" "http://www.w3.org/Graphics/SVG/1.1/DTD/svg11.dtd">
<svg version="1.1" xmlns="http://www.w3.org/2000/svg" xmlns:xlink="http://www.w3.org/1999/xlink" x="0px" y="0px" viewBox="0 0 1000 1000" enable-background="new 0 0 1000 1000" xml:space="preserve">
<metadata> Svg Vector Icons : http://www.sfont.cn </metadata>
<g><g><g><path d="M374.2,217.1c52.1,0,94.5-60.5,94.5-112.6c0-52.2-42.3-94.5-94.5-94.5c-52.1,0-94.5,42.3-94.5,94.5C279.7,156.6,322,217.1,374.2,217.1z"/><path d="M882.4,451.6h-82.8c-1.6-44.7-25.8-82.7-59.9-98.9c0.4-16-9-31.1-24.9-36.4l-179.2-59.8c-8.7-3.1-91.1-31.8-161.3-31.8c-75.9,0-135.5,33.3-138,34.8c-1.3,0.7-2,1.9-3.1,2.7c-2.1,1.5-4,3.1-5.8,5c-1.8,1.9-3.1,3.9-4.4,6.1c-0.7,1.3-1.9,2.1-2.5,3.5L101,545.7c-8.4,18.9,0.1,40.9,19,49.3c4.9,2.2,10.1,3.2,15.2,3.2c14.3,0,28-8.3,34.2-22.2l100.3-225.8v221.7l-29.7,369.7c-2,24.7,16.4,46.3,41.1,48.3c1.2,0.1,2.4,0.1,3.6,0.1c23.1,0,42.7-17.8,44.6-41.2l26.9-334.1c5.6,2.5,11.6,3.9,18.1,3.9c6.4,0,12.5-1.4,18.1-3.9l26.9,334.1c1.9,23.5,21.5,41.2,44.6,41.2c1.2,0,2.4,0,3.6-0.1c24.7-2,43.1-23.6,41.1-48.3l-29.7-369.7V317c19,5.4,31.8,9.9,32.1,10c0.1,0.1,0.3,0,0.5,0.1c0.1,0.1,0.3,0.2,0.5,0.2l129.3,43.1c-20.4,19.6-33.8,48.4-35,81.1h-82.8c-10.9,0-19.9,9-19.9,19.9c0,11,5.4,19.9,12,19.9c6.6,0,13.7,8.8,15.9,19.6l28,140.4c2.2,10.8,12.9,19.6,23.9,19.6h239.4c11,0,21.7-8.8,23.9-19.6l28-140.4c2.2-10.8,9.3-19.6,15.9-19.6c6.6,0,12-9,12-19.9C902.3,460.6,893.4,451.6,882.4,451.6z M656.9,375.8l34.1,11.4c3.9,1.3,7.9,1.9,11.9,1.9c14.1,0,26.9-8.3,33.2-21.4c27.6,14.5,47,46.5,48.5,84H621.1C622.3,420.1,636.1,392.4,656.9,375.8z M651.3,631h-46.1v-46.1h46.1V631z M651.3,552.4h-46.1v-46h46.1V552.4z M725.9,631h-46.1v-46.1h46.1V631z M725.9,552.4h-46.1v-46h46.1V552.4z M800.4,631h-46.1v-46.1h46.1V631z M800.4,552.4h-46.1v-46h46.1V552.4z"/></g></g><g></g><g></g><g></g><g></g><g></g><g></g><g></g><g></g><g></g><g></g><g></g><g></g><g></g><g></g><g></g></g>
</svg>