<?xml version="1.0" encoding="utf-8"?>
<!-- Svg Vector Icons : http://www.sfont.cn -->
<!DOCTYPE svg PUBLIC "-//W3C//DTD SVG 1.1//EN" "http://www.w3.org/Graphics/SVG/1.1/DTD/svg11.dtd">
<svg version="1.1" xmlns="http://www.w3.org/2000/svg" xmlns:xlink="http://www.w3.org/1999/xlink" x="0px" y="0px" viewBox="0 0 1000 1000" enable-background="new 0 0 1000 1000" xml:space="preserve">
<metadata> Svg Vector Icons : http://www.sfont.cn </metadata>
<g><g><g><path d="M846.5,21.4C832.3,13.8,818.1,10,804.4,10c-52.1,0-91.5,54.6-102.2,106c-3.9,18.8-9.8,33.7-17,46.5c10.2-0.9,20.4-1.5,30.7-1.5c19.2,0,37.9,1.8,55.8,5.2c-0.7-4.2-1.6-8.8-2.7-13.8c-2.6-11.9-5.3-24.3-4-35.8c2.5-23.1,18.8-38.6,40.5-38.6c7.8,0,15.7,2,23.5,5.9c37,18.7,60.7,76.2,69.8,119.8c2.3,11.2,3.9,22,4.7,32.3c22.2,23.8,36.5,49.9,44,77.5c14.8-37.1,14.4-75.6,9.9-105.5C944.4,122.1,889.8,44.3,846.5,21.4z"/><path d="M940,444.5c-0.9,2.6-1.8,5.2-2.8,7.7c-20.9,57-59.5,112.9-106.6,160c-49.3,49.3-105,85.9-159.3,105.9c-2.5,0.9-4.9,1.8-7.4,2.6c-2.5,0.9-4.9,1.7-7.4,2.5c1,6.5,3.2,11.8,6.8,15.4c4.6,4.6,11,6.9,19,6.9c34.5,0,102.9-45.2,170.2-112.5c38.3-38.3,70.6-78.2,90.9-112.4c22.6-38.1,27.6-64,14.7-76.9c-3.8-3.8-9.1-6.2-15.7-7.3C941.6,439.3,940.8,441.9,940,444.5z"/><path d="M395.7,489.4c-2.8,2.7-5.2,5.3-7.2,7.6c-0.4,0.5-0.8,0.9-1.2,1.4c-2.4,2.8-5,5.5-7.8,8c-8.1,7.2-17.5,12.1-27.8,11c-23.8-2.5-47.5-9.7-73.9,1.7c-19.4,8.4-39.9,33.9-50.8,48.6c-10.9,14.7-8.4,14.7,9.9,7.9c9.5-3.5,21.2-5.9,34.7-5.1c40.7,2.3,125.6,50.2,136.8,53.9c0.1,0,0.2,0,0.3,0.1c3.2,1,6.7,1.8,10.3,2.4c3.7,0.6,7.7,1,11.8,1.3c8.4,13.3,18.2,25.7,29.4,36.9c33.8,33.8,74.8,47.3,121.9,47.3h0c23.9,0,49.2-4.3,75.1-12.5c2.8-0.9,5.6-1.8,8.3-2.8c2.9-1,5.8-2.1,8.7-3.2c49.3-18.8,99.8-51.5,144.9-96.6c42.7-42.7,78.2-92.5,98.9-143.4c1.2-2.9,2.3-5.8,3.4-8.7c1-2.8,2-5.5,3-8.3c8.5-25.1,13.2-50.2,13.3-74.8c0-4.4-0.1-8.7-0.4-13.1c-0.3-4.3-0.7-8.6-1.3-12.8c-3.9-27.1-14.1-53.1-32.2-76.8c-2.5-3.3-5.2-6.6-8-9.8c-2.6-3-5.4-6-8.3-8.9c-0.2-0.2-0.4-0.4-0.6-0.6c-26.4-26.4-60.2-44.5-98.8-54.4c-2.5-0.6-5.2-1.1-7.8-1.6c-2.7-0.6-5.4-1.2-8.2-1.7c-18-3.4-36.8-5.4-56.3-5.4c-14,0-28.2,1.3-42.2,3.2c-4,0.5-7.9,1.1-11.9,1.8c-4.2,0.7-8.4,1.3-12.5,2.2c-13.7,2.9-27.2,6.8-40.5,11.4c-1-2.3-1.5-5.1-1.7-8.3c-0.2-2.6-0.1-5.4,0.3-8.6c0.4-2.8,0.9-5.7,1.8-9c7.1-26.6-55.7-5.2-86.8,25.9L409.6,308.4c-31.1,31.1-49.2,77.6-29.8,97c0,0,5.8-2.6,13.3-3.5c2.7-0.3,5.6-0.3,8.5,0c2.6,0.3,5.2,1,7.6,2.2c-6.2,21.2-10.7,43.1-12.7,65.4C396,476.3,395.9,482.9,395.7,489.4z"/><path d="M485.6,208.6c-23.7-23.7-43.9-14.8-61.8,3.1c-17.9,17.9-26.8,38-3.1,61.8L485.6,208.6z"/><path d="M65.4,955.5c4.5,19.3,41,34.5,85.9,34.5c44.5,0,80.8-14.9,85.8-34h0.4l0.3-3.2c0-0.4,0.3-0.8,0.3-1.2c0-0.2-0.1-0.3-0.1-0.5l18.5-178.3c-24.2,13.1-65.8,20.1-107.2,20.1h-1.7c-32.5,0-63.5-3.7-87.3-11.2c-9.5-3-16.8-6.5-22.6-10.1l27.2,184H65.4z"/><path d="M34.9,744.7c0,2.6,3.1,6.5,9.3,10.6c4.9,3.2,11.8,6.6,21,9.5c22,7,52,11.9,82.5,11.9h1.6c57.6,0,98.5-12.5,109.2-23.4c1.8-1.9,2.9-3.7,2.9-5.4c0-4.7-9.6-15.3-30.6-21.9c-22.1-6.9-52.3-13.7-82.8-13.7h0C79.4,712.4,34.9,733,34.9,744.7z"/><path d="M85.3,686c12.6,17.3,41.7,0.6,29-16.9c-11.6-15.9-6-29.9-2.1-47.6c4.2-18.8,2.1-35.8-6.2-53.1c-9.5-19.5-38.4-2.4-29,16.9c8.2,16.8,0.9,33.4-2.3,50.5C71.2,654,74.4,671,85.3,686z"/><path d="M152.4,686c12.6,17.3,41.7,0.6,29-16.9c-11.6-15.9-6-29.9-2.1-47.6c4.2-18.8,2.1-35.8-6.2-53.1c-9.5-19.5-38.4-2.4-29,16.9c8.2,16.8,0.9,33.4-2.3,50.5C138.3,654,141.6,671,152.4,686z"/></g></g><g></g><g></g><g></g><g></g><g></g><g></g><g></g><g></g><g></g><g></g><g></g><g></g><g></g><g></g><g></g></g>
</svg>