<?xml version="1.0" encoding="utf-8"?>
<!-- Svg Vector Icons : http://www.sfont.cn -->
<!DOCTYPE svg PUBLIC "-//W3C//DTD SVG 1.1//EN" "http://www.w3.org/Graphics/SVG/1.1/DTD/svg11.dtd">
<svg version="1.1" xmlns="http://www.w3.org/2000/svg" xmlns:xlink="http://www.w3.org/1999/xlink" x="0px" y="0px" viewBox="0 0 1000 1000" enable-background="new 0 0 1000 1000" xml:space="preserve">
<metadata> Svg Vector Icons : http://www.sfont.cn </metadata>
<g><g transform="translate(0.000000,511.000000) scale(0.100000,-0.100000)"><path d="M4906.4,4257.1c-156.8-106-209.8-273.4-127.2-409.1l40.3-67.8l-122.9-44.5c-129.3-46.6-345.5-180.2-413.3-254.3l-38.1-44.5h820.3h820.3l-74.2,63.6c-101.8,89-296.7,203.5-415.4,243.7l-99.6,33.9l38.2,76.3c23.3,44.5,40.3,108.1,40.3,146.2c0,137.8-173.8,305.2-317.9,305.2C5010.3,4305.9,4948.8,4286.8,4906.4,4257.1z"/><path d="M7568.5,3595.8c-220.4-48.7-922-328.5-1288.7-512.9l-101.7-50.9l-61.5,44.5c-33.9,23.3-101.7,61.5-152.6,84.8c-84.8,38.1-142,42.4-890.2,42.4c-727,0-809.6-4.2-902.9-38.1c-127.2-48.8-250.1-133.5-419.7-286.1l-127.2-116.6l-328.5,125c-178,67.8-370.9,139.9-426,159l-101.7,33.9L2460.5,2801c-169.6-154.7-307.3-286.1-307.3-294.6c0-6.4,154.7-80.5,343.4-161.1c190.8-80.5,394.2-167.4,453.6-192.9l108.1-48.7l-195-390C2532.6,1052.4,2399,571.3,2401.2,45.6c2.1-307.3,44.5-527.8,139.9-720.6l46.6-95.4h2416.2h2416.3l46.6,95.4c139.9,281.9,182.3,788.5,103.8,1208.1c-86.9,449.3-339.1,1072.5-627.4,1547.2c-103.9,171.7-108.1,186.5-95.4,286.1c19.1,159,114.5,313.7,226.8,366.7c112.3,55.1,332.8,93.3,470.5,84.8l103.8-6.4l515-837.2c284-459.9,540.5-858.4,570.2-883.8c120.8-108.1,402.7-110.2,667.6-8.5c226.8,89,262.8-19.1-366.7,1076.7c-307.3,534.1-580.8,1013.1-606.2,1061.9c-59.3,114.5-205.6,262.8-313.7,317.9c-89,46.6-273.4,89-362.4,86.9C7721.1,3625.5,7638.5,3610.7,7568.5,3595.8z"/><path d="M2350.3-1115.9c-188.6-65.7-354-226.8-409.1-398.5l-25.4-72.1h-462.1c-343.4,0-464.2,6.3-470.5,25.4c-8.5,21.2-38.1,21.2-144.1,0c-532-97.5-856.3-623.1-699.4-1131.8c78.4-254.4,284-474.8,536.2-574.4c89-36,171.7-44.5,434.5-53l322.2-8.5v-275.5c0-203.5,8.5-290.4,31.8-334.9c36-67.8,129.3-127.2,201.4-127.2c72.1,0,165.3,59.4,201.4,127.2c23.3,44.5,31.8,131.4,31.8,328.5v264.9h3105.1H8109v-275.5c0-309.4,21.2-379.4,127.2-434.5c78.4-40.3,133.5-40.3,212,0c106,55.1,127.2,125.1,127.2,419.6v264.9l324.3,8.5c260.7,8.5,343.4,17,432.4,53c156.8,63.6,311.6,182.3,409.1,317.9c116.6,165.3,159,298.8,159,515c0,118.7-12.7,218.3-38.1,290.4c-89,252.2-322.2,476.9-582.9,557.4c-120.8,38.1-197.1,42.4-661.3,42.4h-523.5l-36,93.3c-50.9,135.6-184.4,275.5-326.4,345.5l-120.8,59.3l-2575.2,4.2C2606.7-1079.8,2454.1-1082,2350.3-1115.9z M1263-1917.1c222.5-65.7,402.7-315.8,402.7-559.6c0-317.9-275.5-593.5-593.5-593.5c-317.9,0-593.5,275.5-593.5,593.5c0,315.8,267.1,587.1,585,591.3C1110.4-1883.1,1199.4-1898,1263-1917.1z M5162.9-1917.1c222.5-65.7,402.7-315.8,402.7-559.6c0-317.9-275.5-593.5-593.5-593.5s-593.5,275.5-593.5,593.5c0,315.8,267.1,587.1,585,591.3C5010.3-1883.1,5099.3-1898,5162.9-1917.1z M7687.2-2347.3c42.4-42.4,61.5-82.7,61.5-129.3c0-91.1-99.6-190.8-190.8-190.8c-91.1,0-190.8,99.6-190.8,190.8c0,46.6,19.1,86.9,61.5,129.3C7513.4-2264.6,7602.4-2264.6,7687.2-2347.3z M9064.9-2347.3c42.4-42.4,61.5-82.7,61.5-129.3c0-91.1-99.6-190.8-190.8-190.8c-91.1,0-190.8,99.6-190.8,190.8c0,46.6,19.1,86.9,61.5,129.3C8891.1-2264.6,8980.1-2264.6,9064.9-2347.3z"/><path d="M945-2237.1c-201.4-103.8-184.4-409.1,27.5-491.7c222.5-84.8,436.6,129.3,351.8,351.8C1267.2-2228.6,1089.2-2162.9,945-2237.1z"/><path d="M4923.4-2090.8c-67.8-74.2-120.8-224.7-120.8-347.6c0-103.8,6.4-125,55.1-163.2c76.3-59.4,167.4-57.2,231,8.5c42.4,42.4,53,72.1,53,163.2c-2.1,144.1-106,377.3-169.6,377.3C4963.6-2052.7,4942.5-2069.6,4923.4-2090.8z"/></g></g>
</svg>