<?xml version="1.0" encoding="utf-8"?>
<!-- Svg Vector Icons : http://www.sfont.cn -->
<!DOCTYPE svg PUBLIC "-//W3C//DTD SVG 1.1//EN" "http://www.w3.org/Graphics/SVG/1.1/DTD/svg11.dtd">
<svg version="1.1" xmlns="http://www.w3.org/2000/svg" xmlns:xlink="http://www.w3.org/1999/xlink" x="0px" y="0px" viewBox="0 0 1000 1000" enable-background="new 0 0 1000 1000" xml:space="preserve">
<metadata> Svg Vector Icons : http://www.sfont.cn </metadata>
<g><g transform="translate(0.000000,511.000000) scale(0.100000,-0.100000)"><path d="M429.8,3973.1c-76.6-34.5-122.6-99.6-122.6-174.3c0-30.6,36.4-130.2,80.4-218.3c68.9-134.1,82.3-180,88.1-298.8c9.6-166.6-21.1-245.1-162.8-434.7c-178.1-231.7-233.6-484.5-170.4-769.9c38.3-172.4,164.7-434.7,235.6-490.3c91.9-72.8,262.4-36.4,308.3,67c36.4,80.4,28.7,124.5-67,310.2c-80.4,160.9-88.1,187.7-90,316c0,157,19.2,206.8,155.1,388.8c116.8,155.1,157,239.4,191.5,400.2c47.9,229.8,0,482.6-139.8,735.4C642.4,3973.1,546.6,4024.8,429.8,3973.1z"/><path d="M4694.7,3151.5c-49.8-28.7-95.8-99.6-97.7-147.5c0-24.9-47.9-34.5-243.2-53.6c-716.2-68.9-1246.7-298.7-1543.6-666.5c-95.8-120.6-97.7-122.6-191.5-122.6c-122.6,0-214.5-44-250.9-124.5c-38.3-78.5-38.3-93.8,0-174.3c19.2-42.1,55.5-74.7,105.3-97.7l72.8-32.5l-90-59.4c-233.6-159-434.7-390.7-561.1-653c-95.8-195.3-143.6-388.8-160.9-635.8c-9.6-128.3-23-195.3-36.4-195.3c-97.7,0-367.7,266.2-643.5,635.8c-99.6,132.1-206.8,258.5-239.4,277.7c-47.9,28.7-99.6,34.5-296.8,34.5c-388.8,0-434.7-40.2-413.7-371.5c86.2-1332.9,655-2242.6,1503.3-2403.4l122.6-23l34.5-168.5c59.4-293,155.1-496,354.3-741.1c84.3-107.2,233.6-233.6,455.8-386.8c34.5-24.9,24.9-46-197.3-413.7c-128.3-214.5-229.8-392.6-226-396.4c3.8-3.8,1196.9-5.8,2652.4-3.8l2642.8,5.7l-201.1,335.1c-111.1,183.8-216.4,362-237.5,394.5l-36.4,59.4l118.7,72.8c250.9,155.1,499.8,440.5,626.2,722c51.7,113,67,128.3,243.2,245.1c476.9,314.1,892.4,655,1252.5,1028.4c532.4,549.6,758.4,1051.4,668.4,1484.2c-40.2,197.3-126.4,335.1-333.2,543.9c-212.6,214.5-398.3,327.5-624.3,381.1c-356.2,82.3-775.6-7.7-1149.1-249c-72.8-47.9-139.8-86.2-147.5-86.2c-7.7,0-34.5,36.4-61.3,78.5c-68.9,111.1-281.5,325.6-407.9,409.8c-103.4,68.9-122.6,105.3-59.4,105.3c17.2,0,55.5,24.9,86.2,55.5c42.1,42.1,55.5,74.7,55.5,130.2c0,136-103.4,216.4-281.5,216.4c-88.1,0-95.8,3.8-178.1,109.2c-210.7,266.2-557.3,469.2-1005.4,586c-187.7,49.8-576.4,109.2-710.5,109.2c-51.7,0-65.1,7.7-65.1,38.3c0,21.1-23,65.1-51.7,95.8C4884.3,3170.7,4767.5,3193.6,4694.7,3151.5z M5410.9,2517.6c340.9-57.5,685.6-185.8,852.2-317.9c47.9-36.4,42.1-38.3-1474.6-38.3H3266l47.9,40.2c80.4,65.1,327.5,181.9,488.3,233.6c136,42.1,413.7,93.8,632,116.8C4598.9,2569.3,5244.3,2546.4,5410.9,2517.6z M6627,1611.8v-111.1l174.3-105.3c187.7-113,390.7-308.3,480.7-461.5c28.7-47.9,76.6-157,105.3-239.4l53.6-151.3l5.7-1084c5.7-1223.7,3.8-1252.5-128.3-1522.5c-139.8-279.6-394.5-507.5-695.2-616.7l-139.8-51.7l-1627.8-5.7c-1815.5-5.7-1775.3-7.7-2045.3,124.5c-197.3,97.7-440.5,344.7-536.2,542c-130.2,266.2-128.3,252.8-128.3,1465c0,1221.8-1.9,1198.9,134.1,1478.5c99.6,203,273.9,383,503.7,520.9l166.6,99.6V1608v113h1838.5H6627V1611.8z M8838.9,1096.6c155.1-38.3,262.4-105.3,417.5-252.8c312.2-302.6,314.1-587.9,1.9-1061c-235.6-356.2-771.8-859.9-1342.5-1258.2l-63.2-42.1v160.9v160.9l120.7,72.8c252.8,155.1,528.6,369.6,723.9,565c170.4,170.4,216.4,229.8,283.4,365.8c97.7,197.2,118.7,339,70.8,497.9c-84.2,296.8-340.9,455.8-639.6,398.3c-124.5-23-352.4-124.5-482.6-214.5l-67-47.9l-32.6,157l-32.6,155.1l65.1,57.5c134.1,120.6,413.7,260.5,589.8,296.8C8582.3,1133,8718.3,1129.2,8838.9,1096.6z M784.1,506.8c201.1-268.1,406-488.4,547.7-586c109.2-74.7,285.3-151.3,350.5-153.2h42.1v-507.5v-507.5l-51.7,11.5c-360,86.2-645.4,331.3-844.5,725.8C701.7-259.3,598.3,102.7,546.6,466.6c-38.3,264.3-38.3,277.7,15.3,277.7C596.4,744.3,646.2,690.6,784.1,506.8z M8632.1,254c78.5-120.6,7.6-289.2-214.5-517.1c-84.3-86.2-243.2-222.1-354.3-304.5L7862.2-717l-5.7,302.6l-5.7,302.6l53.6,55.5c88.1,91.9,296.8,239.4,429,300.7C8490.4,321,8586.1,322.9,8632.1,254z M3426.9-3218.1c-30.6-30.6-55.5-74.7-55.5-95.8c0-38.3-9.6-40.2-249-40.2c-136,0-249,3.8-249,9.6c0,3.8,23,47.9,51.7,95.8l53.6,86.2h252.8h250.9L3426.9-3218.1z M4256.1-3210.4c-30.6-26.8-63.2-68.9-68.9-95.8c-11.5-47.9-15.3-47.9-210.7-47.9c-197.3,0-199.2,0-210.7,49.8c-7.7,26.8-36.4,70.9-63.2,95.8l-49.8,46h329.4h331.3L4256.1-3210.4z M5070-3208.5c-26.8-24.9-55.5-68.9-63.2-95.8l-11.5-51.7l-204.9,5.7c-193.4,5.7-203,7.6-208.7,47.9c-3.8,23-32.6,65.1-63.2,91.9l-59.4,47.9h331.3h329.4L5070-3208.5z M5878.2-3218.1c-30.7-30.6-55.5-74.7-55.5-95.8c0-38.3-9.6-40.2-210.7-40.2s-210.7,1.9-210.7,40.2c0,21.1-24.9,65.1-55.5,95.8l-55.5,55.5H5612h321.7L5878.2-3218.1z M6651.9-3233.4c24.9-40.2,51.7-84.3,59.4-95.8c11.5-19.2-40.2-24.9-233.6-24.9h-249l-11.5,49.8c-7.6,26.8-36.4,70.9-63.2,95.8l-49.8,46h250.9h252.8L6651.9-3233.4z"/></g></g>
</svg>