<?xml version="1.0" encoding="utf-8"?>
<!-- Svg Vector Icons : http://www.sfont.cn -->
<!DOCTYPE svg PUBLIC "-//W3C//DTD SVG 1.1//EN" "http://www.w3.org/Graphics/SVG/1.1/DTD/svg11.dtd">
<svg version="1.1" xmlns="http://www.w3.org/2000/svg" xmlns:xlink="http://www.w3.org/1999/xlink" x="0px" y="0px" viewBox="0 0 1000 1000" enable-background="new 0 0 1000 1000" xml:space="preserve">
<metadata> Svg Vector Icons : http://www.sfont.cn </metadata>
<g><g transform="translate(0.000000,511.000000) scale(0.100000,-0.100000)"><path d="M5622.6,4657.3c-42.6-5.3-194.2-23.9-332.5-39.9c-814-90.4-1484.3-356.4-1883.3-750.1c-603.8-590.5-665-1447.1-175.6-2463.2l143.6-300.6V654V204.4h93.1c50.5,0,93.1-5.3,93.1-10.6c0-8-58.5-90.4-130.3-186.2c-71.8-95.8-175.6-252.7-228.8-348.5c-53.2-95.8-103.7-172.9-109.1-172.9c-8,0-47.9,16-87.8,37.3c-138.3,74.5-367.1,356.4-651.7,811.3c-156.9,250-340.5,529.3-407,619.8c-266,361.8-587.9,601.2-893.8,662.4c-234.1,47.9-300.6-2.7-654.4-484.1C63.1,672.6,41.9,606.1,180.2,467.8c74.5-71.8,87.8-74.5,297.9-71.8c231.4,5.3,300.6-16,417.6-122.4c106.4-93.1,133-180.9,178.2-537.3c149-1242.3,399-1995,800.7-2428.7c247.4-268.7,486.8-385.7,848.5-422.9l178.2-18.6l74.5-199.5c93.1-255.4,242.1-550.6,388.4-771.4c162.3-239.4,172.9-252.7,268.7-300.6c77.1-42.6,319.2-45.2,2700-45.2h2614.8l103.8,69.1c170.2,117.1,619.8,1080,779.4,1673.2c61.2,236.8,69.2,313.9,69.2,691.6c0,351.1-8,462.9-55.8,630.4c-125,457.5-348.5,896.4-667.7,1311.4l-164.9,212.8l95.8,8l93.1,8v478.8v476.1l90.5,133c172.9,252.7,329.8,643.7,385.7,968.3c66.5,361.8,10.6,750.1-157,1093.3c-351.1,726.2-1186.4,1186.4-2407.3,1330C6801,4668,5859.4,4683.9,5622.6,4657.3z M7338.4,4154.6c923-170.2,1516.2-518.7,1782.2-1050.7c242.1-476.1,146.3-1119.9-244.7-1686.5l-114.4-162.3l-13.3-407l-13.3-409.7l-66.5,71.8c-143.7,154.3-29.2,146.3-2354.1,146.3C4000,656.6,4090.4,662,3914.9,513l-82.5-69.2l-13.3,404.3l-10.6,407l-130.3,252.7c-736.8,1412.5-223.4,2356.8,1428.4,2630.8c468.2,77.1,468.2,77.1,1260.9,69.2C6915.4,4202.5,7146.8,4191.8,7338.4,4154.6z M1212.3,1068.9c167.6-111.7,335.2-311.2,563.9-665C2404-569.6,2539.6-737.3,2803-864.9c98.4-47.9,119.7-71.8,111.7-114.4c-8-29.2-39.9-167.6-74.5-305.9c-55.9-223.5-63.8-319.2-63.8-822v-566.6l-114.4,16c-582.6,79.8-952.3,872.5-1146.5,2463.2c-42.6,340.5-61.2,412.3-135.7,555.9c-133,247.4-308.6,383-606.5,470.8c-47.9,13.3,196.8,329.8,255.4,329.8C1055.3,1162,1137.8,1119.5,1212.3,1068.9z M8471.6,66.1C8905.2-386.1,9211.1-870.2,9376-1365c69.2-210.2,74.5-255.4,77.1-651.7c0-367.1-8-454.9-61.2-638.4c-82.5-279.3-183.6-534.7-396.4-978.9L8820-3998.4H6327.6H3835.1l-79.8,114.4c-218.1,308.6-391,718.2-486.8,1149.1c-69.2,311.2-85.1,899.1-29.3,1183.7c117,627.8,380.4,1149.2,779.4,1550.8l204.8,204.8h2056.3h2058.9L8471.6,66.1z"/><path d="M6114.8,2760.7c-226.1-69.2-388.4-210.1-481.5-415c-66.5-146.3-66.5-441.6,0-590.5c50.5-106.4,250.1-327.2,297.9-327.2c13.3,0,24-10.6,24-23.9c0-13.3-297.9-23.9-696.9-23.9c-385.7,0-739.5,0-784.7-2.7l-87.8-2.7V1162V949.2h1902h1901.9V1162v212.8l-164.9,2.7c-93.1,0-446.9,2.7-784.7,2.7c-569.3,2.7-704.9,16-566.6,61.2c90.4,29.3,263.3,252.7,305.9,393.7c53.2,180.9,50.6,308.6-13.3,481.5C6840.9,2643.7,6434,2856.5,6114.8,2760.7z M6431.3,2295.2c212.8-111.7,154.3-462.8-87.8-510.7c-180.9-31.9-364.4,156.9-321.9,329.8C6066.9,2292.6,6266.4,2380.3,6431.3,2295.2z"/><path d="M4422.9-359.5c-175.6-119.7-359.1-356.4-502.8-646.4c-138.3-282-199.5-505.4-199.5-728.9V-1897h119.7c66.5,0,159.6,16,207.5,37.3c82.5,31.9,90.4,50.5,122.4,218.1c45.2,255.4,236.7,643.7,404.3,816.6c167.6,172.9,210.1,303.3,149,452.2C4670.3-247.8,4598.5-242.5,4422.9-359.5z"/></g></g>
</svg>