<?xml version="1.0" encoding="utf-8"?>
<!-- Svg Vector Icons : http://www.sfont.cn -->
<!DOCTYPE svg PUBLIC "-//W3C//DTD SVG 1.1//EN" "http://www.w3.org/Graphics/SVG/1.1/DTD/svg11.dtd">
<svg version="1.1" xmlns="http://www.w3.org/2000/svg" xmlns:xlink="http://www.w3.org/1999/xlink" x="0px" y="0px" viewBox="0 0 1000 1000" enable-background="new 0 0 1000 1000" xml:space="preserve">
<metadata> Svg Vector Icons : http://www.sfont.cn </metadata>
<g><path d="M500,971c-122,0-236.6-47.5-322.9-133.7C90.9,751,43.4,636.4,43.4,514.4c0-122,47.5-236.6,133.7-322.9C263.4,105.3,378,57.8,500,57.8c122,0,236.6,47.5,322.9,133.7c86.2,86.2,133.7,200.9,133.7,322.9c0,122-47.5,236.6-133.7,322.9C736.6,923.5,622,971,500,971z M500,132c-210.9,0-382.4,171.6-382.4,382.4c0,210.9,171.6,382.4,382.4,382.4c210.9,0,382.4-171.6,382.4-382.4S710.9,132,500,132z"/><path d="M324.6,32.7C299.3,18.2,270.1,10,238.9,10C143.3,10,65.9,87.5,65.9,183.1c0,15.3,2,30.2,5.7,44.3C132.4,138.1,220.8,69.1,324.6,32.7L324.6,32.7z"/><path d="M674.1,32.7C699.4,18.2,728.6,10,759.8,10c95.6,0,173.1,77.5,173.1,173.1c0,15.3-2,30.2-5.7,44.3C866.3,138.1,777.9,69.1,674.1,32.7L674.1,32.7z"/><path d="M188.3,990c-10.7,0-21.3-4.6-28.7-13.5c-13-15.8-10.7-39.2,5.1-52.2l93-76.4c15.8-13,39.2-10.7,52.2,5.1c13,15.8,10.7,39.2-5.1,52.2l-93,76.4C205,987.2,196.6,990,188.3,990L188.3,990z"/><path d="M862.8,990c-8.3,0-16.6-2.8-23.5-8.4l-93-76.4c-15.8-13-18.1-36.4-5.1-52.2c13-15.8,36.4-18.1,52.2-5.1l93,76.4c15.8,13,18.1,36.4,5.1,52.2C884.1,985.4,873.5,990,862.8,990L862.8,990z"/><path d="M216.1,599.3V459.7h-16.2c-12.3-0.7-18.8-7.2-19.5-19.5c0.7-11.5,7.2-17.7,19.5-18.4h39c11.5,0.7,17.7,7.2,18.4,19.5v158.1c-0.7,13-7.6,19.5-20.6,19.5C223.7,618.8,216.9,612.3,216.1,599.3L216.1,599.3z"/><path d="M350.4,582h49.8c14.4,0,21.7,6.1,21.7,18.4c0,11.6-6.5,17.7-19.5,18.4h-93.1c-13.7,0-20.6-6.1-20.6-18.4c0-4.3,1.8-9,5.4-14.1c3.6-4.3,9.4-10.8,17.3-19.5c23.8-26,41.1-46.9,52-62.8c6.5-9.4,9.7-18,9.7-26c-1.5-13-7.9-20.2-19.5-21.7c-11.6,0-19.9,7.9-24.9,23.8c-4.3,13.7-10.5,20.6-18.4,20.6c-13-0.7-19.9-7.2-20.6-19.5c4.3-37.5,26-58.5,65-62.8c39,2.2,59.6,21.3,61.7,57.4c0,19.5-16.2,48-48.7,85.5C359.8,570.8,354,577.7,350.4,582L350.4,582z"/><path d="M448.9,511.6c1.4-13,8.7-20.2,21.7-21.7c13,1.5,20.2,8.7,21.7,21.7c-1.5,13-8.7,20.2-21.7,21.7C457.6,531.8,450.4,524.6,448.9,511.6z M448.9,600.4c1.4-13,8.7-20.2,21.7-21.7c13,1.5,20.2,8.7,21.7,21.7c-0.7,12.3-8,18.8-21.7,19.5C456.9,619.2,449.7,612.7,448.9,600.4z"/><path d="M586.5,619.9c-46.2-0.7-70.4-33.9-72.6-99.6c2.9-66.4,27.1-100.3,72.6-101.8c46.9,1.5,71.5,35.4,73.6,101.8C657.9,586,633.4,619.2,586.5,619.9z M586.5,584.2c20.2,0,30.3-21.3,30.3-63.9c0.7-43.3-9.4-65-30.3-65c-20.2,0-30,21.7-29.2,65C557.2,562.9,567,584.2,586.5,584.2z"/><path d="M744.6,619.9c-46.2-0.7-70.4-33.9-72.5-99.6c2.9-66.4,27.1-100.3,72.5-101.8c46.9,1.5,71.5,35.4,73.6,101.8C816,586,791.5,619.2,744.6,619.9z M744.6,584.2c20.2,0,30.3-21.3,30.3-63.9c0.7-43.3-9.4-65-30.3-65c-20.2,0-30,21.7-29.2,65C715.3,562.9,725.1,584.2,744.6,584.2z"/></g>
</svg>