<?xml version="1.0" encoding="utf-8"?>
<!-- Svg Vector Icons : http://www.sfont.cn -->
<!DOCTYPE svg PUBLIC "-//W3C//DTD SVG 1.1//EN" "http://www.w3.org/Graphics/SVG/1.1/DTD/svg11.dtd">
<svg version="1.1" xmlns="http://www.w3.org/2000/svg" xmlns:xlink="http://www.w3.org/1999/xlink" x="0px" y="0px" viewBox="0 0 1000 1000" enable-background="new 0 0 1000 1000" xml:space="preserve">
<metadata> Svg Vector Icons : http://www.sfont.cn </metadata>
<g><g transform="translate(0.000000,511.000000) scale(0.100000,-0.100000)"><path d="M161.5,3040.3l-54.9-47.1L100.7,564c-2-1335.2,0-2446.9,5.9-2472.4c5.9-23.5,27.4-60.8,49-82.4c35.3-35.3,66.7-39.2,280.4-39.2h239.2l35.3-115.7c107.8-347,456.8-645,823.5-709.7c319.6-54.9,674.5,80.4,911.7,347c100,109.8,203.9,301.9,229.4,415.7l13.7,62.8h2105.7h2105.7l11.8-52.9c52.9-217.6,227.5-460.7,433.3-599.9c317.6-217.6,670.5-241.2,1007.8-70.6c235.3,117.6,464.7,390.2,537.2,633.3l23.5,80.4l458.8,9.8c252.9,5.9,460.8,13.7,462.7,15.7c2,2,17.6,29.4,35.3,62.7c25.5,49,29.4,203.9,29.4,1101.9v1045l-421.5,1147c-245.1,672.5-433.3,1156.8-454.9,1170.5c-25.5,19.6-288.2,25.5-1196,25.5H6664.9v223.5c0,190.2-5.9,229.4-37.3,268.6l-37.2,47.1l-3186,5.9l-3188,3.9L161.5,3040.3z M6351.2,1313V-147.7l-2964.5,3.9l-2966.4,5.9l-5.9,1431.3c-2,788.2,0,1443,5.9,1456.8c5.9,17.7,619.6,23.5,2970.4,23.5h2960.6V1313z M9166.7,1283.6c188.2-511.7,341.2-933.3,341.2-937.2c0-2-637.2-2-1415.6,0l-1417.5,5.9l-5.9,937.2l-3.9,935.2l1080.3-3.9l1080.3-5.9L9166.7,1283.6z M9586.3-843.7v-872.5h-331.3h-331.3l-13.7,80.4c-21.6,123.5-154.9,372.5-260.8,482.3c-419.6,437.2-1031.3,449-1454.8,25.5c-141.2-141.2-227.4-284.3-276.4-460.7l-31.4-117.6l-109.8-5.9l-111.8-5.9v874.4V28.8h1460.7h1460.7V-843.7z M6351.2-1088.8v-627.4H4527.9H2704.5l-9.8,54.9c-113.7,529.4-639.2,911.7-1148.9,833.3c-384.3-60.8-735.2-368.6-847-745l-41.2-143.1H534H410.5v627.4v627.4h2970.4h2970.4V-1088.8z M1996.7-1196.6c139.2-62.7,276.5-200,341.1-337.2c35.3-78.4,41.2-129.4,43.1-309.8c0-200-3.9-223.5-58.8-329.4c-121.6-243.1-345.1-374.5-637.2-374.5s-523.5,137.2-641.1,376.4c-51,102-54.9,131.4-54.9,327.4c0,180.4,7.8,231.3,43.1,307.8c84.3,182.3,272.5,337.2,470.6,388.2C1634-1114.3,1863.3-1137.8,1996.7-1196.6z M8117.8-1159.4c347-102,535.3-403.9,488.2-782.3c-21.6-176.5-84.3-303.9-200-413.7c-107.9-103.9-213.7-156.8-372.5-186.3c-329.4-60.8-666.6,115.7-782.3,407.8c-68.6,170.6-66.7,445.1,3.9,594.1c27.5,60.8,80.4,143.1,115.7,182.3C7541.3-1163.3,7849.2-1080.9,8117.8-1159.4z"/></g></g>
</svg>