<?xml version="1.0" encoding="utf-8"?>
<!-- Svg Vector Icons : http://www.sfont.cn -->
<!DOCTYPE svg PUBLIC "-//W3C//DTD SVG 1.1//EN" "http://www.w3.org/Graphics/SVG/1.1/DTD/svg11.dtd">
<svg version="1.1" xmlns="http://www.w3.org/2000/svg" xmlns:xlink="http://www.w3.org/1999/xlink" x="0px" y="0px" viewBox="0 0 1000 1000" enable-background="new 0 0 1000 1000" xml:space="preserve">
<metadata> Svg Vector Icons : http://www.sfont.cn </metadata>
<g><g><path d="M987.9,467.6l-74.2-159.1c-3.6-7.8-11.5-12.8-20.1-12.8H688.2c-12.2,0-22.2,9.9-22.2,22.2s9.9,22.2,22.2,22.2h191.4l66.1,141.9v220.7h-23.8c-10.7-70.8-72-125.3-145.8-125.3c-73.8,0-135,54.5-145.8,125.3H369.7c-2.4-15.7-7.3-30.6-14.2-44.3h266.2c12.2,0,22.2-9.9,22.2-22.2V149.9c0-12.2-9.9-22.2-22.2-22.2H32.2c-12.2,0-22.2,9.9-22.2,22.2v486.2c0,12.2,9.9,22.2,22.2,22.2h60.3c-7,13.7-11.9,28.6-14.3,44.3h-46c-12.2,0-22.2,9.9-22.2,22.2c0,12.2,9.9,22.2,22.2,22.2h46c10.7,70.8,72,125.3,145.8,125.3c73.8,0,135-54.5,145.8-125.3h260.5c10.7,70.8,72,125.3,145.8,125.3c73.8,0,135-54.5,145.8-125.3h46c12.2,0,22.2-9.9,22.2-22.2V477C990,473.8,989.3,470.6,987.9,467.6z M54.3,172.1h545.1V614H321c-26-22.7-59.9-36.6-97-36.6c-37.1,0-71.1,13.8-97,36.6H54.3V172.1z M224,827.9c-56.9,0-103.1-46.3-103.1-103.1c0-56.8,46.2-103.1,103.1-103.1c56.9,0,103.1,46.3,103.1,103.1C327.1,781.7,280.8,827.9,224,827.9z M776,827.9c-56.9,0-103.1-46.3-103.1-103.1c0-56.8,46.2-103.1,103.1-103.1c56.8,0,103.1,46.2,103.1,103.1c0,0,0,0,0,0c0,0,0,0,0,0C879.1,781.7,832.9,827.9,776,827.9z"/><path d="M880.3,499.2C880.3,499.2,880.3,499.2,880.3,499.2c12.3,0,22.2-9.9,22.2-22.2c0-3.8-1-7.5-2.7-10.6l-38.1-81.7c-3.6-7.8-11.5-12.8-20.1-12.8H697.8c-12.2,0-22.2,9.9-22.2,22.2v83c0,12.2,9.9,22.2,22.2,22.2H880.3L880.3,499.2z M720,416.2h107.5l18,38.7H720V416.2z"/></g><g></g><g></g><g></g><g></g><g></g><g></g><g></g><g></g><g></g><g></g><g></g><g></g><g></g><g></g><g></g></g>
</svg>