<?xml version="1.0" encoding="utf-8"?>
<!-- Svg Vector Icons : http://www.sfont.cn -->
<!DOCTYPE svg PUBLIC "-//W3C//DTD SVG 1.1//EN" "http://www.w3.org/Graphics/SVG/1.1/DTD/svg11.dtd">
<svg version="1.1" xmlns="http://www.w3.org/2000/svg" xmlns:xlink="http://www.w3.org/1999/xlink" x="0px" y="0px" viewBox="0 0 1000 1000" enable-background="new 0 0 1000 1000" xml:space="preserve">
<metadata> Svg Vector Icons : http://www.sfont.cn </metadata>
<g><path d="M500,990C229.4,990,10,770.6,10,500C10,229.4,229.4,10,500,10c270.6,0,490,219.4,490,490C990,770.6,770.6,990,500,990z M500,945.5c181.4,0,337.4-108.5,406.9-264c-3.9-14.3-35.4-128.4-58.6-171.7v185c0,19.6-15.9,35.4-35.4,35.4h-59c-19.6,0-35.4-15.9-35.4-35.4V512.5c-21.5,50.1-46.9,181.5-70.8,182.4c-25.6,0.9-49.6-124.7-82.7-149.3v184.7c0,19.6-15.9,35.4-35.4,35.4h-59c-19.6,0-35.4-15.9-35.4-35.4l0-184.7C402,570.1,378,695.7,352.4,694.8c-24-0.8-49.3-132.2-70.8-182.4v182.4c0,19.6-15.9,35.4-35.4,35.4h-59c-19.6,0-35.4-15.9-35.4-35.4v-185c-23.1,43.1-54.6,156.9-58.6,171.6C162.6,837,318.6,945.5,500,945.5z M500,54.4C254,54.4,54.5,253.9,54.5,500c0,40.9,5.6,80.4,15.9,118c7.2-31.1,43.2-174.9,90.1-182.5c6.5-7.4,15.9-12.2,26.6-12.2h59c10.6,0,20,4.8,26.5,12.2c52.2,7.6,79.7,164.9,79.7,164.9c46.4-110.6,82.6-118.3,92-118.3c6.5-7.1,15.7-11.6,26.1-11.6h59c10.4,0,19.6,4.5,26.1,11.6c9.4,0,45.6,7.7,92,118.3c0,0,27.5-157.3,79.7-164.9c6.5-7.4,15.9-12.2,26.5-12.2h59c10.6,0,20.1,4.8,26.6,12.2c47,7.6,83,151.7,90.2,182.6c10.3-37.6,15.9-77.2,15.9-118.1C945.6,253.9,746.1,54.4,500,54.4z M783.4,411.5c-35.9,0-64.9-29.1-64.9-64.9c0-35.9,29.1-64.9,64.9-64.9c35.9,0,64.9,29.1,64.9,64.9C848.3,382.4,819.2,411.5,783.4,411.5z M500,458.7c-35.9,0-64.9-29.1-64.9-64.9c0-35.9,29.1-64.9,64.9-64.9c35.9,0,64.9,29.1,64.9,64.9C564.9,429.6,535.9,458.7,500,458.7z M216.6,411.5c-35.9,0-64.9-29.1-64.9-64.9c0-35.9,29.1-64.9,64.9-64.9c35.9,0,64.9,29.1,64.9,64.9C281.6,382.4,252.5,411.5,216.6,411.5z"/></g>
</svg>