<?xml version="1.0" encoding="utf-8"?>
<!-- Svg Vector Icons : http://www.sfont.cn -->
<!DOCTYPE svg PUBLIC "-//W3C//DTD SVG 1.1//EN" "http://www.w3.org/Graphics/SVG/1.1/DTD/svg11.dtd">
<svg version="1.1" xmlns="http://www.w3.org/2000/svg" xmlns:xlink="http://www.w3.org/1999/xlink" x="0px" y="0px" viewBox="0 0 1000 1000" enable-background="new 0 0 1000 1000" xml:space="preserve">
<metadata> Svg Vector Icons : http://www.sfont.cn </metadata>
<g><path d="M54.5,722.7H10v89.1h44.5V722.7z M188.2,990h89.1v-44.5h-89.1V990z M65.7,900.9H18.9c13.4,37.9,42.3,66.8,80.2,80.2v-49C85.7,925.4,74.6,914.3,65.7,900.9z M54.5,544.5H10v89.1h44.5V544.5z M18.9,99.1h49c6.7-13.4,17.8-24.5,31.2-31.2v-49C61.2,32.3,32.3,61.2,18.9,99.1z M54.5,366.4H10v89.1h44.5V366.4z M633.6,10h-89.1v44.5h89.1V10z M934.3,99.1h49c-15.6-37.9-44.5-66.8-82.4-80.2v49C914.3,74.6,925.4,85.7,934.3,99.1z M455.5,10h-89.1v44.5h89.1V10z M54.5,188.2H10v89.1h44.5V188.2z M722.7,990h89.1v-44.5h-89.1V990z M900.9,932.1v49c37.9-13.4,66.8-42.3,80.2-80.2h-49C925.4,914.3,914.3,925.4,900.9,932.1z M945.5,811.8H990v-89.1h-44.5V811.8z M945.5,633.6H990v-89.1h-44.5V633.6z M945.5,455.5H990v-89.1h-44.5V455.5z M945.5,188.2v89.1H990v-89.1H945.5z M366.4,990h89.1v-44.5h-89.1V990z M544.5,990h89.1v-44.5h-89.1V990z M188.2,54.5h89.1V10h-89.1V54.5z M515.6,239.4c-4.5-4.5-8.9-6.7-15.6-6.7c-6.7,0-11.1,2.2-15.6,6.7L306.2,417.6c-4.5,4.5-6.7,8.9-6.7,15.6c0,13.4,8.9,22.3,22.3,22.3c6.7,0,11.1-2.2,15.6-6.7l140.3-140.3V745c0,13.4,8.9,22.3,22.3,22.3c13.4,0,22.3-8.9,22.3-22.3V308.5l140.3,140.3c4.5,4.5,8.9,6.7,15.6,6.7c13.4,0,22.3-8.9,22.3-22.3c0-6.7-2.2-11.1-6.7-15.6L515.6,239.4z M722.7,54.5h89.1V10h-89.1V54.5z"/></g>
</svg>