<?xml version="1.0" encoding="utf-8"?>
<!-- Svg Vector Icons : http://www.sfont.cn -->
<!DOCTYPE svg PUBLIC "-//W3C//DTD SVG 1.1//EN" "http://www.w3.org/Graphics/SVG/1.1/DTD/svg11.dtd">
<svg version="1.1" xmlns="http://www.w3.org/2000/svg" xmlns:xlink="http://www.w3.org/1999/xlink" x="0px" y="0px" viewBox="0 0 1000 1000" enable-background="new 0 0 1000 1000" xml:space="preserve">
<metadata> Svg Vector Icons : http://www.sfont.cn </metadata>
<g><path d="M708.1,611.4c78.3-61.7,128.8-157.1,128.8-264.6C836.9,160.8,686,10,500,10S163.1,160.8,163.1,346.9c0,107.4,50.5,202.9,128.8,264.6C151.5,683,52.7,824.4,41.7,990h61.4c11.8-155.1,112.6-285.1,251.4-339.7c44.1,21.2,93.3,33.4,145.5,33.4c52.2,0,101.4-12.3,145.5-33.4C784.3,704.9,885.1,834.9,896.9,990h61.3C947.4,824.4,848.5,683,708.1,611.4z M500,622.5c-152.2,0-275.6-123.4-275.6-275.6S347.8,71.3,500,71.3c152.2,0,275.6,123.4,275.6,275.6S652.2,622.5,500,622.5z"/></g>
</svg>