<?xml version="1.0" encoding="utf-8"?>
<!-- Svg Vector Icons : http://www.sfont.cn -->
<!DOCTYPE svg PUBLIC "-//W3C//DTD SVG 1.1//EN" "http://www.w3.org/Graphics/SVG/1.1/DTD/svg11.dtd">
<svg version="1.1" xmlns="http://www.w3.org/2000/svg" xmlns:xlink="http://www.w3.org/1999/xlink" x="0px" y="0px" viewBox="0 0 1000 1000" enable-background="new 0 0 1000 1000" xml:space="preserve">
<metadata> Svg Vector Icons : http://www.sfont.cn </metadata>
<g><g transform="translate(0.000000,512.000000) scale(0.100000,-0.100000)"><path d="M4525.3,5006c-952.3-95.8-1872-473.3-2605.9-1065.4c-249.1-201.2-651.5-615.1-835.4-858.4c-513.5-684.1-831.6-1467.7-960-2356.8C87.7,464.9,93.4-274.7,135.6-548.7c134.1-871.8,438.8-1605.7,956.1-2297.4c176.3-237.6,697.5-758.8,935.1-935.1c839.2-626.6,1770.5-958,2805.2-994.4c1120.9-42.2,2209.2,302.7,3129,992.5c233.8,174.4,653.4,582.5,843.1,818.2c709,881.4,1094.1,1971.6,1096,3096.4c0,1099.8-398.5,2220.8-1101.7,3084.9c-187.8,231.8-609.3,640-837.3,810.5c-674.5,505.8-1431.3,822-2276.3,952.3C5445.1,5015.6,4770.6,5032.9,4525.3,5006z M5406.7,4682.2c883.3-80.5,1768.6-436.9,2462.2-992.5c829.7-666.8,1402.6-1601.9,1621-2646.1c113.1-548,113.1-1295.3,0-1843.3c-206.9-990.6-756.9-1919.9-1513.7-2558c-680.2-572.9-1481.1-929.3-2397-1063.4c-226.1-34.5-942.7-34.5-1168.8,0c-1053.9,155.2-1927.6,584.4-2648,1302.9C695.1-2058.6,219.9-527.7,492,955.4c222.3,1193.7,912.1,2257.2,1916.1,2945c653.4,450.3,1393,709,2241.8,789.4C4805.1,4703.3,5211.3,4699.5,5406.7,4682.2z"/><path d="M3322,2982.6c-7.7-5.7-13.4-67.1-13.4-134.1v-120.7h134.1h134.1v-124.6v-124.6l-473.3-3.8l-471.4-5.8l3.8-153.3c7.7-327.7,86.2-643.8,228-917.8c199.3-389,494.4-659.1,954.2-875.7c161-76.6,203.1-105.4,239.5-164.8c24.9-40.2,145.6-176.3,268.3-302.7c220.4-228,285.5-316.2,285.5-392.8c0-28.7,11.5-38.3,47.9-38.3c46,0,47.9-3.8,47.9-118.8c-1.9-115-3.8-122.6-63.2-159c-47.9-30.7-63.2-53.7-67.1-111.1c-5.8-61.3,0-72.8,47.9-93.9c28.7-13.4,55.6-24.9,59.4-26.8c3.8-1.9-17.2-26.8-44.1-53.6c-57.5-57.5-122.6-193.5-124.5-254.8c0-93.9-13.4-101.5-183.9-101.5c-136,0-166.7-5.7-199.3-38.3c-21.1-21.1-38.3-55.6-38.3-76.7c0-36.4-13.4-38.3-182-38.3h-182v-536.5v-536.5h-76.6h-76.6v-115v-115l1414.1,3.8l1412.2,5.8v105.4v105.4l-70.9,5.7l-72.8,5.7v536.5v534.6h-182c-168.6,0-182,1.9-182,38.3c0,21.1-17.3,55.6-38.3,76.7c-32.6,32.6-63.2,38.3-210.8,38.3h-172.5v63.2c0,74.7-74.7,239.5-132.2,289.3c-51.7,47.9-51.7,61.3,7.7,76.6c47.9,11.5,76.6,72.8,63.2,139.9c-3.8,19.2-34.5,51.7-67.1,72.8c-59.4,36.4-61.3,44.1-63.2,157.1c0,107.3,3.8,118.8,42.2,124.6c32.6,3.8,47.9,24.9,61.3,80.5c13.4,59.4,67.1,126.5,251,318.1C5767,160.2,5895.4,305.8,5926,349.9c44.1,67.1,84.3,95.8,247.2,172.4c450.3,212.7,749.2,484.8,942.7,856.5c147.5,283.6,235.7,638.1,235.7,952.3v147.5h-469.4h-469.4v124.6v124.6h122.6c80.5,0,124.6,7.7,132.2,24.9c3.8,11.5,3.8,72.8-1.9,134.1L6658,2996H4994.8C4082.7,2996,3327.8,2990.3,3322,2982.6z M3596,2108.9c0-145.6,51.7-561.4,95.8-783.7c46-226.1,132.2-502,210.8-676.4c30.7-69,49.8-124.5,44.1-124.5c-30.6,0-383.2,306.6-528.8,457.9c-343,360.2-528.8,754.9-530.8,1119v109.2h354.5H3596V2108.9z M7102.5,2101.2c-1.9-362.1-189.7-760.7-530.8-1117.1c-145.6-153.3-498.2-459.9-528.8-459.9c-5.7,0,13.4,55.6,44.1,124.5c78.6,174.4,164.8,450.3,210.8,676.4c44.1,222.3,95.8,638.1,95.8,783.7v101.5H6748h354.5V2101.2z M5914.5-1991.6v-358.3L4991-2346l-925.5,5.7l-3.8,335.3c-1.9,183.9,0,344.9,1.9,354.5c3.8,11.5,331.5,19.2,929.3,19.2h921.6V-1991.6z"/><path d="M4117.2-1989.6l5.7-312.3l868-5.7c760.7-3.8,866.1,0,868,24.9c0,15.3,0,128.4,0,249.1c0,120.7,0,251,0,287.4l-1.9,67.1h-871.8h-871.8L4117.2-1989.6z M4266.7-1775c0-46-49.8-72.8-80.5-42.2c-30.6,30.6-3.8,80.5,42.2,80.5C4253.3-1736.7,4266.7-1750.1,4266.7-1775z M5809.1-1784.6c0-57.5-74.7-51.7-82.4,5.7c-5.8,38.3,0,44.1,38.3,38.3C5793.8-1744.4,5809.1-1759.7,5809.1-1784.6z M5243.9-1784.6c0-24.9-61.3-28.7-431.1-28.7c-369.8,0-431.1,3.8-431.1,28.7c0,24.9,61.3,28.7,431.1,28.7C5182.6-1755.9,5243.9-1759.7,5243.9-1784.6z M4991-1888.1c5.8-15.3-93.9-21.1-300.8-21.1c-233.8,0-308.5,5.7-308.5,24.9C4381.6-1853.6,4981.4-1857.4,4991-1888.1z M5148.1-1985.8c0-11.5-139.9-19.2-383.2-19.2c-243.3,0-383.2,7.6-383.2,19.2c0,11.5,139.9,19.2,383.2,19.2C5008.2-1966.7,5148.1-1974.3,5148.1-1985.8z M4937.3-2091.2c0-24.9-44.1-28.7-277.8-28.7c-233.8,0-277.8,3.8-277.8,28.7c0,24.9,44.1,28.7,277.8,28.7C4893.2-2062.5,4937.3-2066.3,4937.3-2091.2z M4262.8-2211.9c5.8-34.5-1.9-42.2-42.1-42.2c-36.4,0-49.8,9.6-49.8,34.5C4170.9-2144.8,4253.3-2137.2,4262.8-2211.9z M4734.2-2169.8c105.4-26.8,42.2-46-151.4-46c-157.1,0-201.2,5.7-201.2,26.8c0,19.2,38.3,26.8,151.4,28.7C4615.4-2158.3,4705.5-2162.1,4734.2-2169.8z M5809.1-2206.2c0-24.9-15.3-40.3-42.2-44.1c-32.6-5.8-44.1,3.8-44.1,30.7c0,19.2,5.7,42.2,13.4,49.8C5761.2-2144.8,5809.1-2167.8,5809.1-2206.2z"/></g></g>
</svg>