<?xml version="1.0" encoding="utf-8"?>
<!-- Svg Vector Icons : http://www.sfont.cn -->
<!DOCTYPE svg PUBLIC "-//W3C//DTD SVG 1.1//EN" "http://www.w3.org/Graphics/SVG/1.1/DTD/svg11.dtd">
<svg version="1.1" xmlns="http://www.w3.org/2000/svg" xmlns:xlink="http://www.w3.org/1999/xlink" x="0px" y="0px" viewBox="0 0 1000 1000" enable-background="new 0 0 1000 1000" xml:space="preserve">
<metadata> Svg Vector Icons : http://www.sfont.cn </metadata>
<g><g transform="translate(0.000000,512.000000) scale(0.100000,-0.100000)"><path d="M4896.1,4659.3l-117-358.8l-385.6-9.6l-387.5-9.6l306.9-220.6c278.2-199.5,306.9-224.5,297.4-268.6c-5.8-26.9-57.5-191.8-115.1-368.3c-57.6-178.4-94-316.5-80.6-308.9c11.5,5.8,143.9,101.7,295.4,211c151.6,109.3,283.9,203.3,297.4,207.2c13.4,3.8,157.3-90.2,320.4-211c163.1-118.9,299.3-211,301.2-205.3c3.8,7.7-46,168.8-107.4,358.8c-61.4,189.9-109.4,351.1-105.5,356.8c3.8,7.7,142,111.3,308.9,230.2l301.2,218.7l-383.7,5.7l-383.7,3.8l-120.9,364.5c-65.2,201.4-120.9,364.5-122.8,364.5S4959.4,4858.9,4896.1,4659.3z"/><path d="M3750.8,1409.5c-692.5-878.6-1258.5-1598-1256.6-1599.9c1.9-1.9,266.7,48,589,109.3c322.3,63.3,596.6,111.3,610,109.4c15.4-3.8-377.9-565.9-943.8-1348.6c-531.4-738.6-966.9-1344.8-965-1346.7c1.9-1.9,245.6,48,541,111.3c295.4,63.3,548.7,111.3,562.1,109.3c11.5-3.8-391.3-527.6-895.9-1166.4l-920.8-1160.6l3934.7-5.8c2164-1.9,3938.5,0,3944.2,3.8c3.8,5.8-402.9,527.6-907.4,1162.5c-502.6,635-911.2,1158.7-905.5,1164.5c5.7,3.8,255.1-42.2,554.4-105.5c299.2-63.3,546.7-111.3,548.7-107.4c3.8,1.9-429.7,610.1-965,1350.6c-533.3,742.4-968.8,1348.6-965,1352.5c3.8,1.9,278.2-51.8,610.1-117c331.9-67.1,610.1-120.9,617.7-120.9c15.4-1.9-2411.4,3079.1-2486.3,3157.7l-40.3,42.2L3750.8,1409.5z M5201.1,1847c97.8-40.3,224.5-163.1,266.6-259c53.7-124.7,49.9-283.9-15.3-414.4c-216.8-443.2-874.8-320.4-924.7,172.7c-30.7,285.8,193.8,527.6,487.3,527.6C5082.2,1873.8,5166.6,1862.3,5201.1,1847z M5212.6-535.7c92.1-38.4,209.1-155.4,253.2-253.2c90.2-197.6,21.1-462.4-155.4-589c-197.6-143.9-429.7-136.2-613.9,23c-149.6,128.5-205.3,314.6-149.6,506.5C4631.3-564.5,4934.4-420.6,5212.6-535.7z M6595.8-2697.8c134.3-69.1,245.6-195.7,283.9-320.4c30.7-103.6,26.8-266.7-11.5-376c-42.2-126.6-193.8-278.2-320.4-320.4c-282-95.9-564,13.4-696.4,272.4c-195.7,377.9,71,803.8,506.5,807.6C6453.8-2634.5,6497.9-2646,6595.8-2697.8z M3867.8-2715c94-28.8,230.2-161.1,282-274.3c153.5-326.1-95.9-709.8-462.3-709.8c-366.4,0-615.8,381.8-462.3,709.8C3344.1-2732.3,3587.7-2628.7,3867.8-2715z"/><path d="M7716.1-303.6c-95.9-49.9-178.4-157.3-203.3-272.4c-63.3-278.2,178.4-531.4,441.2-466.2c180.3,46.1,289.7,189.9,289.7,383.7c0,224.5-151.6,383.7-362.6,383.7C7821.7-274.8,7748.8-288.2,7716.1-303.6z"/><path d="M1960.9-320.9C1888-353.5,1788.2-459,1761.4-530c-30.7-80.6-25-186.1,15.3-272.4c151.5-328,631.1-272.4,713.7,82.5c32.6,147.7-57.5,324.2-201.4,389.4C2196.9-288.2,2043.4-284.4,1960.9-320.9z"/><path d="M8694.5-2761.1c-11.5-1.9-51.8-9.6-92.1-17.3c-95.9-15.3-212.9-122.8-255.1-232.1c-90.2-237.9,94-477.7,366.4-477.7c462.3,0,537.1,631.2,84.4,715.6C8752.1-2763,8704.1-2759.2,8694.5-2761.1z"/><path d="M1107.2-2830.1c-189.9-97.8-260.9-297.3-168.8-475.8c124.7-243.6,504.5-274.3,665.7-55.6C1836.2-3048.8,1462.1-2649.8,1107.2-2830.1z"/></g></g>
</svg>