<?xml version="1.0" encoding="utf-8"?>
<!-- Svg Vector Icons : http://www.sfont.cn -->
<!DOCTYPE svg PUBLIC "-//W3C//DTD SVG 1.1//EN" "http://www.w3.org/Graphics/SVG/1.1/DTD/svg11.dtd">
<svg version="1.1" xmlns="http://www.w3.org/2000/svg" xmlns:xlink="http://www.w3.org/1999/xlink" x="0px" y="0px" viewBox="0 0 1000 1000" enable-background="new 0 0 1000 1000" xml:space="preserve">
<metadata> Svg Vector Icons : http://www.sfont.cn </metadata>
<g><g><g><path d="M644.9,751c-14.5-24.1-38.5-51.4-66.8-57.7c-7-1.6-11.2,3.2-11.7,8c-1.6,0-3.7,0.5-6.5,2.1c-3.7,2.6-7,5.9-9.1,10.1c-4.9,9.1-5.9,19.8-4.9,29.4c2.1,22.6,11.7,44.9,25.7,63.1c11.7,16.1,28.9,31.1,50.2,27.3c10.1-2.1,17.7-10.1,23.1-18.2c1-1.6,2.1-3.7,3.1-5.9C669.5,797.6,653.9,766.6,644.9,751z M603.6,804.6c-5.4-3.7-10.1-9.6-14-15.6c-9.6-13.5-16.1-28.9-19.2-45.5c-0.5-2.6-0.5-5.4-0.5-8c2.6,15,8,29.9,10.7,34.8c6.5,13.5,19.2,29.9,34.3,37.9C612.7,809.3,608.5,807.7,603.6,804.6z"/><path d="M452.1,713.1C452.7,713.1,452.7,712.6,452.1,713.1"/><path d="M506.7,746.2c-6.5-15.6-20.8-35.8-39-35.3c-2.6-4.2-7-5.9-11.2-4.9c-2.1-1-4.9-1.6-7.5,0c-32.7,16.6-60,47-63.7,84.5c-2.6,28.3,8,59.5,37.9,67.5c33.2,8.6,74.8-20.8,85.7-51.4C515.3,786.4,514.2,765.6,506.7,746.2z"/><path d="M896.9,59.6C692.4-91.3,351.1,108.9,504.6,349.2c-3.1,1.6-6.5,3.1-9.6,5.9c-3.7,3.7-6.5,8.6-7.5,14c-0.5,2.6-1,6.5,0,9.1c0,0.5,0.5,0.5,0.5,1c-14.5-1-28.3,0-41.3,3.1c-4.2-7-10.7-12.2-17.7-15c56.1-90.9,34.3-246.8-53-306C290.4,2.4,96.3,32,41,125c-28.3,47.6-51.4,124.2-2.6,169.1c43.4,40.2,81.3,39,128.4,5.9c15.6-11.2,119.8-76.1,100-12.8c-6.5,20.8-12.2,36.9-7,58.4c15.6,63.1,89.9-11.7,109.6,36.4c1,2.6,2.6,4.2,4.2,5.9c-2.1,4.2-3.1,8.6-3.1,14c0,10.1,5.9,17.1,13.5,21.9c-7,8-13.5,17.1-19.2,27.3c-0.5,1-1,2.1-1.6,3.1c-24.7-41.3-80.3-9.6-120.3-19.8c-7-1.6-15,6.5-10.1,12.8c25.7,33.2,59.5,64.7,103.4,63.1c-5.9,13.5-11.7,26.8-17.7,39.5c-14,20.3-26.8,39.5-37.4,57.2c-20.8,24.1-43.4,47-53.5,77.6c-34.3,102.8,29.9,164.7,115.1,194.8c-53,12.2-18.2,57.7,15.6,72.2c89.4,37.4,201.3,22.6,290.1-17.1c2.1,5.9,4.9,11.7,7.5,17.7c10.7,21.9,32.2,43.9,55.1,35.9c18.7,0.5,39.5-3.1,57.7-11.7c3.1,5.4,6.5,10.1,11.7,13.3c11.2,7.5,26.2-1,35.9-7c3.7-2.1,5.9-6.5,4.2-10.7c-2.6-7.5-5.9-13.3-10.7-19.2c-1.6-1.6-2.6-3.7-4.2-5.9c7.5-11.2,10.7-24.7,8.6-40.2c3.7-1.6,5.9-5.9,3.7-9.6c-8-14.5-24.1-26.2-41.3-35.9c4.9-10.1,6.5-21.3,3.7-33.2c-2.1-10.1-9.1-21.3-18.2-29.4c31-30.4,46.5-68.6,29.9-114c-27.3-72.7-129.6-78.7-152.5-150.4c-5.4-16.1-10.7-35.3-17.1-54c37.9,5.4,71.7-25.2,97.9-50.4c5.4-5.4,1.6-17.7-7-16.6c-27.8,3.7-49.8-15-76.1-20.8c-20.8-4.9-37.4,5.9-49.3,21.3c-5.9-7.5-12.8-14-20.8-18.7c-0.5-7-2.6-14.5-4.9-20.3c3.7-2.1,7-5.4,7.5-10.7c4.9-46,53-27.3,74.8-49.3c27.8-27.8,19.2-119.8,85.7-67.5c59.5,46.5,92.5,105.5,175.1,94.8C1056.9,321.9,974,116.4,896.9,59.6z M507.4,462.2c5.4,8.6,15.6,15,21.3,23.6c7.5,10.1,12.8,22.6,15,35.3c-2.1,3.2-1.6,7.5,0.5,10.1c0,3.7-1.1,7-2.1,9.6c0-0.5,0-1.1-0.5-1.6c-2.6-9.1-11.7-12.2-20.3-11.7c-3.7,0-7,2.6-8,5.9c-1.6,7.5-2.1,15,2.6,21.3c1.6,2.1,3.7,3.7,5.9,4.9c-2.6,0.5-5.4-0.5-7.5-3.7c-9.8-14.3-9.8-35.7-9.8-51.8C504.1,490.5,504.1,475.4,507.4,462.2z M439.9,470c11.7,15.6,15,34.8,10.1,53.5c-1.6-4.2-3.1-8-5.4-11.7c-2.6-4.2-9.6-5.9-12.8-1.6c-3.7,4.2-7.5,9.1-5.9,15c1,4.9,4.9,7.5,5.9,11.7c0.5,3.1,2.6,4.2,5.4,4.2c0.5,0.5,1,1.1,1.6,2.1c-0.5,0-0.5,0.5-1,0.5c-3.7,1.1-5.9,0.5-10.1-1.6c-9.1-5.4-12.8-18.2-12.8-28.9C414.7,495.7,427.1,481.4,439.9,470z M348.4,327.7c-11.7-0.5-26.8,9.6-36.9,15c-40.7,21.3-14-62.1-12.8-66.8c12.8-69.6-95.8-34.3-122.6-16.1c-15.6,10.7-29.4,22.6-45.5,32.2c-40.7,18.7-70.1,3.1-88.8-46.5c-14.5-35.9,7.5-86.7,30.4-113.5C116.2,80.6,197,63.4,260.6,61.9c172.3-5.4,188.9,175.6,148.3,303.9c-5.4,0.5-10.7,1.6-15.6,4.2C384.8,346,375.7,328.9,348.4,327.7z M273.4,465.8c24.7,8.6,51.9,11.2,77.6,11.2c-2.6,5.4-5.4,10.1-7.5,15.6C315.7,493.1,292.6,483,273.4,465.8z M473.6,947.4c-31.7,1.6-169.1-8-127.8-66.8c0-0.5,0-0.5,0-1.1c62.6,21.3,135.9,25.7,189.9,16.1c25.7-4.2,61.6-13.5,99-26.2c-0.5,2.1-0.5,4.2-0.5,6.5c-2.6,11.7-1.6,24.1,3.1,36.4C583.8,931.3,531.9,944.8,473.6,947.4z M762,852.7c-6.5-3.1-12.8-5.9-18.7-8c-9.6-3.7-20.8-7.5-32.2-9.6c12.8-7.5,24.7-15.6,35.3-24.1c5.4,4.9,11.2,9.6,14.5,17.7C764.1,836.7,764.1,845.1,762,852.7z M648.5,435.4c12.8-1.6,27.3-1,40.2-4.2h0.5c-21.3,19.2-44.9,32.7-76.1,26.8c-2.1-4.9-4.9-10.1-7-15C620.7,440.1,634.7,437.5,648.5,435.4z M734.7,738.1l0.5,0.5c4.9,3.7,9.1,8,13.3,12.2c2.1,2.1,4.9,3.1,7,3.1c-35.3,50.9-127.3,91.5-182.4,107c-48.1,14-99,20.8-149.3,17.1c-50.9-3.7-108.1-28.3-143.9-66.3C324.3,641.9,613.7,638.6,734.7,738.1z M950.9,279.6c-31.7,68.6-113.5,24.7-149.3-7.5c-35.3-32.2-70.1-76.6-121.5-78.7c-64.2-2.6-23.1,100.6-79.2,107.5c-37.4,4.9-52.5,17.1-57.7,51.4c-4.2-2.6-9.1-4.2-14-5.4c-61-118.7-34.3-238.2,97.9-292.2c117.2-48.1,269.1-5.9,319.5,117.2C960.5,205.8,966.5,245.8,950.9,279.6z"/></g></g><g></g><g></g><g></g><g></g><g></g><g></g><g></g><g></g><g></g><g></g><g></g><g></g><g></g><g></g><g></g></g>
</svg>